<?xml version="1.0" encoding="UTF-8"?>
<svg width="114px" height="143px" viewBox="0 0 114 143" version="1.1" xmlns="http://www.w3.org/2000/svg" xmlns:xlink="http://www.w3.org/1999/xlink">
    <!-- Generator: Sketch 47.1 (45422) - http://www.bohemiancoding.com/sketch -->
    <title>about-fish</title>
    <desc>Created with Sketch.</desc>
    <defs></defs>
    <g id="Page-1" stroke="none" stroke-width="1" fill="none" fill-rule="evenodd">
        <g id="about-fish">
            <path d="M73.4761636,123.380183 L73.3802775,123.44759 C65.2627052,127.778509 58.8898728,128.8426 58.8898728,128.8426 C43.7164624,147.685017 26.7222428,140.998998 26.7222428,140.998998 C34.6124162,139.175538 44.0199306,130.362149 40.3783121,122.460491 C36.7366936,114.558832 39.1644393,107.872813 39.1644393,107.872813 C50.6962312,107.568903 59.8002775,115.470562 59.8002775,115.470562 C62.9471873,113.039412 65.1840704,110.057062 66.6016291,106.682519 L66.4009133,106.73311 C57.6003353,105.66902 55.8984855,111.763427 57.2207977,106.65693 C59.3450751,98.4513611 68.1076185,92.638982 68.1076185,92.638982 L68.2936217,92.8461075 C66.8078061,79.3009062 57.5723774,63.5910016 43.8685213,51.468543 L43.8685202,51.6490664 C44.0198497,54.3842559 42.2864393,57.8771943 40.2269017,60.9179147 C37.3435491,65.172654 38.8608902,72.922763 38.8608902,72.922763 C24.2944162,60.7663649 28.2395029,40.7083081 28.2395029,40.7083081 L28.5673707,40.6276488 C28.0567277,40.3453059 27.5428078,40.068359 27.025711,39.7969834 C-2.94157225,24.069846 1.38224277,15.7880972 1.38224277,15.7880972 C7.5276763,17.7128602 10.0314913,15.9404573 10.0314913,15.9404573 C10.0314913,15.9404573 9.27241618,12.6728175 7.14813873,9.17825829 C4.76328324,5.25417299 4.64513295,3.3277891 4.64513295,3.3277891 C29.9211508,-3.4113359 57.7492261,7.54033874 77.4470578,25.5089385 C78.7138903,25.3922075 105.948694,22.9978244 113.210601,32.1992346 C113.210601,32.1992346 104.864821,32.1992346 101.830139,41.164173 C98.7984076,50.1212036 103.793356,56.3475525 98.659148,54.2384832 C102.377162,62.6996699 104.187882,71.4549219 103.499699,79.9130972 C102.292301,94.7495758 95.9744971,105.388045 88.5917225,112.754012 L88.566389,112.771821 C87.6848615,125.383125 78.0182828,133.026382 74.5184046,125.65114 C74.1082551,124.786946 73.7561045,124.041314 73.4761636,123.380183 Z" id="Combined-Shape" fill="#FFFFFF"></path>
            <g id="Group-28" transform="translate(0.803468, 0.693498)" stroke="#000000" stroke-linecap="round" stroke-linejoin="round">
                <path d="M87.7882543,112.060514 C95.1710289,104.694547 101.488832,94.0560782 102.696231,79.2195995 C106.034382,38.1917559 50.5757688,-9.82601659 3.84166474,2.63429147 C3.84166474,2.63429147 3.95981503,4.56067536 6.34467052,8.48476066 C8.46894798,11.9793199 9.22802312,15.2469597 9.22802312,15.2469597 C9.22802312,15.2469597 6.72420809,17.0193626 0.578774566,15.0945995 C0.578774566,15.0945995 -3.74504046,23.3763483 26.2222428,39.1034858 C60.0148439,56.8380498 80.2395838,98.3659265 58.9968092,114.777064 C58.9968092,114.777064 49.892763,106.875405 38.3609711,107.179315 C38.3609711,107.179315 35.9332254,113.865334 39.5748439,121.766993 C43.2164624,129.668652 33.808948,138.48204 25.9187746,140.3055 C25.9187746,140.3055 42.9129942,146.991519 58.0864046,128.149102 C58.0864046,128.149102 64.459237,127.085012 72.5768092,122.754092" id="Stroke-14"></path>
                <path d="M22.4288092,10.1561033 C22.4288092,11.5403118 21.3071908,12.663563 19.9249942,12.663563 C18.5419884,12.663563 17.4219884,11.5403118 17.4219884,10.1561033 C17.4219884,8.77108436 18.5419884,7.6486436 19.9249942,7.6486436 C21.3071908,7.6486436 22.4288092,8.77108436 22.4288092,10.1561033 Z" id="Stroke-16"></path>
                <path d="M76.5978844,24.819718 C76.5978844,24.819718 104.971757,22.0845284 112.407133,31.505737 C112.407133,31.505737 104.061353,31.505737 101.026671,40.4706754 C97.9919884,49.4364242 102.999618,55.666173 97.840659,53.5388033" id="Stroke-18"></path>
                <path d="M49.5892139,43.5097749 C49.5892139,43.5097749 65.8243584,47.0043341 75.5361503,57.4896327 C80.4377688,62.7825284 80.2289827,63.8069076 74.7770751,63.1115616 C66.4312948,62.048282 63.3966127,67.3663009 59.7558035,63.8717417 C56.114185,60.376372 48.830948,53.0833436 46.0997341,48.5238839" id="Stroke-20"></path>
                <path d="M27.4360347,40.0148104 C27.4360347,40.0148104 23.490948,60.0728673 38.057422,72.2292654 C38.057422,72.2292654 36.5400809,64.4791564 39.4234335,60.2244171 C41.4829711,57.1836967 43.2163815,53.6907583 43.065052,50.9555687" id="Stroke-22"></path>
                <path d="M67.3041503,91.9454844 C67.3041503,91.9454844 58.5416069,97.7578635 56.4173295,105.963432 C55.0950173,111.06993 56.7968671,104.975522 65.5974451,106.039612" id="Stroke-24"></path>
                <path d="M83.4259191,99.7331161 C83.4259191,99.7331161 83.2745896,108.698865 77.0530867,113.712974 C70.8315838,118.727083 71.0371329,119.315453 73.7149364,124.957642 C77.3565549,132.631571 87.674474,124.045912 87.8258035,110.522325 C87.9277688,101.39368 83.4259191,99.7331161 83.4259191,99.7331161 Z" id="Stroke-26"></path>
            </g>
        </g>
    </g>
</svg>