<?xml version="1.0" encoding="UTF-8"?>
<svg width="133px" height="99px" viewBox="0 0 133 99" version="1.1" xmlns="http://www.w3.org/2000/svg" xmlns:xlink="http://www.w3.org/1999/xlink">
    <!-- Generator: Sketch 47.1 (45422) - http://www.bohemiancoding.com/sketch -->
    <title>about-fish-water</title>
    <desc>Created with Sketch.</desc>
    <defs></defs>
    <g id="Page-1" stroke="none" stroke-width="1" fill="none" fill-rule="evenodd">
        <g id="about-fish-water" transform="translate(1.000000, 1.000000)">
            <g id="Group-13" fill="#FFFFFF">
                <path d="M14.1593688,73.3319263 C14.790073,70.8461709 15.1732659,67.7008091 14.9031239,63.8583333 C13.921627,49.8968 -3.72264294,47.0854167 0.933798773,36.5770833 C3.54059632,30.6948417 11.6565718,35.0396333 8.62705031,40.4166667 C4.98287853,46.8833333 16.6296515,53.7509333 22.5963755,56.9875 C29.1330492,60.5335361 29.2863298,66.5685199 28.7968282,69.8515056 C36.3830242,68.5281589 44.5224698,67.7834343 53.215165,67.6173316 C59.6838794,63.3005534 67.2761781,61.0534216 74.4245963,61.8375 C92.8479092,63.8583333 85.8049399,46.4444083 88.7988294,39.40625 C97.9092589,17.9854167 117.344842,32.13125 119.976744,19.4 C122.269333,8.30805 141.233602,17.9854167 124.835639,25.6645833 C108.436866,33.34375 106.817234,45.0645833 100.743615,58.2 C98.5426195,62.9600922 97.7507353,67.2159562 97.6357205,70.7079298 C109.586927,73.4126127 117.142469,77.3984947 117.142469,81.8435075 C117.142469,89.9906992 91.762027,96.5955908 60.4553521,96.5955908 C29.1478675,96.5955908 3.76823558,89.9906992 3.76823558,81.8435075 C3.76823558,78.6829242 7.58813742,75.7543325 14.0917693,73.3527742 C14.1142965,73.3458186 14.1368296,73.3388693 14.1593688,73.3319263 Z M29.0242896,69.5671875 C30.6455411,69.2818458 32.0732466,69.0611708 33.8078724,68.8194792 L29.0242896,69.5671875 Z M121.191467,4.44583333 C121.191467,6.67845 119.37829,8.4875 117.142388,8.4875 C114.905676,8.4875 113.093308,6.67845 113.093308,4.44583333 C113.093308,2.214025 114.905676,0.404166667 117.142388,0.404166667 C119.37829,0.404166667 121.191467,2.214025 121.191467,4.44583333 Z M13.283492,27.6854167 C13.283492,29.136375 12.1052098,30.3125 10.6515902,30.3125 C9.19797055,30.3125 8.01968834,29.136375 8.01968834,27.6854167 C8.01968834,26.2344583 9.19797055,25.0583333 10.6515902,25.0583333 C12.1052098,25.0583333 13.283492,26.2344583 13.283492,27.6854167 Z" id="Combined-Shape"></path>
            </g>
            <g id="Group-13" stroke="#000000">
                <path d="M99.3264368,80.63125 C99.3264368,80.63125 94.6699951,71.3354167 100.743615,58.2 C106.817234,45.0645833 108.436866,33.34375 124.835639,25.6645833 C141.233602,17.9854167 122.269333,8.30805 119.976744,19.4 C117.344842,32.13125 97.9092589,17.9854167 88.7988294,39.40625 C85.8049399,46.4444083 92.8479092,63.8583333 74.4245963,61.8375 C61.1225595,60.3784583 46.283492,69.415625 40.0074184,82.753125" id="Stroke-1" stroke-linecap="round" stroke-linejoin="round"></path>
                <path d="M29.0242896,69.5671875 C30.6455411,69.2818458 32.0732466,69.0611708 33.8078724,68.8194792" id="Stroke-3" stroke-linecap="round" stroke-linejoin="round"></path>
                <path d="M97.6356221,70.7079075 C109.586886,73.4125908 117.142469,77.3984825 117.142469,81.8435075 C117.142469,89.9906992 91.762027,96.5955908 60.4553521,96.5955908 C29.1478675,96.5955908 3.76823558,89.9906992 3.76823558,81.8435075 C3.76823558,78.6829242 7.58813742,75.7543325 14.0917693,73.3527742" id="Stroke-5" stroke-linecap="round" stroke-linejoin="round"></path>
                <path d="M28.2650871,72.14375 C28.2650871,72.14375 31.9092589,62.0395833 22.5963755,56.9875 C16.6296515,53.7509333 4.98287853,46.8833333 8.62705031,40.4166667 C11.6565718,35.0396333 3.54059632,30.6948417 0.933798773,36.5770833 C-3.72264294,47.0854167 13.921627,49.8968 14.9031239,63.8583333 C15.7129399,75.3770833 10.6515902,80.63125 10.6515902,80.63125" id="Stroke-7" stroke-linecap="round" stroke-linejoin="round"></path>
                <path d="M121.191467,4.44583333 C121.191467,6.67845 119.37829,8.4875 117.142388,8.4875 C114.905676,8.4875 113.093308,6.67845 113.093308,4.44583333 C113.093308,2.214025 114.905676,0.404166667 117.142388,0.404166667 C119.37829,0.404166667 121.191467,2.214025 121.191467,4.44583333 Z" id="Stroke-9" stroke-linecap="round" stroke-linejoin="round"></path>
                <path d="M13.283492,27.6854167 C13.283492,29.136375 12.1052098,30.3125 10.6515902,30.3125 C9.19797055,30.3125 8.01968834,29.136375 8.01968834,27.6854167 C8.01968834,26.2344583 9.19797055,25.0583333 10.6515902,25.0583333 C12.1052098,25.0583333 13.283492,26.2344583 13.283492,27.6854167 Z" id="Stroke-11" stroke-linecap="round" stroke-linejoin="round"></path>
                <path d="M34.0330821,68.7818924 C41.8881148,67.9048583 48.3489436,67.4651686 53.4155683,67.4628233" id="Path-7"></path>
            </g>
        </g>
    </g>
</svg>