<?xml version="1.0" encoding="UTF-8"?>
<svg width="661px" height="396px" viewBox="0 0 661 396" version="1.1" xmlns="http://www.w3.org/2000/svg" xmlns:xlink="http://www.w3.org/1999/xlink">
    <!-- Generator: Sketch 47.1 (45422) - http://www.bohemiancoding.com/sketch -->
    <title>Page 1</title>
    <desc>Created with Sketch.</desc>
    <defs>
        <polygon id="path-1" points="20.1639 26.6877 0.2889 26.3127 6.6639 6.4377 17.9139 0.4377 25.4139 6.0627"></polygon>
        <path d="M11.9764,4.8752 C11.9764,4.8752 6.9214,14.1122 14.8864,19.3682 C14.8864,19.3682 16.8514,24.7502 19.8514,19.3752 L22.9764,17.1252 L23.4764,33.5002 L13.1014,35.5002 L3.6014,33.2502 L0.1014,15.5002 L0.3514,3.7502 L10.7264,0.0002 L11.9764,4.8752 Z" id="path-3"></path>
    </defs>
    <g id="Page-1" stroke="none" stroke-width="1" fill="none" fill-rule="evenodd">
        <g id="About" transform="translate(-631.000000, -1298.000000)">
            <g id="Page-1" transform="translate(631.000000, 1298.000000)">
                <g id="Group-182" transform="translate(207.000000, 16.000000)">
                    <mask id="mask-2" fill="white">
                        <use xlink:href="#path-1"></use>
                    </mask>
                    <g id="Mask"></g>
                    <g mask="url(#mask-2)">
                        <g transform="translate(5.000000, 4.394000)">
                            <path d="M13.9789,5.7058 L11.0649,4.3128 C10.5739,4.0788 10.3639,3.4838 10.5989,2.9928 L11.5879,0.9228 C11.8229,0.4308 12.4169,0.2208 12.9089,0.4558 L15.8219,1.8488 C16.3139,2.0828 16.5239,2.6778 16.2889,3.1688 L15.2999,5.2388 C15.0649,5.7298 14.4709,5.9398 13.9789,5.7058 Z" id="Stroke-172" stroke="#FFFFFF" stroke-linecap="round" stroke-linejoin="round"></path>
                            <g id="Group-176" stroke="none" fill-rule="evenodd" transform="translate(0.000000, 4.000000)">
                                <polygon id="Clip-175" points="10.9785 18.2148177 0.895509283 18.0240653 0.895509283 0.439762277 0.939699406 0.302 10.9785 0.302 10.9785 18.2148177"></polygon>
                                <path d="M2.9505,20.616 C1.1225,19.675 2.3465,17.563 2.3465,17.563 C0.5595,14.886 0.1535,11.609 2.6795,7.725 C5.3885,3.559 9.9535,2.447 9.9535,2.447 L10.9785,0.302" id="Stroke-174" stroke="#FFFFFF" stroke-linecap="round" stroke-linejoin="round"></path>
                            </g>
                            <g id="Group-179" stroke="none" fill-rule="evenodd" transform="translate(3.000000, 5.000000)">
                                <polygon id="Clip-178" points="11.0622299 17.2731564 0.2806 17.069187 0.2806 0.7667 11.0622299 0.7667 11.0622299 17.2731564"></polygon>
                                <path d="M0.2806,19.7737 C2.1606,20.6047 3.0346,18.3257 3.0346,18.3257 C6.2406,18.0337 9.0456,16.2917 10.4806,11.8857 C12.0196,7.1607 10.0176,2.9107 10.0176,2.9107 L11.0426,0.7667" id="Stroke-177" stroke="#FFFFFF" stroke-linecap="round" stroke-linejoin="round"></path>
                            </g>
                            <path d="M9.161,13.948 C8.312,15.723 7.293,17.005 6.884,16.809 C6.474,16.614 6.831,15.016 7.679,13.24 C8.528,11.464 9.547,10.183 9.956,10.379 C10.366,10.574 10.009,12.172 9.161,13.948 Z" id="Stroke-180" stroke="#FFFFFF" stroke-linecap="round" stroke-linejoin="round"></path>
                        </g>
                    </g>
                </g>
                <g id="Group-162" transform="translate(141.000000, 18.000000)">
                    <mask id="mask-4" fill="white">
                        <use xlink:href="#path-3"></use>
                    </mask>
                    <g id="Mask"></g>
                    <g mask="url(#mask-4)" stroke-linecap="round" stroke="#FFFFFF" stroke-linejoin="round">
                        <g transform="translate(5.000000, 3.394000)">
                            <path d="M5.7787,5.1858 L2.4637,6.2658 C1.9047,6.4478 1.2987,6.1398 1.1157,5.5808 L0.3487,3.2248 C0.1667,2.6658 0.4747,2.0598 1.0337,1.8768 L4.3497,0.7978 C4.9087,0.6158 5.5147,0.9238 5.6967,1.4828 L6.4647,3.8378 C6.6467,4.3968 6.3377,5.0038 5.7787,5.1858 Z" id="Stroke-154"></path>
                            <path d="M11.2284,28.1824 C9.0984,28.8074 8.4844,26.2454 8.4844,26.2454 C5.0944,25.4814 2.3374,23.2204 1.4224,18.3034 C0.4404,13.0284 3.1824,8.7624 3.1824,8.7624 L2.3874,6.3214" id="Stroke-156"></path>
                            <path d="M11.6039,28.0603 C13.6929,27.3113 12.6799,24.8783 12.6799,24.8783 C14.9699,22.2643 15.8669,18.8133 13.7099,14.3003 C11.3969,9.4593 6.6679,7.6263 6.6679,7.6263 L5.8739,5.1863" id="Stroke-158"></path>
                            <path d="M8.1454,15.218 C8.8034,17.238 8.9594,18.999 8.4944,19.15 C8.0284,19.302 7.1174,17.787 6.4594,15.767 C5.8014,13.747 5.6454,11.986 6.1104,11.834 C6.5764,11.683 7.4874,13.197 8.1454,15.218 Z" id="Stroke-160"></path>
                        </g>
                    </g>
                </g>
                <g id="Group-153" transform="translate(32.000000, 0.394000)">
                    <path d="M268.9916,281.0266 C270.0246,281.7406 271.8246,280.7696 271.9596,279.4356 C271.3806,280.7406 270.4976,281.3976 268.9916,281.0266 M278.8996,275.0846 C278.7906,275.7046 278.6956,276.4126 278.5296,277.1046 C278.4646,277.3766 278.2756,277.6426 278.0796,277.8536 C277.7976,278.1586 277.4746,278.1216 277.2116,277.7936 C277.0736,277.6206 276.9706,277.4196 276.8516,277.2316 C276.9056,277.6666 277.2276,278.1066 277.5686,278.1616 C277.9876,278.2276 278.2216,277.9436 278.4386,277.6476 C278.4566,277.6226 278.4736,277.5966 278.4876,277.5696 C278.8966,276.7546 278.9366,275.8836 278.8996,275.0846 M269.6316,274.0896 C268.9476,274.0816 268.2636,274.0856 267.6226,274.3726 C267.1146,274.6006 266.9876,274.9036 267.1196,275.4336 C267.1756,275.6576 267.2046,275.9006 267.1826,276.1286 C267.1496,276.4876 267.0626,276.8406 266.9976,277.1966 C267.2806,276.6436 267.4236,276.0656 267.2676,275.4486 C267.1286,274.8946 267.2426,274.6516 267.7716,274.4446 C267.8856,274.4006 268.0036,274.3596 268.1236,274.3396 C268.6256,274.2526 269.1286,274.1726 269.6316,274.0896 M274.4276,267.4026 C274.1446,267.2466 272.9416,267.7206 272.1096,268.3326 C270.8646,269.2476 270.1966,270.4826 270.0576,272.0126 C270.4966,269.5066 272.0366,268.0496 274.4276,267.4026 M262.8816,280.2196 C262.8716,280.1996 262.8616,280.1776 262.8506,280.1576 C262.6926,280.2386 262.5256,280.3056 262.3776,280.4036 C262.0646,280.6086 262.0606,280.8396 262.3766,281.0476 C262.5626,281.1696 262.7716,281.2656 262.9826,281.3396 C263.9966,281.6936 264.6476,282.3786 264.9426,283.4126 C265.0336,283.7356 265.1536,284.0526 265.2916,284.3586 C265.3836,284.5596 265.5696,284.6596 265.7666,284.4906 C266.1456,284.1636 266.2726,283.7046 266.3966,283.2486 C266.2216,283.5596 266.0746,283.8866 265.8926,284.1916 C265.8286,284.2996 265.6796,284.4106 265.5656,284.4156 C265.4876,284.4196 265.3816,284.2526 265.3236,284.1416 C265.2536,284.0086 265.2066,283.8586 265.1726,283.7106 C264.8796,282.4286 264.1476,281.5496 262.8656,281.1616 C262.7106,281.1156 262.5596,281.0386 262.4256,280.9476 C262.2136,280.8036 262.2126,280.6306 262.4216,280.4806 C262.5646,280.3796 262.7276,280.3056 262.8816,280.2196 M275.8606,268.8456 C272.6766,271.0996 270.2196,274.0366 268.0586,277.2476 C270.5396,274.3376 272.9966,271.4056 275.8606,268.8456 M282.3446,268.4406 C281.6856,268.2546 281.0386,268.2926 280.3886,268.5176 C280.5256,268.9226 280.4096,269.1656 280.0616,269.2576 C279.7586,269.3386 279.5666,269.1856 279.4666,268.7676 C278.4346,268.8596 277.4746,269.1536 276.6236,269.7716 C277.1846,269.1516 277.9346,268.8606 278.6976,268.5886 C277.6156,268.6766 276.6896,269.0966 275.9616,269.8916 C275.7806,270.0896 275.6676,270.3806 275.5996,270.6466 C275.5216,270.9546 275.6686,271.1446 275.9876,271.1876 C276.2626,271.2246 276.5456,271.1976 276.8256,271.1996 C276.8266,271.2246 276.8286,271.2506 276.8306,271.2756 C276.4616,271.2916 276.0786,271.3696 275.7276,271.2966 C275.5256,271.2546 275.3746,270.9686 275.1816,270.7746 C274.1666,272.0526 273.2506,273.4886 271.9716,274.6136 C271.9436,274.5906 271.9156,274.5696 271.8866,274.5476 C272.8046,273.3106 273.7226,272.0736 274.6406,270.8366 C274.2646,271.1726 273.9036,271.5256 273.5576,271.8946 C272.4746,273.0476 271.4346,274.2346 270.6836,275.6436 C270.6056,275.7926 270.4926,275.9386 270.3606,276.0406 C269.0946,277.0166 267.8206,277.9826 266.5496,278.9536 C266.4356,279.0406 266.3296,279.1356 266.2196,279.2286 C266.2316,279.2446 266.2436,279.2596 266.2566,279.2766 C266.6836,279.0346 267.1106,278.7916 267.5376,278.5486 C267.2796,278.7916 266.9916,278.9846 266.7076,279.1816 C266.4306,279.3736 266.1586,279.5686 265.8836,279.7626 C265.8966,279.7826 265.9086,279.8016 265.9226,279.8226 C266.0976,279.7296 266.2736,279.6376 266.4166,279.5626 C266.0036,279.9796 265.5526,280.3976 265.1466,280.8556 C264.7156,281.3406 264.7546,281.5726 265.2586,281.9976 C265.3596,282.0836 265.4676,282.1666 265.5856,282.2246 C266.0376,282.4506 266.2106,282.3416 266.2006,281.8516 C266.1996,281.7796 266.1996,281.7086 266.2006,281.6356 C266.2136,280.9706 266.7386,280.1566 267.3356,279.9026 C267.0156,280.2726 266.7296,280.6366 266.6806,281.0496 C266.9876,280.7326 267.2896,280.3396 267.6666,280.0426 C268.6936,279.2326 269.8346,278.6016 271.0536,278.1306 C272.6046,277.5326 274.1236,276.8776 275.5056,275.9396 C275.9126,275.6636 276.3146,275.3776 276.7186,275.0956 C276.7396,275.1256 276.7606,275.1556 276.7816,275.1846 C275.7326,275.9296 274.6826,276.6746 273.6396,277.4156 C276.4356,276.3136 278.5076,274.3256 280.3526,271.9126 C279.7216,272.0196 279.1836,272.0116 278.6996,271.7586 C278.1076,271.4506 277.5076,271.2826 276.8406,271.4526 C277.4466,271.2146 277.8956,271.2156 278.4836,271.4306 C278.6566,271.4946 278.8306,271.5656 279.0116,271.5936 C279.9106,271.7336 280.6996,271.5596 281.2516,270.7566 C281.5716,270.2926 281.8986,269.8336 282.2196,269.3696 C282.3146,269.2326 282.3996,269.0886 282.4886,268.9486 C282.4616,268.9266 282.4346,268.9046 282.4076,268.8826 C282.0496,269.2716 281.6906,269.6616 281.3326,270.0496 C281.3186,270.0376 281.3046,270.0236 281.2906,270.0106 C281.6366,269.4956 281.9826,268.9806 282.3446,268.4406 M283.0556,268.8286 C282.7246,269.9016 282.1136,270.8246 281.4606,271.7136 C280.7876,272.6306 280.0706,273.5156 279.3596,274.4036 C279.2206,274.5776 279.1686,274.7366 279.1766,274.9576 C279.2006,275.7166 279.1706,276.4786 278.9036,277.1986 C278.7846,277.5166 278.6086,277.8386 278.3816,278.0886 C277.9256,278.5906 277.3116,278.5426 276.9106,277.9946 C276.7206,277.7346 276.5916,277.4306 276.4176,277.1176 C276.2426,277.2246 276.0636,277.3356 275.8836,277.4446 C274.8586,278.0706 273.8046,278.6346 272.6406,278.9666 C272.5326,278.9986 272.4296,279.1316 272.3736,279.2436 C272.1686,279.6526 272.0336,280.1066 271.7806,280.4816 C271.2636,281.2496 270.4896,281.5676 269.5776,281.5206 C269.0626,281.4946 268.6426,281.2386 268.3126,280.8416 C268.2416,280.7556 268.1746,280.6686 268.0986,280.5736 C267.4916,280.8586 267.1946,281.3556 267.0316,281.9676 C266.8576,282.6196 266.6736,283.2686 266.4576,283.9066 C266.3746,284.1516 266.2166,284.3846 266.0466,284.5856 C265.7206,284.9686 265.2726,284.9136 265.0596,284.4526 C264.8886,284.0836 264.7686,283.6896 264.6446,283.3006 C264.3806,282.4676 263.8246,281.9266 263.0186,281.6196 C262.7706,281.5246 262.5176,281.4286 262.2896,281.2956 C261.7436,280.9746 261.7246,280.4246 262.2886,280.1506 C262.7896,279.9076 263.3396,279.7596 263.8776,279.6026 C264.5136,279.4176 265.1656,279.2826 265.8016,279.0906 C266.0266,279.0236 266.2226,278.8576 266.4656,278.7166 C266.1406,278.4346 266.2216,278.1456 266.3496,277.8516 C266.5166,277.4666 266.7036,277.0886 266.8376,276.6916 C266.9736,276.2916 267.0036,275.8786 266.8846,275.4546 C266.6356,274.5636 267.1956,274.1706 267.9616,274.0016 C268.5176,273.8776 269.0966,273.8616 269.6656,273.7976 C269.7826,273.7846 269.8986,273.7736 270.0696,273.7556 C269.5876,273.4696 269.6976,273.0266 269.7066,272.6606 C269.7736,269.9296 271.3526,267.9156 273.9956,267.1306 C274.2566,267.0536 274.4966,267.0496 274.7236,267.2226 C274.7966,267.2786 274.8866,267.3096 274.9626,267.3626 C275.6666,267.8556 276.3826,268.1656 277.2906,267.8686 C277.6826,267.7406 278.1586,267.8746 278.5976,267.8796 C279.0376,267.8836 279.4776,267.8856 279.9176,267.8726 C280.7316,267.8476 281.5456,267.8116 282.3916,267.7796 C282.3916,267.7796 282.9146,267.7996 283.0556,268.8286" id="Fill-1" fill="#FFFFFF"></path>
                    <path d="M268.9916,281.0266 C270.0246,281.7406 271.8246,280.7696 271.9596,279.4356 C271.3806,280.7406 270.4976,281.3976 268.9916,281.0266 Z M278.8996,275.0846 C278.7906,275.7046 278.6956,276.4126 278.5296,277.1046 C278.4646,277.3766 278.2756,277.6426 278.0796,277.8536 C277.7976,278.1586 277.4746,278.1216 277.2116,277.7936 C277.0736,277.6206 276.9706,277.4196 276.8516,277.2316 C276.9056,277.6666 277.2276,278.1066 277.5686,278.1616 C277.9876,278.2276 278.2216,277.9436 278.4386,277.6476 C278.4566,277.6226 278.4736,277.5966 278.4876,277.5696 C278.8966,276.7546 278.9366,275.8836 278.8996,275.0846 Z M269.6316,274.0896 C268.9476,274.0816 268.2636,274.0856 267.6226,274.3726 C267.1146,274.6006 266.9876,274.9036 267.1196,275.4336 C267.1756,275.6576 267.2046,275.9006 267.1826,276.1286 C267.1496,276.4876 267.0626,276.8406 266.9976,277.1966 C267.2806,276.6436 267.4236,276.0656 267.2676,275.4486 C267.1286,274.8946 267.2426,274.6516 267.7716,274.4446 C267.8856,274.4006 268.0036,274.3596 268.1236,274.3396 C268.6256,274.2526 269.1286,274.1726 269.6316,274.0896 Z M274.4276,267.4026 C274.1446,267.2466 272.9416,267.7206 272.1096,268.3326 C270.8646,269.2476 270.1966,270.4826 270.0576,272.0126 C270.4966,269.5066 272.0366,268.0496 274.4276,267.4026 Z M262.8816,280.2196 C262.8716,280.1996 262.8616,280.1776 262.8506,280.1576 C262.6926,280.2386 262.5256,280.3056 262.3776,280.4036 C262.0646,280.6086 262.0606,280.8396 262.3766,281.0476 C262.5626,281.1696 262.7716,281.2656 262.9826,281.3396 C263.9966,281.6936 264.6476,282.3786 264.9426,283.4126 C265.0336,283.7356 265.1536,284.0526 265.2916,284.3586 C265.3836,284.5596 265.5696,284.6596 265.7666,284.4906 C266.1456,284.1636 266.2726,283.7046 266.3966,283.2486 C266.2216,283.5596 266.0746,283.8866 265.8926,284.1916 C265.8286,284.2996 265.6796,284.4106 265.5656,284.4156 C265.4876,284.4196 265.3816,284.2526 265.3236,284.1416 C265.2536,284.0086 265.2066,283.8586 265.1726,283.7106 C264.8796,282.4286 264.1476,281.5496 262.8656,281.1616 C262.7106,281.1156 262.5596,281.0386 262.4256,280.9476 C262.2136,280.8036 262.2126,280.6306 262.4216,280.4806 C262.5646,280.3796 262.7276,280.3056 262.8816,280.2196 Z M275.8606,268.8456 C272.6766,271.0996 270.2196,274.0366 268.0586,277.2476 C270.5396,274.3376 272.9966,271.4056 275.8606,268.8456 Z M282.3446,268.4406 C281.6856,268.2546 281.0386,268.2926 280.3886,268.5176 C280.5256,268.9226 280.4096,269.1656 280.0616,269.2576 C279.7586,269.3386 279.5666,269.1856 279.4666,268.7676 C278.4346,268.8596 277.4746,269.1536 276.6236,269.7716 C277.1846,269.1516 277.9346,268.8606 278.6976,268.5886 C277.6156,268.6766 276.6896,269.0966 275.9616,269.8916 C275.7806,270.0896 275.6676,270.3806 275.5996,270.6466 C275.5216,270.9546 275.6686,271.1446 275.9876,271.1876 C276.2626,271.2246 276.5456,271.1976 276.8256,271.1996 C276.8266,271.2246 276.8286,271.2506 276.8306,271.2756 C276.4616,271.2916 276.0786,271.3696 275.7276,271.2966 C275.5256,271.2546 275.3746,270.9686 275.1816,270.7746 C274.1666,272.0526 273.2506,273.4886 271.9716,274.6136 C271.9436,274.5906 271.9156,274.5696 271.8866,274.5476 C272.8046,273.3106 273.7226,272.0736 274.6406,270.8366 C274.2646,271.1726 273.9036,271.5256 273.5576,271.8946 C272.4746,273.0476 271.4346,274.2346 270.6836,275.6436 C270.6056,275.7926 270.4926,275.9386 270.3606,276.0406 C269.0946,277.0166 267.8206,277.9826 266.5496,278.9536 C266.4356,279.0406 266.3296,279.1356 266.2196,279.2286 C266.2316,279.2446 266.2436,279.2596 266.2566,279.2766 C266.6836,279.0346 267.1106,278.7916 267.5376,278.5486 C267.2796,278.7916 266.9916,278.9846 266.7076,279.1816 C266.4306,279.3736 266.1586,279.5686 265.8836,279.7626 C265.8966,279.7826 265.9086,279.8016 265.9226,279.8226 C266.0976,279.7296 266.2736,279.6376 266.4166,279.5626 C266.0036,279.9796 265.5526,280.3976 265.1466,280.8556 C264.7156,281.3406 264.7546,281.5726 265.2586,281.9976 C265.3596,282.0836 265.4676,282.1666 265.5856,282.2246 C266.0376,282.4506 266.2106,282.3416 266.2006,281.8516 C266.1996,281.7796 266.1996,281.7086 266.2006,281.6356 C266.2136,280.9706 266.7386,280.1566 267.3356,279.9026 C267.0156,280.2726 266.7296,280.6366 266.6806,281.0496 C266.9876,280.7326 267.2896,280.3396 267.6666,280.0426 C268.6936,279.2326 269.8346,278.6016 271.0536,278.1306 C272.6046,277.5326 274.1236,276.8776 275.5056,275.9396 C275.9126,275.6636 276.3146,275.3776 276.7186,275.0956 C276.7396,275.1256 276.7606,275.1556 276.7816,275.1846 C275.7326,275.9296 274.6826,276.6746 273.6396,277.4156 C276.4356,276.3136 278.5076,274.3256 280.3526,271.9126 C279.7216,272.0196 279.1836,272.0116 278.6996,271.7586 C278.1076,271.4506 277.5076,271.2826 276.8406,271.4526 C277.4466,271.2146 277.8956,271.2156 278.4836,271.4306 C278.6566,271.4946 278.8306,271.5656 279.0116,271.5936 C279.9106,271.7336 280.6996,271.5596 281.2516,270.7566 C281.5716,270.2926 281.8986,269.8336 282.2196,269.3696 C282.3146,269.2326 282.3996,269.0886 282.4886,268.9486 C282.4616,268.9266 282.4346,268.9046 282.4076,268.8826 C282.0496,269.2716 281.6906,269.6616 281.3326,270.0496 C281.3186,270.0376 281.3046,270.0236 281.2906,270.0106 C281.6366,269.4956 281.9826,268.9806 282.3446,268.4406 Z M283.0556,268.8286 C282.7246,269.9016 282.1136,270.8246 281.4606,271.7136 C280.7876,272.6306 280.0706,273.5156 279.3596,274.4036 C279.2206,274.5776 279.1686,274.7366 279.1766,274.9576 C279.2006,275.7166 279.1706,276.4786 278.9036,277.1986 C278.7846,277.5166 278.6086,277.8386 278.3816,278.0886 C277.9256,278.5906 277.3116,278.5426 276.9106,277.9946 C276.7206,277.7346 276.5916,277.4306 276.4176,277.1176 C276.2426,277.2246 276.0636,277.3356 275.8836,277.4446 C274.8586,278.0706 273.8046,278.6346 272.6406,278.9666 C272.5326,278.9986 272.4296,279.1316 272.3736,279.2436 C272.1686,279.6526 272.0336,280.1066 271.7806,280.4816 C271.2636,281.2496 270.4896,281.5676 269.5776,281.5206 C269.0626,281.4946 268.6426,281.2386 268.3126,280.8416 C268.2416,280.7556 268.1746,280.6686 268.0986,280.5736 C267.4916,280.8586 267.1946,281.3556 267.0316,281.9676 C266.8576,282.6196 266.6736,283.2686 266.4576,283.9066 C266.3746,284.1516 266.2166,284.3846 266.0466,284.5856 C265.7206,284.9686 265.2726,284.9136 265.0596,284.4526 C264.8886,284.0836 264.7686,283.6896 264.6446,283.3006 C264.3806,282.4676 263.8246,281.9266 263.0186,281.6196 C262.7706,281.5246 262.5176,281.4286 262.2896,281.2956 C261.7436,280.9746 261.7246,280.4246 262.2886,280.1506 C262.7896,279.9076 263.3396,279.7596 263.8776,279.6026 C264.5136,279.4176 265.1656,279.2826 265.8016,279.0906 C266.0266,279.0236 266.2226,278.8576 266.4656,278.7166 C266.1406,278.4346 266.2216,278.1456 266.3496,277.8516 C266.5166,277.4666 266.7036,277.0886 266.8376,276.6916 C266.9736,276.2916 267.0036,275.8786 266.8846,275.4546 C266.6356,274.5636 267.1956,274.1706 267.9616,274.0016 C268.5176,273.8776 269.0966,273.8616 269.6656,273.7976 C269.7826,273.7846 269.8986,273.7736 270.0696,273.7556 C269.5876,273.4696 269.6976,273.0266 269.7066,272.6606 C269.7736,269.9296 271.3526,267.9156 273.9956,267.1306 C274.2566,267.0536 274.4966,267.0496 274.7236,267.2226 C274.7966,267.2786 274.8866,267.3096 274.9626,267.3626 C275.6666,267.8556 276.3826,268.1656 277.2906,267.8686 C277.6826,267.7406 278.1586,267.8746 278.5976,267.8796 C279.0376,267.8836 279.4776,267.8856 279.9176,267.8726 C280.7316,267.8476 281.5456,267.8116 282.3916,267.7796 C282.3916,267.7796 282.9146,267.7996 283.0556,268.8286 Z" id="Stroke-3" stroke="#FFFFFF"></path>
                    <path d="M289.0052,280.9846 C289.8362,280.9046 291.5272,280.2296 292.1022,279.7586 C292.1692,279.7046 292.2122,279.5926 292.2252,279.5026 C292.4942,277.6546 292.7602,275.8056 293.0202,273.9566 C293.0762,273.5626 293.1542,273.1656 293.1412,272.7726 C293.1252,272.2976 292.9322,272.2326 292.5432,272.5106 C290.7912,273.7656 289.3942,275.3436 288.2752,277.1746 C287.7682,278.0046 287.4002,278.8866 287.2802,279.8566 C287.2042,280.4726 287.5742,280.9106 288.1932,280.9596 C288.4882,280.9816 288.7862,280.9776 289.0052,280.9846 M282.3912,267.7796 C282.4202,267.3266 282.8432,267.1826 283.2512,267.0476 C284.9852,266.4716 286.7272,265.9176 288.4602,265.3366 C291.2002,264.4176 293.9262,263.4586 296.6732,262.5626 C300.1682,261.4226 303.6702,260.3026 307.1862,259.2306 C308.6712,258.7776 310.1852,258.3876 311.7122,258.1156 C313.3032,257.8316 314.9212,257.6506 316.5352,257.5616 C317.6282,257.5016 318.7562,257.5626 319.8282,257.7766 C321.4322,258.0976 322.2072,259.5246 321.7562,261.1026 C321.3992,262.3526 320.6482,263.3886 319.7752,264.3186 C316.8382,267.4456 313.3502,269.8586 309.6402,271.9586 C304.8562,274.6666 300.0402,277.3176 295.2362,279.9916 C295.0142,280.1156 294.7872,280.2326 294.5582,280.3416 C293.8762,280.6686 293.5752,281.2626 293.4902,281.9616 C293.0632,285.4646 292.6392,288.9696 292.2482,292.4786 C292.0052,294.6696 291.8372,296.8676 291.5972,299.0576 C291.5392,299.5886 291.3502,300.1086 291.1812,300.6206 C291.1322,300.7686 290.9442,300.8716 290.8192,300.9956 C290.7032,300.8676 290.5462,300.7566 290.4772,300.6076 C290.1192,299.8266 289.9932,298.9846 290.0792,298.1466 C290.4602,294.4306 290.8832,290.7196 291.2882,287.0056 C291.4512,285.5046 291.6092,284.0026 291.7622,282.4996 C291.7842,282.2776 291.7642,282.0516 291.7632,281.7726 C291.2532,281.8966 290.7612,282.0096 290.2732,282.1366 C289.5362,282.3286 288.7972,282.4646 288.0282,282.4136 C286.9082,282.3386 286.3422,281.5696 286.2202,280.6476 C286.0332,279.2326 286.3762,277.9146 287.1482,276.7306 C288.0502,275.3486 289.0012,273.9986 290.2642,272.9036 C290.9222,272.3336 291.5722,271.7506 292.1812,271.1296 C292.5562,270.7466 292.8772,270.2996 293.1672,269.8456 C293.4842,269.3496 293.8592,269.1436 294.3582,269.2966 C294.8522,269.4496 295.1132,269.8446 295.0462,270.4196 C294.7732,272.7296 294.4842,275.0376 294.2092,277.3476 C294.1502,277.8396 294.1192,278.3366 294.0652,278.9456 C294.6402,278.6766 295.1472,278.4706 295.6262,278.2136 C299.6752,276.0386 303.7412,273.8896 307.7602,271.6586 C310.9962,269.8626 314.0602,267.7996 316.8242,265.3196 C318.2422,264.0476 319.4342,262.6016 320.2622,260.8746 C320.3072,260.7826 320.3502,260.6896 320.3892,260.5946 C320.6312,259.9996 320.5652,259.8146 319.9762,259.5336 C319.2992,259.2106 318.5682,259.1146 317.8322,259.0746 C316.0072,258.9726 314.1982,259.1666 312.4182,259.5216 C310.4842,259.9086 308.5602,260.3676 306.6582,260.8906 C304.0882,261.5966 301.5242,262.3356 298.9932,263.1686 C295.2202,264.4096 291.4822,265.7556 287.7212,267.0356 C286.5672,267.4266 285.4692,267.9126 284.5332,268.6966 C284.1522,269.0156 283.7682,269.0136 283.3402,268.9076 C283.2512,268.8846 283.1632,268.8576 283.0552,268.8286 C283.0552,268.8286 282.4252,268.4296 282.3912,267.7796" id="Fill-5" fill="#FFFFFF"></path>
                    <path d="M289.0052,280.9846 C289.8362,280.9046 291.5272,280.2296 292.1022,279.7586 C292.1692,279.7046 292.2122,279.5926 292.2252,279.5026 C292.4942,277.6546 292.7602,275.8056 293.0202,273.9566 C293.0762,273.5626 293.1542,273.1656 293.1412,272.7726 C293.1252,272.2976 292.9322,272.2326 292.5432,272.5106 C290.7912,273.7656 289.3942,275.3436 288.2752,277.1746 C287.7682,278.0046 287.4002,278.8866 287.2802,279.8566 C287.2042,280.4726 287.5742,280.9106 288.1932,280.9596 C288.4882,280.9816 288.7862,280.9776 289.0052,280.9846 Z M282.3912,267.7796 C282.4202,267.3266 282.8432,267.1826 283.2512,267.0476 C284.9852,266.4716 286.7272,265.9176 288.4602,265.3366 C291.2002,264.4176 293.9262,263.4586 296.6732,262.5626 C300.1682,261.4226 303.6702,260.3026 307.1862,259.2306 C308.6712,258.7776 310.1852,258.3876 311.7122,258.1156 C313.3032,257.8316 314.9212,257.6506 316.5352,257.5616 C317.6282,257.5016 318.7562,257.5626 319.8282,257.7766 C321.4322,258.0976 322.2072,259.5246 321.7562,261.1026 C321.3992,262.3526 320.6482,263.3886 319.7752,264.3186 C316.8382,267.4456 313.3502,269.8586 309.6402,271.9586 C304.8562,274.6666 300.0402,277.3176 295.2362,279.9916 C295.0142,280.1156 294.7872,280.2326 294.5582,280.3416 C293.8762,280.6686 293.5752,281.2626 293.4902,281.9616 C293.0632,285.4646 292.6392,288.9696 292.2482,292.4786 C292.0052,294.6696 291.8372,296.8676 291.5972,299.0576 C291.5392,299.5886 291.3502,300.1086 291.1812,300.6206 C291.1322,300.7686 290.9442,300.8716 290.8192,300.9956 C290.7032,300.8676 290.5462,300.7566 290.4772,300.6076 C290.1192,299.8266 289.9932,298.9846 290.0792,298.1466 C290.4602,294.4306 290.8832,290.7196 291.2882,287.0056 C291.4512,285.5046 291.6092,284.0026 291.7622,282.4996 C291.7842,282.2776 291.7642,282.0516 291.7632,281.7726 C291.2532,281.8966 290.7612,282.0096 290.2732,282.1366 C289.5362,282.3286 288.7972,282.4646 288.0282,282.4136 C286.9082,282.3386 286.3422,281.5696 286.2202,280.6476 C286.0332,279.2326 286.3762,277.9146 287.1482,276.7306 C288.0502,275.3486 289.0012,273.9986 290.2642,272.9036 C290.9222,272.3336 291.5722,271.7506 292.1812,271.1296 C292.5562,270.7466 292.8772,270.2996 293.1672,269.8456 C293.4842,269.3496 293.8592,269.1436 294.3582,269.2966 C294.8522,269.4496 295.1132,269.8446 295.0462,270.4196 C294.7732,272.7296 294.4842,275.0376 294.2092,277.3476 C294.1502,277.8396 294.1192,278.3366 294.0652,278.9456 C294.6402,278.6766 295.1472,278.4706 295.6262,278.2136 C299.6752,276.0386 303.7412,273.8896 307.7602,271.6586 C310.9962,269.8626 314.0602,267.7996 316.8242,265.3196 C318.2422,264.0476 319.4342,262.6016 320.2622,260.8746 C320.3072,260.7826 320.3502,260.6896 320.3892,260.5946 C320.6312,259.9996 320.5652,259.8146 319.9762,259.5336 C319.2992,259.2106 318.5682,259.1146 317.8322,259.0746 C316.0072,258.9726 314.1982,259.1666 312.4182,259.5216 C310.4842,259.9086 308.5602,260.3676 306.6582,260.8906 C304.0882,261.5966 301.5242,262.3356 298.9932,263.1686 C295.2202,264.4096 291.4822,265.7556 287.7212,267.0356 C286.5672,267.4266 285.4692,267.9126 284.5332,268.6966 C284.1522,269.0156 283.7682,269.0136 283.3402,268.9076 C283.2512,268.8846 283.1632,268.8576 283.0552,268.8286 C283.0552,268.8286 282.4252,268.4296 282.3912,267.7796 Z" id="Stroke-7" stroke="#FFFFFF"></path>
                    <path d="M314.6898,282.2874 C314.8148,282.1004 314.9608,281.8544 315.1328,281.6314 C315.4578,281.2074 316.3948,280.9974 316.8368,281.2874 C317.0178,281.4064 317.2078,281.6644 317.2148,281.8654 C317.2318,282.3064 317.1868,282.7654 317.0718,283.1914 C316.8938,283.8504 316.6318,284.4864 316.4168,285.1374 C316.3598,285.3084 316.3438,285.4954 316.3088,285.6754 C316.3448,285.6894 316.3798,285.7034 316.4158,285.7184 C316.5108,285.5824 316.6288,285.4574 316.6978,285.3084 C316.9508,284.7624 317.1998,284.2124 317.4228,283.6524 C317.5078,283.4404 317.6168,283.3474 317.8318,283.4124 C318.0728,283.4854 318.0388,283.6644 317.9608,283.8344 C317.6168,284.5864 317.2878,285.3464 316.9078,286.0794 C316.7768,286.3314 316.5398,286.5514 316.3058,286.7244 C315.6168,287.2334 314.7568,286.8784 314.7028,286.0254 C314.6678,285.4664 314.7568,284.8854 314.8778,284.3334 C315.0008,283.7784 315.2338,283.2484 315.4158,282.7054 C315.4498,282.6034 315.4708,282.4974 315.4738,282.3844 C315.0228,283.0164 314.7058,283.7164 314.5288,284.4604 C314.3378,285.2634 314.2088,286.0814 314.0888,286.8984 C314.0458,287.1864 313.9818,287.3264 313.6588,287.3484 C313.1558,287.3824 312.7408,287.1684 312.3488,286.9274 C312.1978,286.8344 312.0888,286.5774 312.0688,286.3844 C311.9758,285.4874 312.2238,284.6414 312.5358,283.8134 C312.8308,283.0324 313.1138,282.2554 312.8128,281.4034 C312.7978,281.3624 312.9258,281.2124 312.9638,281.2214 C313.4338,281.3224 313.9248,281.3884 314.3528,281.5874 C314.5348,281.6724 314.5828,282.0474 314.6898,282.2874" id="Fill-9" fill="#FFFFFF"></path>
                    <path d="M314.6898,282.2874 C314.8148,282.1004 314.9608,281.8544 315.1328,281.6314 C315.4578,281.2074 316.3948,280.9974 316.8368,281.2874 C317.0178,281.4064 317.2078,281.6644 317.2148,281.8654 C317.2318,282.3064 317.1868,282.7654 317.0718,283.1914 C316.8938,283.8504 316.6318,284.4864 316.4168,285.1374 C316.3598,285.3084 316.3438,285.4954 316.3088,285.6754 C316.3448,285.6894 316.3798,285.7034 316.4158,285.7184 C316.5108,285.5824 316.6288,285.4574 316.6978,285.3084 C316.9508,284.7624 317.1998,284.2124 317.4228,283.6524 C317.5078,283.4404 317.6168,283.3474 317.8318,283.4124 C318.0728,283.4854 318.0388,283.6644 317.9608,283.8344 C317.6168,284.5864 317.2878,285.3464 316.9078,286.0794 C316.7768,286.3314 316.5398,286.5514 316.3058,286.7244 C315.6168,287.2334 314.7568,286.8784 314.7028,286.0254 C314.6678,285.4664 314.7568,284.8854 314.8778,284.3334 C315.0008,283.7784 315.2338,283.2484 315.4158,282.7054 C315.4498,282.6034 315.4708,282.4974 315.4738,282.3844 C315.0228,283.0164 314.7058,283.7164 314.5288,284.4604 C314.3378,285.2634 314.2088,286.0814 314.0888,286.8984 C314.0458,287.1864 313.9818,287.3264 313.6588,287.3484 C313.1558,287.3824 312.7408,287.1684 312.3488,286.9274 C312.1978,286.8344 312.0888,286.5774 312.0688,286.3844 C311.9758,285.4874 312.2238,284.6414 312.5358,283.8134 C312.8308,283.0324 313.1138,282.2554 312.8128,281.4034 C312.7978,281.3624 312.9258,281.2124 312.9638,281.2214 C313.4338,281.3224 313.9248,281.3884 314.3528,281.5874 C314.5348,281.6724 314.5828,282.0474 314.6898,282.2874 Z" id="Stroke-11" stroke="#FFFFFF"></path>
                    <path d="M328.1591,281.3069 C328.1141,281.2429 328.0631,281.0909 327.9781,281.0689 C327.8741,281.0409 327.7101,281.0869 327.6271,281.1629 C327.2531,281.5059 327.1261,281.9699 327.0781,282.4539 C327.0701,282.5379 327.1621,282.6829 327.2391,282.7099 C327.3341,282.7439 327.4991,282.7259 327.5721,282.6609 C327.9561,282.3189 328.1381,281.8739 328.1591,281.3069 M326.9551,283.1039 C327.0091,283.6319 327.0161,284.1269 327.1191,284.6009 C327.2221,285.0789 327.5211,285.1679 327.9491,284.9219 C328.5481,284.5779 328.9531,284.0499 329.2771,283.4619 C329.4891,283.0779 329.6321,282.6579 329.8351,282.2679 C329.9051,282.1349 330.0471,282.0009 330.1861,281.9519 C330.3831,281.8819 330.5091,281.9969 330.4451,282.2189 C330.0581,283.5559 329.5161,284.8199 328.4151,285.7279 C327.2801,286.6639 326.2861,286.4719 325.6391,285.1749 C324.8921,283.6809 325.1411,282.2119 325.9161,280.7989 C326.2201,280.2449 326.6501,279.8189 327.2711,279.6149 C328.1651,279.3209 329.2401,279.7949 329.5151,280.6129 C329.5411,280.6889 329.5711,280.7739 329.5631,280.8509 C329.4711,281.8109 329.1291,282.6429 328.2801,283.1809 C327.7641,283.5089 327.5291,283.4859 326.9551,283.1039" id="Fill-13" fill="#FFFFFF"></path>
                    <path d="M328.1591,281.3069 C328.1141,281.2429 328.0631,281.0909 327.9781,281.0689 C327.8741,281.0409 327.7101,281.0869 327.6271,281.1629 C327.2531,281.5059 327.1261,281.9699 327.0781,282.4539 C327.0701,282.5379 327.1621,282.6829 327.2391,282.7099 C327.3341,282.7439 327.4991,282.7259 327.5721,282.6609 C327.9561,282.3189 328.1381,281.8739 328.1591,281.3069 Z M326.9551,283.1039 C327.0091,283.6319 327.0161,284.1269 327.1191,284.6009 C327.2221,285.0789 327.5211,285.1679 327.9491,284.9219 C328.5481,284.5779 328.9531,284.0499 329.2771,283.4619 C329.4891,283.0779 329.6321,282.6579 329.8351,282.2679 C329.9051,282.1349 330.0471,282.0009 330.1861,281.9519 C330.3831,281.8819 330.5091,281.9969 330.4451,282.2189 C330.0581,283.5559 329.5161,284.8199 328.4151,285.7279 C327.2801,286.6639 326.2861,286.4719 325.6391,285.1749 C324.8921,283.6809 325.1411,282.2119 325.9161,280.7989 C326.2201,280.2449 326.6501,279.8189 327.2711,279.6149 C328.1651,279.3209 329.2401,279.7949 329.5151,280.6129 C329.5411,280.6889 329.5711,280.7739 329.5631,280.8509 C329.4711,281.8109 329.1291,282.6429 328.2801,283.1809 C327.7641,283.5089 327.5291,283.4859 326.9551,283.1039 Z" id="Stroke-15" stroke="#FFFFFF"></path>
                    <path d="M334.2719,288.0725 C336.8169,287.7095 339.3629,287.3455 341.9079,286.9825 C341.9149,287.0105 341.9219,287.0365 341.9289,287.0635 C341.8349,287.0935 341.7389,287.1155 341.6489,287.1535 C340.7639,287.5225 339.8099,287.5395 338.8839,287.6965 C337.0959,288.0005 335.3009,288.2665 333.5199,288.6035 C331.6389,288.9605 329.7619,289.3445 327.8969,289.7795 C325.1369,290.4235 322.3899,291.1225 319.6379,291.8005 C319.5399,291.8245 319.4469,291.8695 319.3399,291.9095 C319.2719,291.7175 319.2079,291.5255 319.1339,291.3375 C319.0679,291.1675 318.9919,291.0005 318.9159,290.8245 C326.4729,288.7615 334.1469,287.7405 341.8119,286.6745 C340.5529,286.8805 339.2929,287.0755 338.0369,287.2935 C336.7689,287.5135 335.5059,287.7575 334.2419,287.9895 C334.2509,288.0175 334.2619,288.0455 334.2719,288.0725" id="Fill-17" fill="#FFFFFF"></path>
                    <path d="M334.2719,288.0725 C336.8169,287.7095 339.3629,287.3455 341.9079,286.9825 C341.9149,287.0105 341.9219,287.0365 341.9289,287.0635 C341.8349,287.0935 341.7389,287.1155 341.6489,287.1535 C340.7639,287.5225 339.8099,287.5395 338.8839,287.6965 C337.0959,288.0005 335.3009,288.2665 333.5199,288.6035 C331.6389,288.9605 329.7619,289.3445 327.8969,289.7795 C325.1369,290.4235 322.3899,291.1225 319.6379,291.8005 C319.5399,291.8245 319.4469,291.8695 319.3399,291.9095 C319.2719,291.7175 319.2079,291.5255 319.1339,291.3375 C319.0679,291.1675 318.9919,291.0005 318.9159,290.8245 C326.4729,288.7615 334.1469,287.7405 341.8119,286.6745 C340.5529,286.8805 339.2929,287.0755 338.0369,287.2935 C336.7689,287.5135 335.5059,287.7575 334.2419,287.9895 C334.2509,288.0175 334.2619,288.0455 334.2719,288.0725 Z" id="Stroke-19" stroke="#FFFFFF"></path>
                    <path d="M321.5804,283.55 C321.6274,283.346 321.6894,283.173 321.7054,282.995 C321.7404,282.613 321.7814,282.226 321.7544,281.846 C321.7444,281.702 321.5654,281.481 321.4384,281.461 C321.3124,281.441 321.1114,281.602 321.0164,281.735 C320.7044,282.171 320.6044,282.686 320.5554,283.21 C320.4964,283.84 320.5364,284.463 320.7934,285.047 C320.8644,285.208 321.0754,285.457 321.1574,285.434 C321.3344,285.384 321.4914,285.201 321.6154,285.041 C321.6884,284.946 321.7064,284.79 321.7094,284.66 C321.7154,284.39 321.8734,284.357 322.0804,284.4 C322.5214,284.49 322.7974,284.825 323.0394,285.151 C323.1364,285.28 323.0934,285.576 323.0204,285.76 C322.6674,286.65 321.6074,287.083 320.5644,286.79 C319.7624,286.565 319.2554,286.043 319.0834,285.231 C318.8034,283.908 318.8974,282.623 319.5854,281.428 C320.0984,280.538 321.0284,280.057 321.9104,280.19 C322.7064,280.311 323.4544,281.071 323.5454,281.854 C323.6014,282.325 323.4264,282.606 322.9904,282.795 C322.8574,282.853 322.7284,282.945 322.6304,283.051 C322.3604,283.342 322.0024,283.535 321.5804,283.55" id="Fill-21" fill="#FFFFFF"></path>
                    <path d="M321.5804,283.55 C321.6274,283.346 321.6894,283.173 321.7054,282.995 C321.7404,282.613 321.7814,282.226 321.7544,281.846 C321.7444,281.702 321.5654,281.481 321.4384,281.461 C321.3124,281.441 321.1114,281.602 321.0164,281.735 C320.7044,282.171 320.6044,282.686 320.5554,283.21 C320.4964,283.84 320.5364,284.463 320.7934,285.047 C320.8644,285.208 321.0754,285.457 321.1574,285.434 C321.3344,285.384 321.4914,285.201 321.6154,285.041 C321.6884,284.946 321.7064,284.79 321.7094,284.66 C321.7154,284.39 321.8734,284.357 322.0804,284.4 C322.5214,284.49 322.7974,284.825 323.0394,285.151 C323.1364,285.28 323.0934,285.576 323.0204,285.76 C322.6674,286.65 321.6074,287.083 320.5644,286.79 C319.7624,286.565 319.2554,286.043 319.0834,285.231 C318.8034,283.908 318.8974,282.623 319.5854,281.428 C320.0984,280.538 321.0284,280.057 321.9104,280.19 C322.7064,280.311 323.4544,281.071 323.5454,281.854 C323.6014,282.325 323.4264,282.606 322.9904,282.795 C322.8574,282.853 322.7284,282.945 322.6304,283.051 C322.3604,283.342 322.0024,283.535 321.5804,283.55 Z" id="Stroke-23" stroke="#FFFFFF"></path>
                    <path d="M332.0746,281.0129 C331.9586,281.4079 331.8746,281.7309 331.7676,282.0449 C331.6636,282.3499 331.5356,282.6459 331.4156,282.9519 C331.1426,282.8569 331.0096,282.7339 331.0726,282.4789 C331.3606,281.3029 331.6696,280.1389 332.4886,279.1879 C332.7116,278.9289 332.9746,278.6399 333.2896,278.6959 C333.6646,278.7609 334.0186,278.9939 334.3546,279.2009 C334.5036,279.2919 334.4646,279.4419 334.2766,279.5499 C333.6576,279.9069 333.4336,280.4869 333.6936,281.1439 C333.8766,281.6069 334.1656,282.0279 334.3496,282.4909 C334.5186,282.9119 334.7006,283.3609 334.7176,283.8039 C334.7626,285.0009 333.7576,285.8169 332.5856,285.5889 C331.9086,285.4579 331.3376,285.1219 330.9136,284.5779 C330.7896,284.4199 330.7116,284.1959 330.6926,283.9939 C330.6696,283.7489 330.8746,283.6439 331.0846,283.7799 C331.3246,283.9339 331.5326,284.1369 331.7706,284.2949 C332.2166,284.5909 332.5056,284.4919 332.6896,283.9829 C332.9286,283.3199 332.7316,282.6899 332.5076,282.0699 C332.3896,281.7439 332.2456,281.4279 332.0746,281.0129" id="Fill-25" fill="#FFFFFF"></path>
                    <path d="M332.0746,281.0129 C331.9586,281.4079 331.8746,281.7309 331.7676,282.0449 C331.6636,282.3499 331.5356,282.6459 331.4156,282.9519 C331.1426,282.8569 331.0096,282.7339 331.0726,282.4789 C331.3606,281.3029 331.6696,280.1389 332.4886,279.1879 C332.7116,278.9289 332.9746,278.6399 333.2896,278.6959 C333.6646,278.7609 334.0186,278.9939 334.3546,279.2009 C334.5036,279.2919 334.4646,279.4419 334.2766,279.5499 C333.6576,279.9069 333.4336,280.4869 333.6936,281.1439 C333.8766,281.6069 334.1656,282.0279 334.3496,282.4909 C334.5186,282.9119 334.7006,283.3609 334.7176,283.8039 C334.7626,285.0009 333.7576,285.8169 332.5856,285.5889 C331.9086,285.4579 331.3376,285.1219 330.9136,284.5779 C330.7896,284.4199 330.7116,284.1959 330.6926,283.9939 C330.6696,283.7489 330.8746,283.6439 331.0846,283.7799 C331.3246,283.9339 331.5326,284.1369 331.7706,284.2949 C332.2166,284.5909 332.5056,284.4919 332.6896,283.9829 C332.9286,283.3199 332.7316,282.6899 332.5076,282.0699 C332.3896,281.7439 332.2456,281.4279 332.0746,281.0129 Z" id="Stroke-27" stroke="#FFFFFF"></path>
                    <path d="M337.6019,280.4827 C337.5399,280.6557 337.4899,280.7847 337.4459,280.9157 C337.3139,281.3127 337.1939,281.7137 337.0469,282.1047 C337.0099,282.2037 336.8859,282.2697 336.8029,282.3507 C336.7279,282.2197 336.5729,282.0767 336.5909,281.9617 C336.6519,281.5897 336.7839,281.2317 336.8729,280.8657 C337.0789,280.0237 337.4609,279.2717 338.0249,278.6197 C338.1909,278.4267 338.4249,278.2757 338.6569,278.1647 C338.7839,278.1027 338.9789,278.1297 339.1249,278.1747 C339.3159,278.2317 339.4919,278.3407 339.6689,278.4367 C339.9879,278.6087 340.0039,278.8307 339.7169,279.0197 C339.1709,279.3817 338.9589,279.9557 339.2059,280.5727 C339.3899,281.0357 339.6759,281.4577 339.8599,281.9197 C340.0299,282.3517 340.2159,282.8097 340.2319,283.2617 C340.2739,284.4327 339.2969,285.2317 338.1439,285.0347 C337.4629,284.9177 336.8939,284.5847 336.4549,284.0517 C336.3409,283.9157 336.2529,283.7397 336.2119,283.5677 C336.1869,283.4597 336.2339,283.2757 336.3149,283.2167 C336.3859,283.1657 336.5709,283.2047 336.6669,283.2647 C336.8819,283.3997 337.0649,283.5867 337.2769,283.7277 C337.7329,284.0327 338.0309,283.9287 338.2119,283.4047 C338.4399,282.7517 338.2479,282.1307 338.0279,281.5207 C337.9089,281.1877 337.7599,280.8647 337.6019,280.4827" id="Fill-29" fill="#FFFFFF"></path>
                    <path d="M337.6019,280.4827 C337.5399,280.6557 337.4899,280.7847 337.4459,280.9157 C337.3139,281.3127 337.1939,281.7137 337.0469,282.1047 C337.0099,282.2037 336.8859,282.2697 336.8029,282.3507 C336.7279,282.2197 336.5729,282.0767 336.5909,281.9617 C336.6519,281.5897 336.7839,281.2317 336.8729,280.8657 C337.0789,280.0237 337.4609,279.2717 338.0249,278.6197 C338.1909,278.4267 338.4249,278.2757 338.6569,278.1647 C338.7839,278.1027 338.9789,278.1297 339.1249,278.1747 C339.3159,278.2317 339.4919,278.3407 339.6689,278.4367 C339.9879,278.6087 340.0039,278.8307 339.7169,279.0197 C339.1709,279.3817 338.9589,279.9557 339.2059,280.5727 C339.3899,281.0357 339.6759,281.4577 339.8599,281.9197 C340.0299,282.3517 340.2159,282.8097 340.2319,283.2617 C340.2739,284.4327 339.2969,285.2317 338.1439,285.0347 C337.4629,284.9177 336.8939,284.5847 336.4549,284.0517 C336.3409,283.9157 336.2529,283.7397 336.2119,283.5677 C336.1869,283.4597 336.2339,283.2757 336.3149,283.2167 C336.3859,283.1657 336.5709,283.2047 336.6669,283.2647 C336.8819,283.3997 337.0649,283.5867 337.2769,283.7277 C337.7329,284.0327 338.0309,283.9287 338.2119,283.4047 C338.4399,282.7517 338.2479,282.1307 338.0279,281.5207 C337.9089,281.1877 337.7599,280.8647 337.6019,280.4827 Z" id="Stroke-31" stroke="#FFFFFF"></path>
                    <path d="M306.5565,284.3733 C306.1475,284.6253 305.6615,284.8293 305.1405,284.7743 C304.9405,284.7533 304.7585,284.4773 304.5905,284.2983 C304.5025,284.2053 304.4625,284.0673 304.3865,283.9213 C304.3225,283.9723 304.2595,284.0133 304.2055,284.0653 C303.3145,284.9283 302.9265,286.0193 302.8285,287.2203 C302.8045,287.5323 302.9015,287.8673 302.9965,288.1743 C303.0685,288.4023 303.0125,288.4863 302.8005,288.4963 C302.6185,288.5053 302.4285,288.5203 302.2535,288.4813 C301.9895,288.4233 301.7295,288.3333 301.4785,288.2303 C301.2085,288.1203 301.1325,287.8653 301.1015,287.6043 C301.0045,286.7813 301.2115,286.0023 301.4665,285.2313 C301.5985,284.8343 301.7605,284.4453 301.8695,284.0433 C302.0015,283.5583 302.0835,283.0613 301.8925,282.5653 C301.8725,282.5133 301.8865,282.4473 301.8845,282.3973 C301.9145,282.3753 301.9325,282.3513 301.9455,282.3523 C302.4195,282.4343 302.9105,282.4673 303.3575,282.6263 C303.5475,282.6933 303.6445,283.0243 303.7965,283.2553 C303.9085,283.1283 304.0735,282.9443 304.2375,282.7593 C304.8215,282.0983 305.1145,282.1243 305.5775,282.8853 C305.6945,283.0763 305.7875,283.2833 305.9115,283.4703 C306.1055,283.7603 306.3165,284.0393 306.5565,284.3733" id="Fill-33" fill="#FFFFFF"></path>
                    <path d="M306.5565,284.3733 C306.1475,284.6253 305.6615,284.8293 305.1405,284.7743 C304.9405,284.7533 304.7585,284.4773 304.5905,284.2983 C304.5025,284.2053 304.4625,284.0673 304.3865,283.9213 C304.3225,283.9723 304.2595,284.0133 304.2055,284.0653 C303.3145,284.9283 302.9265,286.0193 302.8285,287.2203 C302.8045,287.5323 302.9015,287.8673 302.9965,288.1743 C303.0685,288.4023 303.0125,288.4863 302.8005,288.4963 C302.6185,288.5053 302.4285,288.5203 302.2535,288.4813 C301.9895,288.4233 301.7295,288.3333 301.4785,288.2303 C301.2085,288.1203 301.1325,287.8653 301.1015,287.6043 C301.0045,286.7813 301.2115,286.0023 301.4665,285.2313 C301.5985,284.8343 301.7605,284.4453 301.8695,284.0433 C302.0015,283.5583 302.0835,283.0613 301.8925,282.5653 C301.8725,282.5133 301.8865,282.4473 301.8845,282.3973 C301.9145,282.3753 301.9325,282.3513 301.9455,282.3523 C302.4195,282.4343 302.9105,282.4673 303.3575,282.6263 C303.5475,282.6933 303.6445,283.0243 303.7965,283.2553 C303.9085,283.1283 304.0735,282.9443 304.2375,282.7593 C304.8215,282.0983 305.1145,282.1243 305.5775,282.8853 C305.6945,283.0763 305.7875,283.2833 305.9115,283.4703 C306.1055,283.7603 306.3165,284.0393 306.5565,284.3733 Z" id="Stroke-35" stroke="#FFFFFF"></path>
                    <path d="M310.0155,286.592 C310.1055,286.461 310.2225,286.342 310.2825,286.199 C310.5605,285.541 310.8135,284.872 311.0985,284.216 C311.1545,284.086 311.2905,283.949 311.4215,283.903 C311.6075,283.836 311.7645,283.938 311.6875,284.162 C311.3825,285.06 311.0815,285.96 310.7335,286.842 C310.6305,287.106 310.4045,287.335 310.1925,287.537 C309.8365,287.88 309.4025,287.932 308.9365,287.773 C308.4725,287.613 308.2715,287.255 308.1995,286.804 C308.0335,285.768 308.2775,284.774 308.4975,283.774 C308.5895,283.359 308.6445,282.933 308.6865,282.509 C308.7125,282.238 308.6665,281.959 308.6895,281.687 C308.6975,281.603 308.8295,281.46 308.9005,281.463 C309.1305,281.471 309.3735,281.496 309.5855,281.581 C310.2325,281.845 310.5275,282.318 310.4195,283.012 C310.2825,283.898 310.0695,284.773 309.9135,285.656 C309.8615,285.947 309.8845,286.251 309.8725,286.55 C309.9205,286.564 309.9685,286.577 310.0155,286.592" id="Fill-37" fill="#FFFFFF"></path>
                    <path d="M310.0155,286.592 C310.1055,286.461 310.2225,286.342 310.2825,286.199 C310.5605,285.541 310.8135,284.872 311.0985,284.216 C311.1545,284.086 311.2905,283.949 311.4215,283.903 C311.6075,283.836 311.7645,283.938 311.6875,284.162 C311.3825,285.06 311.0815,285.96 310.7335,286.842 C310.6305,287.106 310.4045,287.335 310.1925,287.537 C309.8365,287.88 309.4025,287.932 308.9365,287.773 C308.4725,287.613 308.2715,287.255 308.1995,286.804 C308.0335,285.768 308.2775,284.774 308.4975,283.774 C308.5895,283.359 308.6445,282.933 308.6865,282.509 C308.7125,282.238 308.6665,281.959 308.6895,281.687 C308.6975,281.603 308.8295,281.46 308.9005,281.463 C309.1305,281.471 309.3735,281.496 309.5855,281.581 C310.2325,281.845 310.5275,282.318 310.4195,283.012 C310.2825,283.898 310.0695,284.773 309.9135,285.656 C309.8615,285.947 309.8845,286.251 309.8725,286.55 C309.9205,286.564 309.9685,286.577 310.0155,286.592 Z" id="Stroke-39" stroke="#FFFFFF"></path>
                    <path d="M339.6722,286.2024 C339.0432,286.3194 338.4172,286.4604 337.7832,286.5504 C335.4592,286.8794 333.1252,287.1454 330.8092,287.5244 C328.5972,287.8874 326.4012,288.3524 324.2012,288.7904 C323.0582,289.0174 321.9222,289.2814 320.7862,289.5274 C320.7002,289.3344 320.6122,289.1404 320.5282,288.9454 C320.4592,288.7824 320.4482,288.6604 320.6822,288.6164 C321.8192,288.4034 322.9622,288.2094 324.0892,287.9534 C326.2922,287.4534 328.5302,287.1914 330.7632,286.8894 C331.8492,286.7444 332.9382,286.6234 334.0262,286.4944 C335.3082,286.3424 336.5912,286.1914 337.8732,286.0414 C337.9932,286.0274 338.1132,286.0164 338.2352,286.0304 C336.5062,286.2794 334.7772,286.5274 333.0482,286.7764 C333.0512,286.7974 333.0542,286.8164 333.0572,286.8374 C335.2592,286.6134 337.4622,286.3894 339.6642,286.1664 C339.6672,286.1784 339.6702,286.1904 339.6722,286.2024" id="Fill-41" fill="#FFFFFF"></path>
                    <path d="M339.6722,286.2024 C339.0432,286.3194 338.4172,286.4604 337.7832,286.5504 C335.4592,286.8794 333.1252,287.1454 330.8092,287.5244 C328.5972,287.8874 326.4012,288.3524 324.2012,288.7904 C323.0582,289.0174 321.9222,289.2814 320.7862,289.5274 C320.7002,289.3344 320.6122,289.1404 320.5282,288.9454 C320.4592,288.7824 320.4482,288.6604 320.6822,288.6164 C321.8192,288.4034 322.9622,288.2094 324.0892,287.9534 C326.2922,287.4534 328.5302,287.1914 330.7632,286.8894 C331.8492,286.7444 332.9382,286.6234 334.0262,286.4944 C335.3082,286.3424 336.5912,286.1914 337.8732,286.0414 C337.9932,286.0274 338.1132,286.0164 338.2352,286.0304 C336.5062,286.2794 334.7772,286.5274 333.0482,286.7764 C333.0512,286.7974 333.0542,286.8164 333.0572,286.8374 C335.2592,286.6134 337.4622,286.3894 339.6642,286.1664 C339.6672,286.1784 339.6702,286.1904 339.6722,286.2024 Z" id="Stroke-43" stroke="#FFFFFF"></path>
                    <path d="M310.5917,280.3997 C310.5507,280.7307 310.5197,281.0037 310.4837,281.2747 C310.4567,281.4807 310.3157,281.5787 310.1387,281.5037 C309.7037,281.3167 309.2787,281.1047 308.8617,280.8787 C308.7877,280.8387 308.7467,280.6857 308.7397,280.5827 C308.7167,280.2367 308.7137,279.8887 308.7067,279.5427 C308.7027,279.3487 308.7987,279.2787 308.9947,279.2907 C309.4957,279.3177 309.9217,279.5467 310.3037,279.8277 C310.4657,279.9457 310.5087,280.2247 310.5917,280.3997" id="Fill-45" fill="#FFFFFF"></path>
                    <path d="M310.5917,280.3997 C310.5507,280.7307 310.5197,281.0037 310.4837,281.2747 C310.4567,281.4807 310.3157,281.5787 310.1387,281.5037 C309.7037,281.3167 309.2787,281.1047 308.8617,280.8787 C308.7877,280.8387 308.7467,280.6857 308.7397,280.5827 C308.7167,280.2367 308.7137,279.8887 308.7067,279.5427 C308.7027,279.3487 308.7987,279.2787 308.9947,279.2907 C309.4957,279.3177 309.9217,279.5467 310.3037,279.8277 C310.4657,279.9457 310.5087,280.2247 310.5917,280.3997 Z" id="Stroke-47" stroke="#FFFFFF"></path>
                    <path d="M99.8788,216.3518 C101.6138,216.3578 102.8578,216.4098 103.8518,216.4808" id="Stroke-49" stroke="#FFFFFF" stroke-linecap="round" stroke-linejoin="round"></path>
                    <path d="M619.6635,230.9182 C635.5065,238.2302 629.0515,241.6562 591.3515,243.4812 C544.8505,245.7312 149.6015,237.4802 11.6015,229.2312 C9.8765,229.1272 -11.6485,226.2312 13.1015,222.4802 C33.8515,219.3362 76.2155,216.7202 95.5545,216.3982" id="Stroke-51" stroke="#FFFFFF" stroke-linecap="round" stroke-linejoin="round"></path>
                    <path d="M47.6014,225.4807 C321.7274,233.5777 503.6184,228.3997 572.6944,225.7617" id="Stroke-53" stroke="#FFFFFF" stroke-linecap="round" stroke-linejoin="round"></path>
                    <path d="M627.2094,238.1926 C627.2094,238.1926 589.1014,314.7306 538.8514,361.2306 C538.8514,361.2306 459.3684,361.9196 358.8684,349.1696" id="Stroke-55" stroke="#FFFFFF" stroke-linecap="round" stroke-linejoin="round"></path>
                    <path d="M89.8646,307.3577 C68.9006,302.7357 46.5816,297.6997 22.8516,292.2307 C22.8516,292.2307 20.6016,277.2307 20.6016,273.1057" id="Stroke-57" stroke="#FFFFFF" stroke-linecap="round" stroke-linejoin="round"></path>
                    <path d="M314.6024,348.4055 C286.9294,345.7255 247.7654,339.5905 195.1074,329.3525" id="Stroke-59" stroke="#FFFFFF" stroke-linecap="round" stroke-linejoin="round"></path>
                    <path d="M562.851,318.4807 C562.851,318.4807 418.066,343.9657 360.157,349.2797" id="Stroke-61" stroke="#FFFFFF" stroke-linecap="round" stroke-linejoin="round"></path>
                    <path d="M0.3519,226.2307 C0.3519,226.2307 5.2269,265.9807 9.3519,269.3557 C13.4769,272.7307 230.6019,322.9807 331.8509,322.2307" id="Stroke-63" stroke="#FFFFFF" stroke-linecap="round" stroke-linejoin="round"></path>
                    <path d="M103.8514,222.2932 C103.8514,222.2932 103.4764,198.8562 112.1014,171.4802" id="Stroke-65" stroke="#FFFFFF" stroke-linecap="round" stroke-linejoin="round"></path>
                    <path d="M80.6014,110.7312 C80.6014,110.7312 72.7264,118.9812 68.2264,130.9812 C68.2264,130.9812 107.9764,139.9812 112.1014,171.4812 C112.1014,171.4812 134.9764,143.3562 170.9764,144.1062 C170.9764,144.1062 362.6014,144.4812 395.6014,144.1062 C395.6014,144.1062 370.8514,108.1062 328.1014,106.9812 C285.3514,105.8562 117.3514,107.3562 80.6014,110.7312 Z" id="Stroke-67" stroke="#FFFFFF" stroke-linecap="round" stroke-linejoin="round"></path>
                    <path d="M223.4764,150.8562 L190.1954,149.9192 C190.1954,149.9192 168.9134,146.3562 144.3514,185.7312 L157.8514,212.3562 C157.8514,212.3562 202.8514,223.2312 257.9764,225.8562 L223.4764,150.8562 Z" id="Stroke-69" stroke="#FFFFFF" stroke-linecap="round" stroke-linejoin="round"></path>
                    <path d="M423.351,191.3557 L396.726,150.8557 C396.726,150.8557 268.101,147.1057 239.601,152.7307 L262.476,194.3557 C262.476,194.3557 367.905,193.3917 413.602,191.7607" id="Stroke-71" stroke="#FFFFFF" stroke-linecap="round" stroke-linejoin="round"></path>
                    <path d="M423.351,191.3557 L426.081,194.2167 C429.454,197.7487 433.685,200.3437 438.362,201.7467 L498.918,219.9137 C503.774,221.3707 508.781,222.2657 513.84,222.5817 L566.879,225.8967" id="Stroke-73" stroke="#FFFFFF" stroke-linecap="round" stroke-linejoin="round"></path>
                    <path d="M396.726,150.8562 L392.226,144.1062" id="Stroke-75" stroke="#FFFFFF" stroke-linecap="round" stroke-linejoin="round"></path>
                    <path d="M186.3514,106.4812 L170.3514,60.4812 C170.3514,60.4812 163.3514,45.4812 180.8514,46.4812 C198.3514,47.4812 275.3514,48.4812 275.3514,48.4812 C275.3514,48.4812 291.3514,45.9812 297.8514,61.9812 C304.3514,77.9812 308.8514,88.4812 308.8514,88.4812" id="Stroke-77" stroke="#FFFFFF" stroke-linecap="round" stroke-linejoin="round"></path>
                    <path d="M328.101,106.9812 L322.851,94.4812 C322.851,94.4812 249.351,90.9812 183.351,96.4812" id="Stroke-79" stroke="#FFFFFF" stroke-linecap="round" stroke-linejoin="round"></path>
                    <path d="M146.3514,107.4812 L151.8514,60.9812 C151.8514,60.9812 153.8514,41.9812 171.8514,41.9812 C189.8514,41.9812 270.8514,43.9812 270.8514,43.9812 C270.8514,43.9812 292.3514,40.9812 299.3514,54.9812 C306.3514,68.9812 319.2264,94.2002 319.2264,94.2002" id="Stroke-81" stroke="#FFFFFF" stroke-linecap="round" stroke-linejoin="round"></path>
                    <path d="M165.1014,46.9812 C163.5804,49.2062 162.7264,52.7932 164.7894,58.9812 C168.8934,71.2952 180.1014,106.9812 180.1014,106.9812" id="Stroke-83" stroke="#FFFFFF" stroke-linecap="round" stroke-linejoin="round"></path>
                    <path d="M268.851,48.4812 C268.851,48.4812 281.851,49.9812 285.351,62.9812 C288.851,75.9812 292.851,93.4812 292.851,93.4812" id="Stroke-85" stroke="#FFFFFF" stroke-linecap="round" stroke-linejoin="round"></path>
                    <path d="M170.9764,144.1062 L106.8514,144.4812" id="Stroke-87" stroke="#FFFFFF" stroke-linecap="round" stroke-linejoin="round"></path>
                    <path d="M426.726,204.7307 C426.726,204.7307 414.601,206.9187 381.038,208.0437" id="Stroke-89" stroke="#FFFFFF" stroke-linecap="round" stroke-linejoin="round"></path>
                    <path d="M88.4764,109.6062 C88.4764,109.6062 88.1014,58.2312 89.2264,36.1062 C90.3514,13.9812 113.6014,15.4812 113.6014,15.4812 L116.6014,22.0432" id="Stroke-91" stroke="#FFFFFF" stroke-linecap="round" stroke-linejoin="round"></path>
                    <path d="M150.7264,70.2312 C150.7264,70.2312 151.1014,61.3252 152.2264,37.9812 C153.8024,5.2892 147.3514,0.1062 147.3514,0.1062 L145.8514,7.9812" id="Stroke-93" stroke="#FFFFFF" stroke-linecap="round" stroke-linejoin="round"></path>
                    <polyline id="Stroke-95" stroke="#FFFFFF" stroke-linecap="round" stroke-linejoin="round" points="134.2264 107.7312 127.8514 0.8562 126.7264 10.6062"></polyline>
                    <path d="M288.351,45.4812 C288.351,45.4812 287.976,37.6062 289.851,24.1062 C291.726,10.6062 309.726,3.1062 309.726,3.1062 L311.976,13.7942" id="Stroke-97" stroke="#FFFFFF" stroke-linecap="round" stroke-linejoin="round"></path>
                    <path d="M274.0126,14.5491 C279.0996,9.6041 284.9756,6.1061 284.9756,6.1061 L286.8506,13.9811" id="Stroke-99" stroke="#FFFFFF" stroke-linecap="round" stroke-linejoin="round"></path>
                    <path d="M265.476,43.6062 C265.476,43.6062 264.726,34.9812 266.976,25.2312 C267.275,23.9372 267.789,22.6372 268.382,21.5442" id="Stroke-101" stroke="#FFFFFF" stroke-linecap="round" stroke-linejoin="round"></path>
                    <path d="M314.5907,17.6829 L311.3267,18.3899 C310.7767,18.5089 310.2287,18.1559 310.1097,17.6049 L309.6077,15.2859 C309.4877,14.7359 309.8407,14.1879 310.3917,14.0689 L313.6557,13.3619 C314.2057,13.2429 314.7537,13.5959 314.8727,14.1459 L315.3747,16.4659 C315.4937,17.0159 315.1407,17.5639 314.5907,17.6829 Z" id="Stroke-103" stroke="#FFFFFF" stroke-linecap="round" stroke-linejoin="round"></path>
                    <path d="M317.5458,40.1252 C315.4558,40.5132 315.1198,38.0112 315.1198,38.0112 C311.9638,36.9542 309.5568,34.5322 309.1628,29.7572 C308.7408,24.6362 311.7688,20.8372 311.7688,20.8372 L311.2488,18.4352" id="Stroke-105" stroke="#FFFFFF" stroke-linecap="round" stroke-linejoin="round"></path>
                    <path d="M317.9154,40.0452 C319.9784,39.5342 319.2504,37.1172 319.2504,37.1172 C321.6864,34.8502 322.8764,31.6492 321.2614,27.1392 C319.5284,22.3012 315.2004,20.0942 315.2004,20.0942 L314.6804,17.6922" id="Stroke-107" stroke="#FFFFFF" stroke-linecap="round" stroke-linejoin="round"></path>
                    <path d="M315.8695,27.4719 C316.2995,29.4609 316.2775,31.1539 315.8195,31.2529 C315.3605,31.3519 314.6405,29.8199 314.2095,27.8309 C313.7795,25.8419 313.8025,24.1489 314.2605,24.0499 C314.7185,23.9509 315.4385,25.4829 315.8695,27.4719 Z" id="Stroke-109" stroke="#FFFFFF" stroke-linecap="round" stroke-linejoin="round"></path>
                    <path d="M361.2084,50.0481 L358.4234,51.8901 C357.9534,52.2001 357.3144,52.0701 357.0044,51.6011 L355.6954,49.6211 C355.3854,49.1521 355.5154,48.5131 355.9844,48.2021 L358.7704,46.3601 C359.2404,46.0501 359.8794,46.1801 360.1894,46.6501 L361.4984,48.6291 C361.8094,49.0991 361.6784,49.7371 361.2084,50.0481 Z" id="Stroke-111" stroke="#FFFFFF" stroke-linecap="round" stroke-linejoin="round"></path>
                    <path d="M372.1,69.8918 C370.293,71.0118 369.073,68.8018 369.073,68.8018 C365.748,68.9608 362.627,67.5758 360.529,63.2688 C358.279,58.6498 359.723,54.0118 359.723,54.0118 L358.367,51.9608" id="Stroke-113" stroke="#FFFFFF" stroke-linecap="round" stroke-linejoin="round"></path>
                    <path d="M372.4154,69.6833 C374.1534,68.4593 372.5994,66.4713 372.5994,66.4713 C374.0474,63.4743 373.9954,60.0593 370.8534,56.4423 C367.4844,52.5623 362.6514,52.0753 362.6514,52.0753 L361.2964,50.0243" id="Stroke-115" stroke="#FFFFFF" stroke-linecap="round" stroke-linejoin="round"></path>
                    <path d="M365.9496,58.7073 C367.0726,60.4053 367.6656,61.9903 367.2736,62.2493 C366.8836,62.5073 365.6556,61.3413 364.5336,59.6443 C363.4116,57.9463 362.8186,56.3603 363.2096,56.1023 C363.6006,55.8433 364.8276,57.0103 365.9496,58.7073 Z" id="Stroke-117" stroke="#FFFFFF" stroke-linecap="round" stroke-linejoin="round"></path>
                    <path d="M288.6151,18.595 L285.2821,18.793 C284.7191,18.827 284.2321,18.394 284.1981,17.832 L284.0571,15.464 C284.0241,14.902 284.4571,14.414 285.0191,14.381 L288.3521,14.182 C288.9151,14.149 289.4021,14.581 289.4351,15.144 L289.5761,17.512 C289.6101,18.074 289.1771,18.562 288.6151,18.595 Z" id="Stroke-119" stroke="#FFFFFF" stroke-linecap="round" stroke-linejoin="round"></path>
                    <path d="M288.0995,41.2253 C285.9745,41.2883 286.0255,38.7653 286.0255,38.7653 C283.0685,37.2373 281.0615,34.4753 281.4035,29.6963 C281.7695,24.5703 285.3435,21.2803 285.3435,21.2803 L285.1975,18.8273" id="Stroke-121" stroke="#FFFFFF" stroke-linecap="round" stroke-linejoin="round"></path>
                    <path d="M288.4769,41.2029 C290.5949,41.0139 290.2449,38.5149 290.2449,38.5149 C292.9989,36.6459 294.6649,33.6659 293.7589,28.9609 C292.7879,23.9149 288.8489,21.0719 288.8489,21.0719 L288.7029,18.6189" id="Stroke-123" stroke="#FFFFFF" stroke-linecap="round" stroke-linejoin="round"></path>
                    <path d="M288.3802,28.4646 C288.5012,30.4956 288.2192,32.1656 287.7512,32.1936 C287.2832,32.2206 286.8062,30.5966 286.6852,28.5656 C286.5642,26.5336 286.8452,24.8646 287.3142,24.8366 C287.7822,24.8086 288.2592,26.4326 288.3802,28.4646 Z" id="Stroke-125" stroke="#FFFFFF" stroke-linecap="round" stroke-linejoin="round"></path>
                    <path d="M146.9559,13.4319 L143.4189,12.7969 C142.8229,12.6889 142.4219,12.1139 142.5289,11.5169 L142.9809,9.0039 C143.0879,8.4079 143.6639,8.0069 144.2599,8.1149 L147.7969,8.7499 C148.3939,8.8569 148.7939,9.4329 148.6869,10.0289 L148.2359,12.5419 C148.1279,13.1389 147.5529,13.5389 146.9559,13.4319 Z" id="Stroke-127" stroke="#FFFFFF" stroke-linecap="round" stroke-linejoin="round"></path>
                    <path d="M140.6942,36.9724 C138.4552,36.5014 139.1472,33.8754 139.1472,33.8754 C136.4402,31.5284 135.0392,28.1324 136.6052,23.2204 C138.2842,17.9514 142.8552,15.4134 142.8552,15.4134 L143.3222,12.8104" id="Stroke-129" stroke="#FFFFFF" stroke-linecap="round" stroke-linejoin="round"></path>
                    <path d="M141.0946,37.0447 C143.3576,37.3827 143.6236,34.6797 143.6236,34.6797 C146.9776,33.4217 149.4736,30.7257 149.7156,25.5757 C149.9746,20.0517 146.5736,16.0817 146.5736,16.0817 L147.0416,13.4787" id="Stroke-131" stroke="#FFFFFF" stroke-linecap="round" stroke-linejoin="round"></path>
                    <path d="M144.2147,23.6956 C143.8277,25.8516 143.1107,27.5266 142.6137,27.4366 C142.1177,27.3476 142.0287,25.5286 142.4167,23.3726 C142.8037,21.2176 143.5197,19.5426 144.0167,19.6316 C144.5127,19.7206 144.6017,21.5406 144.2147,23.6956 Z" id="Stroke-133" stroke="#FFFFFF" stroke-linecap="round" stroke-linejoin="round"></path>
                    <path d="M128.4178,15.5652 L124.8248,15.4882 C124.2188,15.4752 123.7338,14.9682 123.7468,14.3622 L123.8018,11.8102 C123.8148,11.2042 124.3208,10.7192 124.9268,10.7322 L128.5198,10.8092 C129.1258,10.8222 129.6108,11.3282 129.5978,11.9342 L129.5428,14.4872 C129.5298,15.0932 129.0238,15.5782 128.4178,15.5652 Z" id="Stroke-135" stroke="#FFFFFF" stroke-linecap="round" stroke-linejoin="round"></path>
                    <path d="M125.8973,39.7932 C123.6123,39.6772 123.8863,36.9742 123.8863,36.9742 C120.8483,35.0782 118.9353,31.9412 119.7173,26.8452 C120.5563,21.3792 124.6753,18.1612 124.6753,18.1612 L124.7313,15.5162" id="Stroke-137" stroke="#FFFFFF" stroke-linecap="round" stroke-linejoin="round"></path>
                    <path d="M126.3041,39.802 C128.5921,39.784 128.4341,37.072 128.4341,37.072 C131.5511,35.308 133.5971,32.256 133.0341,27.131 C132.4301,21.634 128.4531,18.242 128.4531,18.242 L128.5101,15.597" id="Stroke-139" stroke="#FFFFFF" stroke-linecap="round" stroke-linejoin="round"></path>
                    <path d="M127.308,26.1306 C127.261,28.3196 126.814,30.0866 126.309,30.0746 C125.805,30.0646 125.434,28.2806 125.481,26.0906 C125.528,23.9016 125.975,22.1356 126.479,22.1466 C126.984,22.1576 127.355,23.9416 127.308,26.1306 Z" id="Stroke-141" stroke="#FFFFFF" stroke-linecap="round" stroke-linejoin="round"></path>
                    <path d="M79.9125,19.8914 L76.7485,18.6584 C76.2145,18.4504 75.9485,17.8434 76.1565,17.3094 L77.0325,15.0614 C77.2405,14.5284 77.8475,14.2624 78.3805,14.4704 L81.5445,15.7034 C82.0785,15.9114 82.3455,16.5174 82.1375,17.0514 L81.2605,19.2994 C81.0525,19.8334 80.4465,20.0994 79.9125,19.8914 Z" id="Stroke-143" stroke="#FFFFFF" stroke-linecap="round" stroke-linejoin="round"></path>
                    <path d="M69.8197,40.5803 C67.8297,39.7363 68.9487,37.4263 68.9487,37.4263 C66.8657,34.7583 66.1857,31.3523 68.5317,27.0833 C71.0487,22.5033 75.7487,20.9823 75.7487,20.9823 L76.6557,18.6533" id="Stroke-145" stroke="#FFFFFF" stroke-linecap="round" stroke-linejoin="round"></path>
                    <path d="M70.1776,40.72 C72.2146,41.446 72.9536,38.987 72.9536,38.987 C76.2926,38.432 79.0976,36.386 80.2606,31.655 C81.5066,26.58 79.0756,22.279 79.0756,22.279 L79.9836,19.95" id="Stroke-147" stroke="#FFFFFF" stroke-linecap="round" stroke-linejoin="round"></path>
                    <path d="M75.5013,28.9099 C74.7503,30.8379 73.7803,32.2609 73.3363,32.0879 C72.8923,31.9139 73.1413,30.2109 73.8923,28.2829 C74.6443,26.3549 75.6133,24.9319 76.0583,25.1049 C76.5023,25.2789 76.2523,26.9819 75.5013,28.9099 Z" id="Stroke-149" stroke="#FFFFFF" stroke-linecap="round" stroke-linejoin="round"></path>
                    <path d="M80.2264,14.7312 L83.2264,9.1062 C83.2264,9.1062 107.2264,16.6062 107.6014,43.2312 C107.9764,69.8562 107.6014,108.4812 107.6014,108.4812" id="Stroke-151" stroke="#FFFFFF" stroke-linecap="round" stroke-linejoin="round"></path>
                </g>
                <g id="Group-171" transform="translate(226.000000, 14.394000)" stroke="#FFFFFF" stroke-linecap="round" stroke-linejoin="round">
                    <path d="M132.1908,88.3992 C132.1908,88.3992 132.2258,80.2312 135.6008,49.4812 C138.9758,18.7312 160.7258,30.7312 160.7258,30.7312 L163.1638,33.3562" id="Stroke-165"></path>
                    <path d="M7.6976,2.6213 C5.9896,1.1263 4.7266,0.7313 4.7266,0.7313 L0.7886,6.9183" id="Stroke-167"></path>
                    <path d="M15.9764,80.2312 C15.9764,80.2312 16.7264,60.7312 16.7264,32.6062 C16.7264,20.8202 14.6194,13.3142 12.1704,8.5712" id="Stroke-169"></path>
                </g>
                <g id="Group-249" transform="translate(0.000000, 14.394000)" stroke="#FFFFFF" stroke-linecap="round" stroke-linejoin="round">
                    <path d="M307.976,3.9187 C307.976,5.7827 308.851,7.2937 309.931,7.2937 C311.011,7.2937 311.886,5.7827 311.886,3.9187 C311.886,2.0547 311.011,0.5437 309.931,0.5437 C308.851,0.5437 307.976,2.0547 307.976,3.9187 Z" id="Stroke-185"></path>
                    <path d="M233.2264,5.1687 C233.2264,7.0327 234.1014,8.5437 235.1814,8.5437 C236.2604,8.5437 237.1364,7.0327 237.1364,5.1687 C237.1364,3.3047 236.2604,1.7937 235.1814,1.7937 C234.1014,1.7937 233.2264,3.3047 233.2264,5.1687 Z" id="Stroke-187"></path>
                    <path d="M235.181,1.7937 L309.931,0.5437" id="Stroke-189"></path>
                    <path d="M309.931,7.2937 L235.181,8.5437" id="Stroke-191"></path>
                    <path d="M282.3514,29.2937 C284.9604,26.9597 287.4734,20.8797 286.1004,15.9367 C284.8314,11.3687 278.2734,10.8567 278.2734,10.8567 L268.3814,10.8567 C268.3814,10.8567 261.8244,11.3687 260.5554,15.9367 C259.1824,20.8797 261.5164,26.6467 264.1254,28.9817 L282.3514,29.2937 Z" id="Stroke-193"></path>
                    <path d="M263.0292,16.3489 C263.0292,16.3489 272.3662,18.6829 283.6262,16.3489" id="Stroke-195"></path>
                    <path d="M268.8251,10.6062 L268.8251,8.1062" id="Stroke-197"></path>
                    <path d="M277.83,10.6062 L277.83,7.9812" id="Stroke-199"></path>
                    <path d="M342.476,68.6062 L362.726,66.3562 C362.726,66.3562 384.851,63.3562 357.851,62.9812 C330.851,62.6062 213.57,62.1372 213.57,62.1372 C213.57,62.1372 205.695,61.5752 206.211,65.6062" id="Stroke-201"></path>
                    <path d="M370.601,63.7312 C370.601,63.7312 372.851,64.1062 372.476,74.2312 C372.101,84.3562 371.351,93.7312 371.351,93.7312" id="Stroke-203"></path>
                    <path d="M234.8514,62.6062 C234.8514,62.6062 235.2264,79.4812 236.7264,92.2312" id="Stroke-205"></path>
                    <path d="M182.0702,58.7625 C182.0702,58.7625 132.8512,60.3565 123.1012,62.9815 C113.3512,65.6065 116.3512,70.4815 118.2262,96.3565" id="Stroke-207"></path>
                    <path d="M127.6014,130.1062 L127.6014,212.6062" id="Stroke-209"></path>
                    <path d="M131.8202,133.95 L131.8202,212.7" id="Stroke-211"></path>
                    <path d="M322.226,215.2307 L322.226,202.4807 C322.226,202.4807 323.351,196.2307 316.351,195.9807 C309.351,195.7307 304.851,195.9807 304.851,195.9807 C304.851,195.9807 298.101,194.9807 298.351,201.7307 C298.601,208.4807 298.851,215.4807 298.851,215.4807" id="Stroke-213"></path>
                    <path d="M407.9135,215.6057 L407.9135,201.1677 C407.9135,201.1677 408.8505,194.9807 402.8515,194.6057 C396.8505,194.2307 385.4135,194.7937 385.4135,194.7937 C385.4135,194.7937 379.9765,194.2307 380.1635,201.3557 C380.3515,208.4807 380.3515,215.4187 380.3515,215.4187" id="Stroke-215"></path>
                    <path d="M375.726,194.9807 C375.726,194.9807 346.601,195.7307 326.788,194.7937" id="Stroke-217"></path>
                    <path d="M585.351,212.4807 L593.851,194.4807 C593.851,194.4807 600.851,176.4807 580.851,178.4807 C560.851,180.4807 502.351,187.8557 502.351,187.8557 C502.351,187.8557 491.601,188.3557 489.101,198.4807 C486.549,208.8137 485.351,214.8557 485.351,214.8557" id="Stroke-219"></path>
                    <path d="M544.351,182.8557 L533.726,213.7307" id="Stroke-221"></path>
                    <path d="M252.4764,215.2307 L252.4144,200.8557 C252.4144,200.8557 252.9134,195.6057 247.3514,195.3557 C243.0984,195.1647 239.8564,195.3877 238.3964,195.3647 C237.0594,195.3447 235.7664,196.0227 235.1574,197.2137 C234.6744,198.1597 234.3454,199.5847 234.4764,201.7307 C234.9354,209.2267 235.2264,214.6057 235.2264,214.6057" id="Stroke-223"></path>
                    <path d="M199.7889,214.2932 L199.6019,199.8552 C199.6019,199.8552 200.1639,195.3562 195.4769,195.5432 C190.7889,195.7312 188.9139,195.5432 188.9139,195.5432 C188.9139,195.5432 185.9139,195.7312 185.9139,200.0432 L185.9139,213.7312" id="Stroke-225"></path>
                    <path d="M156.8514,213.3557 L156.8514,200.4177 C156.8514,200.4177 157.6054,195.8007 153.6634,195.7307 C151.0394,195.6837 147.8984,195.7777 147.8984,195.7777 C147.8984,195.7777 144.3354,195.3557 144.2884,199.7147 C144.2244,205.7147 144.2884,212.9807 144.2884,212.9807" id="Stroke-227"></path>
                    <path d="M118.6014,212.4182 L119.0234,199.8552 C119.0234,199.8552 119.6334,196.1492 116.3984,196.1992 C113.3514,196.2462 110.9144,196.1992 110.9144,196.1992 C110.9144,196.1992 108.0674,195.8722 107.9604,199.5742 C107.8594,203.0862 107.9354,212.0662 108.0074,212.1372" id="Stroke-229"></path>
                    <path d="M80.3514,204.5432 L80.3514,197.7932 C80.3514,197.7932 79.4144,191.9802 86.9134,192.1682 C94.4144,192.3552 123.8514,191.6052 123.8514,191.6052 C123.8514,191.6052 127.1014,191.5432 127.5394,194.0432" id="Stroke-231"></path>
                    <path d="M631.976,226.4807 C631.976,226.4807 643.976,214.4807 645.851,211.1057 C647.726,207.7307 649.601,201.7307 649.601,201.7307 C649.601,201.7307 647.351,199.4807 645.476,197.2307 C643.601,194.9807 640.976,193.1057 636.851,197.2307 C632.726,201.3557 622.976,200.2307 615.476,200.6057 C607.976,200.9807 602.351,201.7307 593.351,211.1057 L612.851,212.2307 C612.851,212.2307 627.851,221.6057 631.976,226.4807 Z" id="Stroke-233"></path>
                    <path d="M641.0697,194.6995 L652.6007,194.2305 C652.6007,194.2305 657.0997,198.3555 658.5997,202.1055 C658.5997,202.1055 658.2247,207.7305 654.1007,213.3555 C649.9757,218.9805 645.4757,225.7305 642.1007,225.7305 C638.7257,225.7305 631.9757,226.4805 631.9757,226.4805" id="Stroke-235"></path>
                    <path d="M649.601,201.7307 L658.6,202.1057" id="Stroke-237"></path>
                    <path d="M393.0219,335.4377 C340.2719,326.8807 336.8319,345.3067 281.6469,335.3617 C225.0999,325.1697 228.7079,305.1557 172.1609,294.9637 C115.6239,284.7747 112.0169,304.7897 55.4799,294.5997 C27.0429,289.4747 13.8139,281.8657 0.4999,274.2707" id="Stroke-239"></path>
                    <path d="M476.3861,380.5002 C464.5941,374.3622 451.7401,368.4372 427.0961,364.8442 C372.9131,356.9462 370.1181,376.1232 315.9351,368.2252 C261.7551,360.3272 264.5501,341.1512 210.3701,333.2542 C156.2001,325.3572 153.4051,344.5342 99.2341,336.6382 C99.1991,336.6332 99.1671,336.6282 99.1331,336.6222" id="Stroke-241"></path>
                    <path d="M520.476,22.8562 C520.476,22.8562 533.851,18.3562 534.851,31.4812 C534.851,31.4812 547.726,23.4812 552.976,35.9812" id="Stroke-243"></path>
                    <path d="M462.1273,56.887 C462.1273,56.887 467.1013,46.856 475.5223,55.123 C475.5223,55.123 479.2733,44.345 489.4493,53.523" id="Stroke-245"></path>
                    <path d="M18.9369,67.6516 C18.9369,67.6516 18.3819,56.1586 29.6039,61.0416 C29.6039,61.0416 30.1929,49.2296 40.8049,55.0216" id="Stroke-247"></path>
                </g>
            </g>
        </g>
    </g>
</svg>