<?xml version="1.0" encoding="UTF-8"?>
<svg width="20px" height="25px" viewBox="0 0 20 25" version="1.1" xmlns="http://www.w3.org/2000/svg" xmlns:xlink="http://www.w3.org/1999/xlink">
    <!-- Generator: Sketch 47.1 (45422) - http://www.bohemiancoding.com/sketch -->
    <title>bookmark-solid</title>
    <desc>Created with Sketch.</desc>
    <defs></defs>
    <g id="Page-1" stroke="none" stroke-width="1" fill="none" fill-rule="evenodd">
        <g id="Artboard-3" transform="translate(-139.000000, -35.000000)" fill-rule="nonzero">
            <g id="bookmark-solid" transform="translate(141.000000, 37.000000)">
                <g id="Shape" stroke="#7CAFBF" stroke-width="2.3" stroke-linecap="round">
                    <path d="M0,20.2324334 L0,1.89679063 C0,0.849208972 0.895416667,0 2,0 L14,0 C15.1045833,0 16,0.849208972 16,1.89679063 L16,20.2324334 L8,15.8065886 L0,20.2324334 Z"></path>
                </g>
                <g id="plus-solid" transform="translate(4.000000, 4.000000)" fill="#7CAFBF">
                    <path d="M7.3015873,2.95238095 L5.04761905,2.95238095 L5.04761905,0.698412698 C5.04761905,0.312757937 4.73486111,0 4.34920635,0 L3.65079365,0 C3.26513889,0 2.95238095,0.312757937 2.95238095,0.698412698 L2.95238095,2.95238095 L0.698412698,2.95238095 C0.312757937,2.95238095 0,3.26513889 0,3.65079365 L0,4.34920635 C0,4.73486111 0.312757937,5.04761905 0.698412698,5.04761905 L2.95238095,5.04761905 L2.95238095,7.3015873 C2.95238095,7.68724206 3.26513889,8 3.65079365,8 L4.34920635,8 C4.73486111,8 5.04761905,7.68724206 5.04761905,7.3015873 L5.04761905,5.04761905 L7.3015873,5.04761905 C7.49441468,5.04761905 7.66901786,4.96942956 7.79541419,4.84303323 C7.92181052,4.7166369 8,4.54203373 8,4.34920635 L8,3.65079365 C8,3.26513889 7.68724206,2.95238095 7.3015873,2.95238095 Z" id="Shape"></path>
                </g>
            </g>
        </g>
    </g>
</svg>