<?xml version="1.0" encoding="utf-8"?>
<!-- Generator: Adobe Illustrator 24.1.2, SVG Export Plug-In . SVG Version: 6.00 Build 0)  -->
<svg version="1.1" id="Capa_1" xmlns="http://www.w3.org/2000/svg" xmlns:xlink="http://www.w3.org/1999/xlink" x="0px" y="0px"
	 viewBox="0 0 512 512" style="enable-background:new 0 0 512 512;" xml:space="preserve">
<style type="text/css">
	.st0{fill:none;}
</style>
<g>
	<path class="st0" d="M219.26,162.67h163.81c8.28,0,15-6.72,15-15s-6.72-15-15-15H219.26c-8.28,0-15,6.72-15,15
		S210.97,162.67,219.26,162.67z"/>
	<path class="st0" d="M442.73,61.26H159.6c-8.28,0-15,6.72-15,15v142.83c0,8.28,6.72,15,15,15h283.13c8.28,0,15-6.72,15-15V76.26
		C457.73,67.97,451.01,61.26,442.73,61.26z M427.73,204.09H174.6V91.26h253.13V204.09z"/>
	<path d="M0,476.84C0,496.23,15.77,512,35.16,512c19.39,0,35.16-15.77,35.16-35.16V334.31H0V476.84z"/>
	<path d="M46.81,94.14c-4.63-9.87-18.67-9.87-23.3,0L3.55,136.72C1.21,141.71,0,147.15,0,152.65v35.6h70.32v-35.6
		c0-5.51-1.21-10.94-3.55-15.93L46.81,94.14z"/>
	<rect y="218.25" width="70.32" height="86.05"/>
	<path d="M174.6,204.09h253.13V91.26H174.6V204.09z M219.26,132.67h163.81c8.28,0,15,6.72,15,15s-6.72,15-15,15H219.26
		c-8.28,0-15-6.72-15-15S210.97,132.67,219.26,132.67z"/>
	<path d="M357.29,355.84c-0.09,0.14-0.18,0.28-0.27,0.42C357.03,356.25,357.13,356.11,357.29,355.84z"/>
	<path d="M496.73,0H105.6c-8.43,0-15.27,6.72-15.27,15v482c0,8.28,6.84,15,15.27,15h391.13c8.43,0,15.27-6.72,15.27-15V15
		C512,6.72,505.16,0,496.73,0z M431.9,391.31c-22.76,40.74-60.75,65.77-105.29,69.81c-23.01,18.54-54.9,19.14-58.88,19.14
		c-16.33,0-29.61-13.28-29.61-29.61c0-3.85,0.15-7.46,0.44-10.85c-0.57-0.29-1.14-0.58-1.7-0.87c-18.6,13.17-39.83,13.66-42.9,13.66
		c-16.33,0-29.61-13.28-29.61-29.61c0-20.12,4.28-35.09,9.94-46.11c-5.66-11.01-9.94-25.99-9.94-46.11
		c0-16.33,13.28-29.61,29.61-29.61c2.3,0,14.76,0.28,28.68,5.93c-0.32-0.85-0.65-1.7-0.98-2.56c-3.67-9.49-2.12-20.43,4.05-28.55
		c6.19-8.16,16.32-12.57,26.5-11.56c2.05,0.2,17.97,1.86,36.05,6.54c21.86,5.65,38.17,13.29,49.48,23.21
		c39.65,7,73.61,31.49,94.16,68.27l0,0C436.94,371.48,436.94,382.27,431.9,391.31z M457.73,219.09c0,8.28-6.72,15-15,15H159.6
		c-8.28,0-15-6.72-15-15V76.26c0-8.28,6.72-15,15-15h283.13c8.28,0,15,6.72,15,15V219.09z"/>
</g>
<g>
	<g>
		<path d="M410.07,374.63c-18.43-33-48.73-53.17-84.25-56.91c-17.81-22.49-73.68-28.19-76.09-28.42c-1.57-0.16-3.15,0.52-4.12,1.8
			c-0.97,1.27-1.21,2.95-0.63,4.44c5.48,14.22,11.09,30.39,12.57,37.01c-10.15,4.64-19.01,9.58-24.73,13.69
			c-12.4-19.84-37.71-20.09-38.87-20.09c-2.55,0-4.61,2.06-4.61,4.61c0,26.71,9.31,40.12,15.54,46.11
			c-6.23,5.98-15.54,19.39-15.54,46.11c0,2.55,2.06,4.61,4.61,4.61c1.16,0,26.47-0.25,38.87-20.09c7.6,5.47,20.73,12.38,35.08,18.12
			c-3.17,5.13-4.79,13.29-4.79,25.01c0,2.55,2.06,4.61,4.61,4.61c1.37,0,32.72-0.27,48.34-18.59c39.71-0.77,73.9-21.56,94-57.55
			C410.85,377.73,410.85,376.03,410.07,374.63z M317.68,342.54c-0.09,0.13-8.46,13.12-8.46,34.34c0,11.53,2.47,20.53,4.53,26.06
			c0.89,2.39-0.32,5.04-2.7,5.93c-0.53,0.2-1.08,0.29-1.62,0.29c-1.87,0-3.62-1.14-4.32-2.99c-2.34-6.24-5.12-16.38-5.12-29.29
			c0-24.17,9.59-38.83,10-39.44c1.41-2.11,4.25-2.68,6.38-1.28C318.49,337.56,319.07,340.41,317.68,342.54z M355.33,372.27
			c-5.08,0-9.22-4.14-9.22-9.22c0-5.08,4.14-9.22,9.22-9.22c5.08,0,9.22,4.14,9.22,9.22C364.55,368.13,360.41,372.27,355.33,372.27z
			"/>
	</g>
</g>
</svg>
