<?xml version="1.0" encoding="utf-8"?>
<!-- Generator: Adobe Illustrator 24.1.2, SVG Export Plug-In . SVG Version: 6.00 Build 0)  -->
<svg version="1.1" id="圖層_1" xmlns="http://www.w3.org/2000/svg" xmlns:xlink="http://www.w3.org/1999/xlink" x="0px" y="0px"
	 viewBox="0 0 84 84" style="enable-background:new 0 0 84 84;" xml:space="preserve">
<style type="text/css">
	.st0{fill:#384982;}
</style>
<desc>Created with Sketch.</desc>
<g id="Page-1">
	<g id="Artboard-4" transform="translate(-175.000000, -341.000000)">
		<g id="icon-shop-02" transform="translate(175.000000, 341.000000)">
			<path id="Shape" class="st0" d="M76.7,47.1c4.7-4.7,7.3-10.9,7.3-17.5c0-6.6-2.6-12.8-7.3-17.5L66.2,1.5c0,0,0,0,0,0c0,0,0,0,0,0
				c-1-1-2.2-1.5-3.6-1.5c-1.4,0-2.6,0.5-3.6,1.5L1.5,59.2c-1,1-1.5,2.3-1.5,3.7c0,1.4,0.5,2.7,1.5,3.7l2.3,2.3c1,1,2.3,1.5,3.6,1.5
				c0,0,0.1,0,0.1,0c1.4,0,2.7-0.6,3.7-1.7l33.4-36.4l3.7,3.7c0.5,0.5,1.1,0.7,1.7,0.7c0.6,0,1.3-0.2,1.7-0.7c1-1,1-2.5,0-3.5
				l-3.8-3.9l4.5-4.9l4,4.1c0.5,0.5,1.1,0.7,1.7,0.7c0.6,0,1.3-0.2,1.7-0.7c1-1,1-2.5,0-3.5l-4.2-4.2L66.3,8.6l6.9,7
				c3.8,3.8,5.9,8.8,5.9,14s-2.1,10.2-5.9,14c0,0,0,0,0,0L55.8,61.1c-2.5,2.5-3.9,5.9-3.9,9.5c0,3.6,1.4,6.9,3.9,9.5
				c2.5,2.5,5.9,3.9,9.4,3.9c3.6,0,6.9-1.4,9.4-3.9c1-1,1-2.5,0-3.5c-1-1-2.5-1-3.5,0c-1.6,1.6-3.7,2.5-6,2.5c-2.3,0-4.4-0.9-6-2.5
				c-1.6-1.6-2.5-3.7-2.5-6c0-2.3,0.9-4.4,2.5-6L76.7,47.1z"/>
			<path id="Shape_1_" class="st0" d="M43.2,41L23,63c2.7,2,5.8,3,9,3c3.8,0,7.7-1.5,10.6-4.4C48.3,56,48.5,46.9,43.2,41z"/>
		</g>
	</g>
</g>
</svg>
