<?xml version="1.0" encoding="UTF-8"?>
<svg width="72px" height="72px" viewBox="0 0 72 72" version="1.1" xmlns="http://www.w3.org/2000/svg" xmlns:xlink="http://www.w3.org/1999/xlink">
    <!-- Generator: Sketch 47.1 (45422) - http://www.bohemiancoding.com/sketch -->
    <title>icon-shop-03</title>
    <desc>Created with Sketch.</desc>
    <defs></defs>
    <g id="Page-1" stroke="none" stroke-width="1" fill="none" fill-rule="evenodd">
        <g id="Artboard-4" transform="translate(-169.000000, -552.000000)" fill-rule="nonzero" fill="#384982">
            <g id="icon-shop-03" transform="translate(169.000000, 552.000000)">
                <path d="M70.24,37.06 C71.92,38.93 71.54,41.32 71.62,43.48 C72.19,57.71 61.82,69.57 47.21,71.59 C33.96,73.42 20.83,64.33 17.52,51.03 C15.94,44.66 16.47,38.49 19.24,32.52 C19.57,31.81 20.39,31 19.77,30.24 C19.13,29.46 18.04,29.77 17.17,30 C12.59,31.2 9.03,34.07 5.6,37.15 C4.61,38.04 3.68,38.99 2.71,39.91 C2.3,40.3 1.79,40.37 1.35,40.02 C0.82,39.6 0.74,39.03 1.16,38.48 C1.52,38.02 1.93,37.6 2.34,37.19 C13.94,25.59 25.55,13.99 37.16,2.4 C37.34,2.22 37.51,2.04 37.7,1.88 C38.31,1.36 38.89,0.48 39.77,1.42 C40.55,2.27 39.67,2.75 39.2,3.27 C37.06,5.61 35.04,8.04 33.49,10.82 C32.52,12.58 31.67,14.41 31.76,16.48 C31.84,18.29 32.5,19.43 34.58,18.46 C34.8,18.36 35.05,18.24 35.29,18.23 C40.26,18.03 42.66,14.08 45.68,11.06 C46.02,10.72 46.45,10.23 46.44,9.82 C46.39,5.52 50.05,3.89 52.5,1.47 C53.87,0.11 55.78,0.31 57.27,1.66 C58.74,3 59.1,4.72 57.91,6.37 C56.36,8.54 54.37,10.35 52.3,12.02 C51.52,12.65 50.45,12.76 49.43,12.54 C48.52,12.34 47.77,12.62 47.19,13.29 C46.5,14.08 45.19,14.64 45.41,15.84 C45.68,17.27 47.17,16.81 48.14,16.98 C58.34,18.85 65.55,24.45 69.69,34 C70.14,35.03 70.38,36.04 70.27,37.14 C69.81,36.56 69.4,35.93 68.89,35.41 C67.33,33.8 65.55,33.03 63.28,33.91 C61.09,34.76 59.91,36.38 59.88,38.65 C59.85,40.94 61.08,42.56 63.23,43.42 C67.09,44.92 70.34,41.95 70.24,37.06 Z M51.04,44.21 C51.04,40.47 47.98,37.51 44.12,37.5 C40.29,37.49 37.23,40.52 37.28,44.28 C37.33,48.04 40.42,51.07 44.2,51.05 C47.96,51.03 51.05,47.95 51.04,44.21 Z M40.08,33.43 C42.52,33.4 44.58,31.41 44.63,29.02 C44.69,26.53 42.57,24.43 40.02,24.44 C37.51,24.46 35.37,26.63 35.46,29.08 C35.55,31.43 37.69,33.45 40.08,33.43 Z M37.52,55.55 C37.6,53.26 35.51,51.05 33.15,50.91 C30.72,50.77 28.43,52.89 28.35,55.35 C28.27,57.74 30.26,59.84 32.7,59.94 C35.21,60.06 37.43,58.04 37.52,55.55 Z M52.81,59.6 C52.81,57.02 50.78,55.04 48.18,55.09 C45.66,55.14 43.81,57.04 43.8,59.57 C43.79,62.16 45.83,64.17 48.4,64.11 C50.8,64.05 52.8,62.01 52.81,59.6 Z M59.42,52.81 C62.01,52.84 64.1,50.83 64.08,48.32 C64.06,45.98 61.95,43.87 59.6,43.83 C57.03,43.78 55,45.8 55.01,48.39 C55.02,50.88 56.9,52.78 59.42,52.81 Z M55.47,37.63 C57.94,37.57 59.98,35.36 59.89,32.84 C59.8,30.35 57.82,28.49 55.32,28.55 C52.7,28.61 50.79,30.64 50.9,33.25 C51,35.63 53.14,37.68 55.47,37.63 Z M28.91,35.66 C26.45,35.62 24.43,37.51 24.33,39.96 C24.22,42.49 26.23,44.63 28.77,44.68 C31.11,44.73 33.29,42.69 33.4,40.35 C33.51,37.88 31.43,35.71 28.91,35.66 Z" id="Shape"></path>
                <path d="M39.9,43.9 C40.09,41.58 42.15,39.91 44.56,40.12 C46.96,40.33 48.6,42.33 48.35,44.73 C48.12,46.98 46.21,48.54 43.86,48.39 C41.46,48.24 39.71,46.25 39.9,43.9 Z" id="Shape"></path>
                <path d="M67.66,38.5 C67.4,40.11 66.67,41.15 65.06,41.15 C63.48,41.15 62.53,40.24 62.52,38.67 C62.51,37.1 63.46,36.16 65.02,36.13 C66.59,36.11 67.34,37.17 67.66,38.5 Z" id="Shape"></path>
            </g>
        </g>
    </g>
</svg>