<?xml version="1.0" encoding="UTF-8"?>
<svg width="138px" height="71px" viewBox="0 0 138 71" version="1.1" xmlns="http://www.w3.org/2000/svg" xmlns:xlink="http://www.w3.org/1999/xlink">
    <!-- Generator: Sketch 47.1 (45422) - http://www.bohemiancoding.com/sketch -->
    <title>Page 1</title>
    <desc>Created with Sketch.</desc>
    <defs>
        <polygon id="path-1" points="69.9081585 71 0.0675048283 71 0.0675048283 0.13434211 69.9081585 0.13434211"></polygon>
    </defs>
    <g id="Page-1" stroke="none" stroke-width="1" fill="none" fill-rule="evenodd">
        <g id="Desktop-HD" transform="translate(-651.000000, -37.000000)">
            <g id="Page-1" transform="translate(651.000000, 37.000000)">
                <path d="M12.3456601,32.8361519 C14.0174335,34.2914808 17.324603,32.8910257 17.7959261,30.544805 C16.5567979,32.7594167 14.9029975,33.7684192 12.3456601,32.8361519 M30.6549362,24.0639773 C30.3554347,25.1456069 30.0645602,26.3877496 29.6526198,27.5867563 C29.4905756,28.0586121 29.1138622,28.4984826 28.735711,28.8379958 C28.1901955,29.3281917 27.6354779,29.2033319 27.2356154,28.5730171 C27.0249722,28.2412802 26.8816198,27.8650867 26.7070664,27.5094342 C26.7241767,28.2926326 27.2071462,29.1331991 27.7916271,29.291218 C28.509683,29.485477 28.9679217,29.0225712 29.3974037,28.5353097 C29.4333497,28.4945212 29.4682891,28.4516785 29.4970459,28.405608 C30.3544282,27.0300956 30.5780119,25.4906955 30.6549362,24.0639773 M14.6870343,20.6236556 C13.4966488,20.4832433 12.3056882,20.3680671 11.139027,20.7626007 C10.212916,21.075704 9.93771399,21.5906959 10.0741647,22.5574427 C10.1316782,22.9656214 10.1394426,23.4021174 10.0616556,23.8039871 C9.93929561,24.4354757 9.72548921,25.0484774 9.55050441,25.669402 C10.1403053,24.736988 10.4912813,23.7362018 10.3298122,22.6099689 C10.1855971,21.6021401 10.4272976,21.1895598 11.385041,20.9178319 C11.5910831,20.8592901 11.803883,20.8088179 12.0162516,20.7934122 C12.9059853,20.7288548 13.7967255,20.6789696 14.6870343,20.6236556 M24.2236338,9.60224303 C23.7590686,9.27461431 21.5794511,9.89994061 20.021842,10.8363161 C17.6906764,12.2376515 16.3092023,14.3140517 15.797476,17.0082954 C17.0056907,12.6329188 19.9452052,10.3219111 24.2236338,9.60224303 M1.84642848,30.2994869 C1.83190633,30.2607525 1.81752796,30.2221648 1.80314958,30.1832836 C1.5131378,30.2986066 1.21032927,30.3882533 0.93598992,30.534241 C0.35438474,30.8435296 0.30578584,31.2520018 0.820100235,31.6780805 C1.12276498,31.9288273 1.46942755,32.1390789 1.82356687,32.3078084 C3.52740405,33.1197643 4.54007284,34.4539013 4.86976893,36.3461662 C4.97271808,36.935986 5.1254164,37.5216975 5.3119039,38.0899492 C5.43483898,38.4648222 5.74253616,38.6759542 6.11551115,38.4099484 C6.83399844,37.8977443 7.1365194,37.1041286 7.43228253,36.3163818 C7.07253564,36.8387097 6.75966225,37.3930229 6.38855645,37.9030262 C6.25785704,38.0827598 5.97906039,38.2525164 5.77790696,38.2410722 C5.6414562,38.2332959 5.48645734,37.9171115 5.40521953,37.7117016 C5.30615255,37.4615417 5.25237743,37.1859991 5.21945096,36.916472 C4.93432783,34.5868308 3.81583421,32.8917593 1.6510264,31.9706428 C1.3903465,31.8597215 1.14102552,31.6952469 0.923336951,31.5105248 C0.578256004,31.2175223 0.607156534,30.9088206 0.998679625,30.6805222 C1.26525466,30.5249976 1.56274319,30.4244935 1.84642848,30.2994869 M26.4643595,12.4266286 C20.5191899,15.8587338 15.7206955,20.6333392 11.3899296,25.9506668 C16.225664,21.2266803 21.0232956,16.4583839 26.4643595,12.4266286 M37.829888,12.8775032 C36.7148452,12.426922 35.5813981,12.3777704 34.4101358,12.6613827 C34.5757747,13.4068737 34.3317737,13.8150525 33.7093339,13.9179041 C33.1664066,14.0075509 32.8597159,13.7001697 32.7597862,12.938686 C30.9456669,12.9152106 29.2212687,13.2651409 27.6300141,14.2095861 C28.717738,13.2085065 30.0756316,12.8268843 31.4506354,12.4829696 C29.5518275,12.4436482 27.8633751,13.0227573 26.4561638,14.3042214 C26.1047564,14.6242206 25.8571608,15.1180846 25.6918095,15.5804035 C25.5012961,16.1128552 25.7228668,16.4777511 26.2712579,16.6120011 C26.7432999,16.7274708 27.2419419,16.7308454 27.7287936,16.7838118 C27.7272119,16.8294421 27.7256303,16.8750725 27.7240487,16.9208495 C27.0784598,16.8807946 26.3989379,16.9507807 25.80051,16.7582823 C25.4557166,16.6475077 25.2423416,16.1121216 24.9412584,15.7318199 C22.9469781,17.821425 21.098207,20.2072605 18.671569,21.9753992 C18.6258458,21.9310894 18.5801225,21.8867795 18.5343993,21.8426164 C20.3521132,19.8099391 22.1698271,17.7772619 23.9876847,15.7447314 C23.2739423,16.2729281 22.5814799,16.8366315 21.9137483,17.4295323 C19.8245707,19.285117 17.8016774,21.2048188 16.2456499,23.5746617 C16.082024,23.8239412 15.8603095,24.0635371 15.6124264,24.2205289 C13.2342435,25.7275037 10.8442704,27.2148178 8.45918592,28.7103482 C8.2455233,28.8443048 8.04293202,28.9961614 7.83516454,29.1396548 C7.85371264,29.1704663 7.87211696,29.2011311 7.89052127,29.2319426 C8.67744962,28.8780507 9.46423417,28.5243056 10.2510187,28.1705605 C9.75884703,28.5543835 9.22397157,28.8465056 8.69312204,29.1458171 C8.1783763,29.4360319 7.66751271,29.7337295 7.1550675,30.0281992 C7.17404696,30.0660533 7.19317019,30.1039074 7.21229343,30.1417615 C7.53494411,30.0095656 7.85773858,29.8773697 8.11928118,29.7702631 C7.32588257,30.4369648 6.46619966,31.0980911 5.67797727,31.8385936 C4.84201867,32.6241396 4.86905001,33.0414151 5.67136322,33.8881438 C5.83240099,34.0580471 6.00566038,34.2260431 6.20019977,34.3511964 C6.94845029,34.8331759 7.26923178,34.6719292 7.33911068,33.7989373 C7.34931932,33.6709963 7.36125337,33.5433487 7.37635066,33.4161413 C7.51596466,32.2353281 8.57435668,30.8827042 9.65906113,30.5392296 C9.03762785,31.1396132 8.47442699,31.7355953 8.31712759,32.4612789 C8.90707223,31.9515691 9.502912,31.3084895 10.2124847,30.848078 C12.1443629,29.5943442 14.2431739,28.678363 16.448385,28.0622801 C19.2560498,27.2777612 22.0181352,26.3878964 24.5910013,24.9710085 C25.3500356,24.5528527 26.0998677,24.1173838 26.8538696,23.6898379 L26.947329,23.8594478 C24.9881319,24.9941905 23.0289349,26.1290799 21.0812405,27.2572202 C26.1454472,25.8040922 30.1051072,22.6428345 33.745855,18.6879612 C32.6280803,18.7655767 31.6934861,18.6542153 30.8936172,18.116775 C29.9173257,17.4610774 28.9022126,17.0539258 27.7096703,17.2360069 C28.8076029,16.9233438 29.5896426,17.0058012 30.5764303,17.4952635 C30.8660107,17.6389037 31.1573166,17.7975094 31.4658764,17.8795267 C33.0089634,18.2897595 34.4132991,18.1245513 35.5172705,16.79687 C36.1561016,16.0286371 36.8072981,15.2711149 37.448286,14.5046427 C37.6373616,14.2785451 37.8104772,14.0386558 37.9909258,13.8050754 L37.8612329,13.6747869 C37.1683391,14.3015804 36.4754453,14.9283739 35.7825515,15.5550207 C35.7604088,15.5291977 35.7382661,15.5033748 35.7162672,15.4775518 C36.4097361,14.624514 37.1032051,13.7713295 37.829888,12.8775032 M39,13.6935672 C38.2332014,15.5429895 37.0058635,17.0724126 35.7105159,18.5362513 C34.3764904,20.0441064 32.9710045,21.4871106 31.5750083,22.9368641 C31.3028257,23.219596 31.1847793,23.4936715 31.1581793,23.8879117 C31.0670204,25.2420028 30.8788075,26.5909587 30.2862747,27.8215104 C30.0237256,28.3668736 29.6603842,28.905781 29.2205497,29.3092647 C28.3364236,30.1204869 27.2763062,29.9234402 26.6758653,28.8773171 C26.390886,28.3811056 26.2182017,27.8179891 25.9708937,27.2284628 C25.6475241,27.3876555 25.315815,27.5518366 24.9833871,27.7144039 C23.0870235,28.6416827 21.1529886,29.4542254 19.0656802,29.8349672 C18.8724348,29.8701803 18.6692684,30.090409 18.5525161,30.2777722 C18.1218838,30.9683895 17.8064223,31.7496805 17.2997284,32.3714855 C16.2646294,33.6415053 14.8589996,34.0689045 13.2792478,33.8207988 C12.3859195,33.6805332 11.7006463,33.150429 11.1959654,32.3860109 C11.0872649,32.2210961 10.985466,32.0511928 10.8713017,31.8694051 C9.76172271,32.2676068 9.15754348,33.0959954 8.7641512,34.1557635 C8.34645947,35.2812628 7.91136991,36.4026539 7.42236145,37.497195 C7.23414855,37.9181385 6.91768057,38.304309 6.58683421,38.6290033 C5.95087878,39.2534493 5.18091692,39.0723952 4.89033001,38.2155426 C4.65754415,37.5291803 4.51850528,36.8070179 4.37227723,36.0935121 C4.05911627,34.5659964 3.18649283,33.5044676 1.83693876,32.8120896 C1.42140379,32.5987568 0.998535841,32.3833699 0.625273283,32.1047461 C-0.269924207,31.436137 -0.204646394,30.4557451 0.825995368,30.0700148 C1.74031609,29.7278606 2.72509085,29.5652934 3.68959209,29.3832122 C4.83152246,29.1675319 5.99056309,29.0448729 7.13048049,28.820536 C7.53580682,28.7407196 7.9070564,28.4810228 8.35494271,28.2754662 C7.83832778,27.7152842 8.03128554,27.2168719 8.30620003,26.716112 C8.665228,26.062175 9.05675109,25.4226168 9.36099746,24.7427101 C9.66826328,24.0560543 9.79292378,23.3271428 9.66093031,22.5512804 C9.38400285,20.9239942 10.4304608,20.3261048 11.7943933,20.1629507 C12.7842005,20.0442531 13.7964379,20.1196679 14.7987543,20.1095441 C15.0033585,20.10749 15.2079628,20.1091039 15.5099086,20.1091039 C14.7203921,19.5131219 14.990418,18.7441554 15.0709369,18.095207 C15.6713777,13.2548705 18.7771062,9.95892258 23.5203876,9.04220773 C23.9881161,8.95182739 24.4072457,8.98777412 24.7710185,9.33697088 C24.8877709,9.44891925 25.0403254,9.52125286 25.162254,9.62865287 C26.3027466,10.63208 27.4937072,11.3106662 29.1282406,10.9476776 C29.8345063,10.7908325 30.6402703,11.1147932 31.4027554,11.2025325 C32.1679724,11.2907121 32.9346272,11.3733162 33.7027199,11.4293637 C35.1257475,11.5330957 36.5502128,11.6156998 38.0288847,11.7106285 C38.0288847,11.7106285 38.9357287,11.8406236 39,13.6935672" id="Fill-1" fill="#656666"></path>
                <g id="Group-5" transform="translate(38.000000, 0.000000)">
                    <mask id="mask-2" fill="white">
                        <use xlink:href="#path-1"></use>
                    </mask>
                    <g id="Clip-4"></g>
                    <path d="M9.21235787,35.9801661 C10.6668978,35.9880391 13.7186973,35.1159988 14.799045,34.4011319 C14.9251595,34.3176782 15.0189223,34.133021 15.0577157,33.9777085 C15.8501902,30.8203556 16.6359366,27.6612851 17.4135235,24.5002105 C17.5787178,23.8284302 17.7857117,23.1529282 17.8316626,22.4695532 C17.8873476,21.6433194 17.5638303,21.4963093 16.8400675,21.9110008 C13.5817035,23.7770411 10.8814785,26.2677669 8.61742945,29.2467609 C7.59291002,30.594902 6.79843149,32.0607085 6.42023108,33.7214786 C6.18016973,34.776029 6.74417791,35.5995431 7.80806339,35.7929323 C8.31652965,35.8855472 8.83358487,35.930781 9.21235787,35.9801661 M0.0696993865,11.917894 C0.198676892,11.1367508 0.957511247,10.963402 1.68871779,10.8003597 C4.79834969,10.1069645 7.91657055,9.45150282 11.0240552,8.74894637 C15.9365092,7.63842621 20.8329305,6.45561774 25.7542597,5.38689597 C32.0160389,4.02701694 38.2862638,2.70120645 44.5726646,1.46099677 C47.2269387,0.937371774 49.9210082,0.528262903 52.6165092,0.323994758 C55.4255276,0.111137903 58.2638916,0.082508871 61.0782065,0.212770968 C62.9835235,0.300948387 64.9303538,0.606133871 66.7500675,1.16611774 C69.4759162,2.00509153 70.5688609,4.61534355 69.5082679,7.27254718 C68.6682679,9.37706734 67.1845256,11.0415593 65.5066728,12.5002085 C59.863728,17.4057931 53.3883701,20.975404 46.5860593,23.9628435 C37.812726,27.816025 28.993728,31.5652831 20.1933395,35.3569121 C19.7859366,35.5324081 19.372092,35.6947347 18.9546687,35.844894 C17.7152822,36.2907911 17.0882883,37.2687589 16.8180225,38.4635915 C15.4602515,44.4650956 14.1083497,50.4684605 12.8124192,56.4837065 C12.0034826,60.2385472 11.3258139,64.0215875 10.5244642,67.778146 C10.3304969,68.6876903 9.91121268,69.5565815 9.52828834,70.4141641 C9.41706135,70.6630935 9.07192843,70.8076702 8.83401431,71.0000573 C8.65507771,70.7569968 8.40227607,70.539273 8.30937219,70.2670109 C7.8261002,68.8503032 7.75581391,67.3671762 8.05213292,65.9307145 C9.3672454,59.5543133 10.7547914,53.1927992 12.1105583,46.8248435 C12.6586769,44.249519 13.1973476,41.6720472 13.7268569,39.0927145 C13.8050164,38.712521 13.8085951,38.3170109 13.8559775,37.8327508 C12.9495562,37.9584323 12.0770613,38.0685109 11.2082883,38.2023516 C9.89747035,38.4044726 8.59123313,38.5116883 7.2672454,38.2863778 C5.33830879,37.9580028 4.49143763,36.5269806 4.44276687,34.906148 C4.36804294,32.420146 5.19501636,30.1930935 6.74203067,28.2776681 C8.54957669,26.0397367 10.4352822,23.8663637 12.8192904,22.1891319 C14.0602515,21.3162327 15.2907628,20.420144 16.4557117,19.4501923 C17.1738916,18.852275 17.8091881,18.1346883 18.3915194,17.3993516 C19.0285337,16.5948758 19.7147914,16.3028597 20.5527873,16.6574302 C21.3836258,17.0088516 21.7676953,17.7396077 21.5491063,18.7234444 C20.669454,22.6816944 19.762317,26.6337891 18.8769387,30.5907508 C18.6879816,31.4347347 18.5468364,32.2895976 18.345998,33.3358456 C19.3915603,32.9725431 20.3061411,32.7042891 21.1819284,32.3425613 C28.5880429,29.2825472 36.0160593,26.2730633 43.3787996,23.1121319 C49.3064683,20.5672972 54.9834826,17.531904 60.213728,13.7173718 C62.8966319,11.7605774 65.2179407,9.46324073 66.9584928,6.61422258 C67.0515399,6.46205927 67.1434417,6.30875081 67.227184,6.15129113 C67.7526851,5.16172863 67.6686564,4.82934556 66.6981043,4.23872863 C65.5813967,3.55921855 64.3305583,3.26476895 63.0605378,3.06407944 C59.9149755,2.56693629 56.7427873,2.58482944 53.5939325,2.8877246 C50.1716626,3.21695847 46.7549755,3.67387782 43.3646278,4.24588589 C38.7838507,5.01872661 34.2069387,5.84696452 29.6711104,6.84525887 C22.9095971,8.33353911 16.189454,10.0091964 9.44254192,11.5654706 C7.37360532,12.0427165 5.38411656,12.6897327 3.62223517,13.8851379 C2.90548671,14.371402 2.24012883,14.3008315 1.51607975,14.0403073 C1.36591616,13.9863415 1.21832924,13.9240734 1.03652965,13.852644 C1.03652965,13.852644 0.0140143149,13.0513173 0.0696993865,11.917894" id="Fill-3" fill="#231916" mask="url(#mask-2)"></path>
                </g>
                <path d="M92.3613542,42.2049863 C92.6163649,41.8949068 92.9169861,41.4869846 93.261032,41.1199278 C93.9100707,40.4275586 95.601739,40.2230848 96.3304868,40.8174648 C96.6293593,41.0611929 96.9181772,41.5524572 96.8955905,41.9108722 C96.8457541,42.6961042 96.6835673,43.5025745 96.4042213,44.2380063 C95.9720145,45.3757945 95.3951074,46.4577771 94.8989294,47.5721298 C94.7673439,47.8674157 94.7059956,48.1943394 94.6124431,48.506616 C94.6724799,48.5391326 94.732371,48.5715027 94.7922621,48.6038728 C94.9850502,48.3800649 95.2163085,48.1791064 95.3637775,47.9283478 C95.9084804,47.0029428 96.4467716,46.0722649 96.9422211,45.1197628 C97.1299089,44.7588579 97.3381434,44.6116543 97.7065246,44.7672067 C98.1181848,44.9415074 98.0256523,45.2514404 97.857491,45.5394028 C97.1154826,46.8109191 96.3983925,48.0995726 95.5962016,49.3321276 C95.3202071,49.7564546 94.8630822,50.1035913 94.4192178,50.3681182 C93.1110857,51.1480773 91.656796,50.3628453 91.7145012,48.8404238 C91.7522428,47.8411974 92.013811,46.8262986 92.3276927,45.8688165 C92.6431774,44.9062079 93.1495559,44.0071678 93.5676277,43.0781011 C93.6466082,42.902775 93.7032934,42.7173425 93.7286488,42.5182882 C92.8177505,43.5592589 92.1338846,44.7428925 91.687543,46.031546 C91.2063742,47.4211181 90.8309984,48.8506768 90.4732548,50.2787708 C90.3470609,50.7824852 90.2089179,51.0188897 89.6340509,50.9988231 C88.739619,50.9676248 88.0461356,50.5142965 87.3963683,50.0149762 C87.1467492,49.8232454 87.0004459,49.3482394 87.0000087,49.001835 C86.9973858,47.3938744 87.5858048,45.9369256 88.2858457,44.5249434 C88.9468334,43.1916162 89.5859632,41.8629761 89.2060701,40.298078 C89.1877093,40.2229383 89.4398056,39.9799426 89.5053798,40.0013274 C90.3163139,40.2667332 91.1721299,40.4717929 91.891843,40.9024181 C92.1985845,41.0859465 92.2149051,41.7595675 92.3613542,42.2049863" id="Fill-6" fill="#231916"></path>
                <path d="M114.308076,43.2531573 C114.243748,43.129593 114.18477,42.8497691 114.047748,42.7951298 C113.879316,42.7278248 113.59814,42.7801077 113.448362,42.8998428 C112.768053,43.4437321 112.479333,44.249625 112.318582,45.1050024 C112.290876,45.2525727 112.418983,45.5268001 112.542837,45.5904233 C112.695358,45.668774 112.971185,45.6652393 113.102995,45.5627354 C113.799627,45.0210553 114.1775,44.2622907 114.308076,43.2531573 M112.003939,46.2409402 C112.003939,47.192636 111.933302,48.0770268 112.023827,48.9419772 C112.115038,49.8134077 112.596192,50.0259266 113.349059,49.6642174 C114.401892,49.1584725 115.164086,48.2908712 115.801602,47.3010309 C116.218017,46.6546377 116.526762,45.9291575 116.930147,45.2717186 C117.068266,45.0468285 117.327086,44.8338678 117.566291,44.7709811 C117.906446,44.6814374 118.09504,44.9105985 117.951434,45.2941045 C117.083902,47.6095736 115.969484,49.7662795 113.986849,51.1869012 C111.943452,52.6511166 110.324151,52.1276987 109.467729,49.6982381 C108.479909,46.8961699 109.140193,44.3210537 110.6665,41.940636 C111.265474,41.0063187 112.051671,40.3235484 113.117397,40.072296 C114.653717,39.7099977 116.359016,40.7512371 116.678734,42.2597825 C116.708635,42.4010199 116.743336,42.5568376 116.717825,42.6936568 C116.401673,44.3892424 115.693932,45.8114841 114.192862,46.6191443 C113.280616,47.1100143 112.893416,47.0250362 112.003939,46.2409402" id="Fill-8" fill="#231916"></path>
                <g id="Group-12" transform="translate(97.000000, 55.000000)" fill="#656666">
                    <path d="M27.4287257,1.07012162 C31.9446447,0.898635135 36.4605637,0.727418919 40.9764827,0.555932432 C40.9838454,0.601337838 40.9910637,0.646608108 40.9985708,0.692013514 C40.829518,0.724716216 40.6567116,0.745527027 40.4922785,0.792148649 C38.8795637,1.24971622 37.208525,1.11782432 35.5613067,1.22147297 C32.3806306,1.42174324 29.1944687,1.55998649 26.0189898,1.81539189 C22.6660849,2.08498649 19.314768,2.40255405 15.9774546,2.80458108 C11.0362327,3.39985135 6.10771514,4.08741892 1.17428908,4.73890541 C0.998017958,4.76214865 0.827232746,4.8207973 0.63349331,4.86782432 C0.547595423,4.54282432 0.46949331,4.21795946 0.374789085,3.89741892 C0.28917993,3.60768919 0.185525,3.32282432 0.0850461268,3.02187838 C13.6671623,0.902554054 27.2684792,0.505527027 40.8631553,0.0348513514 C38.6253349,0.162013514 36.3862151,0.272418919 34.1501271,0.421067568 C31.8954158,0.570932432 29.6435919,0.758635135 27.3904687,0.929851351 C27.4031729,0.976608108 27.4160215,1.02336486 27.4287257,1.07012162" id="Fill-10"></path>
                </g>
                <path d="M102.471709,46.0731196 C102.584381,45.7173995 102.715855,45.4174641 102.771714,45.1019919 C102.892016,44.4231052 103.025669,43.7377077 103.044198,43.0514225 C103.051146,42.791883 102.794466,42.3623258 102.587242,42.3031378 C102.38247,42.2449856 102.024699,42.4960908 101.844996,42.717454 C101.256566,43.4422115 101.005745,44.3479364 100.837077,45.2779283 C100.634485,46.3958423 100.594703,47.519971 100.922228,48.6140618 C101.012693,48.9159208 101.318557,49.3999309 101.456978,49.3737402 C101.758482,49.3166237 102.047724,49.0180201 102.279063,48.7531537 C102.416803,48.5955655 102.472526,48.3198973 102.499094,48.0881761 C102.554544,47.604314 102.820352,47.5730923 103.155099,47.6871772 C103.867508,47.930292 104.266289,48.5812124 104.612207,49.2090495 C104.750084,49.4592669 104.629374,49.9817493 104.478554,50.2969255 C103.745844,51.827824 101.924152,52.4123058 100.25219,51.6968705 C98.9659293,51.1464218 98.215917,50.1202493 98.0683669,48.6322621 C97.8281723,46.2102878 98.1986143,43.9237061 99.534876,41.9076138 C100.530124,40.4060134 102.147044,39.7117378 103.578675,40.111257 C104.874201,40.4727479 105.979941,41.970797 105.999696,43.3908659 C106.011549,44.2465769 105.677211,44.7175656 104.925428,44.977697 C104.696814,45.0567131 104.468881,45.1981725 104.288769,45.3704096 C103.793665,45.8439139 103.171175,46.1246131 102.471709,46.0731196" id="Fill-13" fill="#231916"></path>
                <path d="M121.790224,43.8314821 C121.531564,44.4942744 121.338525,45.038379 121.108028,45.5648949 C120.885049,46.0743941 120.623654,46.5653037 120.373743,47.0755179 C119.936809,46.861165 119.737756,46.6243615 119.884038,46.1936538 C120.558579,44.2069929 121.267161,42.2450705 122.783306,40.7420264 C123.195905,40.3327682 123.681099,39.8781799 124.193225,40.0299 C124.80228,40.2103626 125.350772,40.6761046 125.871374,41.0922266 C126.102419,41.2769791 126.011642,41.5293693 125.683668,41.6833773 C124.599672,42.1920185 124.129243,43.157536 124.449698,44.3425543 C124.675274,45.1768003 125.083225,45.9568503 125.310989,46.7906673 C125.518519,47.5505548 125.743821,48.3602052 125.697066,49.1303885 C125.570333,51.2122855 123.770372,52.4484968 121.86651,51.8481943 C120.76898,51.502141 119.878296,50.8203301 119.267464,49.8029046 C119.089737,49.5067572 118.997456,49.104935 119.000053,48.7525897 C119.003061,48.3244559 119.360018,48.1771688 119.686352,48.4494355 C120.05739,48.7591676 120.368138,49.1471191 120.735349,49.4627141 C121.423971,50.0548657 121.919008,49.934748 122.310006,49.0831994 C122.817894,47.9766866 122.59724,46.8518702 122.329693,45.7380645 C122.189152,45.1533487 122.003907,44.5803587 121.790224,43.8314821" id="Fill-15" fill="#231916"></path>
                <path d="M131.839604,43.8738117 C131.706345,44.1626775 131.601415,44.377894 131.506524,44.5976957 C131.219515,45.2631188 130.952446,45.9388584 130.640682,46.591529 C130.562156,46.7558787 130.34597,46.849015 130.192908,46.9748207 C130.089491,46.7351022 129.856252,46.4589889 129.906723,46.2622563 C130.069412,45.6290728 130.350096,45.0298481 130.561469,44.4088439 C131.045686,42.9854347 131.811137,41.7467219 132.85906,40.7143418 C133.168761,40.4092846 133.585317,40.1886232 133.990047,40.0347334 C134.211733,39.9504808 134.531748,40.0333005 134.76925,40.1361803 C135.076338,40.2691503 135.350834,40.4889519 135.62973,40.6861143 C136.13155,41.0411786 136.121236,41.4281957 135.611302,41.7076046 C134.640116,42.2396278 134.190417,43.1966392 134.496268,44.3122688 C134.725243,45.1479163 135.13121,45.9309777 135.357572,46.7671984 C135.568257,47.5458179 135.801358,48.3741578 135.751437,49.1619476 C135.622303,51.2006296 133.860913,52.4154136 131.972039,51.869205 C130.858105,51.5469534 129.967095,50.8680614 129.324452,49.8676342 C129.158875,49.6098616 129.042806,49.288613 129.003474,48.9826961 C128.978857,48.7902621 129.088188,48.4800466 129.232449,48.3927851 C129.360208,48.315267 129.661383,48.4159975 129.811557,48.5377911 C130.147663,48.8098924 130.42037,49.1656731 130.749325,49.4488074 C131.457016,50.0579188 131.971351,49.9312535 132.363153,49.0531931 C132.851634,47.9587699 132.636136,46.8485852 132.374293,45.7500067 C132.231682,45.1509253 132.038462,44.5648831 131.839604,43.8738117" id="Fill-17" fill="#231916"></path>
                <path d="M77,44.3945349 C76.2488359,44.7649146 75.3730724,45.0381097 74.4808955,44.8476745 C74.1399244,44.7749682 73.8730277,44.2556789 73.6132674,43.9081747 C73.47882,43.7283759 73.4338615,43.4790763 73.3271028,43.2067554 C73.2083552,43.2839786 73.0913204,43.346777 72.9892716,43.4289541 C71.297404,44.7921612 70.4337722,46.6475567 70.0554069,48.7505033 C69.9569264,49.2979134 70.0662541,49.9050622 70.1782936,50.4642743 C70.2615025,50.8804051 70.1496057,51.0180954 69.7819449,50.998134 C69.4650944,50.9809409 69.1339713,50.9739471 68.8381014,50.8738484 C68.3917989,50.7227533 67.9579135,50.5183305 67.5421542,50.2920521 C67.0948526,50.0485807 67.0083609,49.5853875 67.0007965,49.119863 C66.9773895,47.6488349 67.4732178,46.3103975 68.0489723,44.996584 C68.3461267,44.3187688 68.6948051,43.6622263 68.9544227,42.9704235 C69.2669915,42.1375791 69.4966367,41.2770509 69.2542889,40.3669834 C69.2285983,40.2705273 69.2634233,40.157461 69.2692751,40.0688729 C69.3246525,40.0341954 69.3600485,39.9942725 69.3825991,40.0006834 C70.1871425,40.2295845 71.0309355,40.3760171 71.7749634,40.7364889 C72.0926703,40.8902067 72.201998,41.491673 72.4237933,41.9245598 C72.6403079,41.7217397 72.9575866,41.4263976 73.2731526,41.1288699 C74.4002556,40.0665417 74.9010793,40.1650376 75.568749,41.5908975 C75.7371651,41.9507865 75.8619071,42.3328225 76.0443103,42.6845521 C76.327763,43.2312337 76.6433291,43.7605765 77,44.3945349" id="Fill-19" fill="#231916"></path>
                <path d="M81.9159593,48.9338206 C82.079721,48.7278831 82.2826289,48.5448745 82.40072,48.3120694 C82.9458963,47.237931 83.4541447,46.1418484 84.0091076,45.0738993 C84.1191085,44.8620538 84.3559431,44.6523183 84.5696815,44.5953479 C84.8743695,44.5141826 85.1066371,44.7143527 84.9493998,45.0845901 C84.3218859,46.5608974 83.7019403,48.0428315 83.0112705,49.4849566 C82.8051004,49.9155404 82.4106371,50.2683349 82.0443589,50.5769598 C81.4258487,51.0982743 80.7311338,51.1116377 80.0215434,50.7599685 C79.3124749,50.4085806 79.0533269,49.7631973 79.0111795,48.9813663 C78.9146188,47.187572 79.4612305,45.5347267 79.9697399,43.8695026 C80.1812599,43.1772769 80.3370619,42.4619818 80.4705505,41.7468272 C80.5560197,41.2886726 80.527182,40.8063231 80.6080842,40.3467618 C80.6330073,40.2041247 80.8646224,39.9845425 80.9763196,40.0008599 C81.3390746,40.0543137 81.7200978,40.1394176 82.0399224,40.3224263 C83.0202742,40.8832683 83.4117363,41.7393719 83.1297531,42.9033969 C82.7694774,44.389973 82.2935899,45.8436329 81.9044765,47.3228943 C81.7763378,47.8097451 81.7630281,48.3317629 81.6972625,48.8376039 C81.7700744,48.8696761 81.8430169,48.9017484 81.9159593,48.9338206" id="Fill-21" fill="#231916"></path>
                <path d="M133,53.5894205 C131.912072,53.6807807 130.825684,53.8128711 129.735935,53.8565713 C125.735753,54.0166637 121.729549,54.0660209 117.735109,54.3130893 C113.918817,54.5492681 110.113028,54.9649146 106.305418,55.330921 C104.326476,55.5212783 102.353555,55.775418 100.384276,56 C100.271953,55.6540758 100.15571,55.3077274 100.047729,54.9588333 C99.9573953,54.6663676 99.9614568,54.4555037 100.365088,54.421279 C102.331567,54.2546811 104.302527,54.1191964 106.260181,53.8773607 C110.083337,53.4052859 113.926379,53.3448977 117.766481,53.2177571 C119.632962,53.1562375 121.501123,53.1392665 123.368444,53.1070218 C125.570911,53.0686957 127.773378,53.035461 129.975705,53.0009534 C130.181302,52.9977007 130.386899,53.0005292 130.591656,53.0459264 C127.615399,53.1708042 124.639141,53.2955405 121.662884,53.4204183 C121.664144,53.4557744 121.665265,53.4909891 121.666525,53.5263452 L132.992157,53.5263452 C132.994818,53.547276 132.997339,53.5684897 133,53.5894205" id="Fill-23" fill="#656666"></path>
                <path d="M85,39.1543659 C84.841284,39.7055559 84.7146996,40.158324 84.579641,40.6094241 C84.4772435,40.9516762 84.1527497,41.0933313 83.7931229,40.9359676 C82.9029715,40.5467288 82.038243,40.117871 81.1961126,39.667049 C81.0462239,39.58656 80.9932597,39.3218776 81.0006747,39.145191 C81.0257444,38.5589695 81.0944213,37.9737211 81.1553301,37.3887507 C81.1892272,37.0622071 81.4076162,36.960727 81.8258567,37.0129962 C82.8907898,37.1458935 83.7523405,37.6049173 84.5095517,38.1419278 C84.8296319,38.3689375 84.8621166,38.8471452 85,39.1543659" id="Fill-25" fill="#231916"></path>
            </g>
        </g>
    </g>
</svg>