<?xml version="1.0" encoding="UTF-8"?>
<svg width="42px" height="33px" viewBox="0 0 42 33" version="1.1" xmlns="http://www.w3.org/2000/svg" xmlns:xlink="http://www.w3.org/1999/xlink">
    <!-- Generator: Sketch 47.1 (45422) - http://www.bohemiancoding.com/sketch -->
    <title>membericon-03</title>
    <desc>Created with Sketch.</desc>
    <defs></defs>
    <g id="Page-1" stroke="none" stroke-width="1" fill="none" fill-rule="evenodd">
        <g id="member-m" transform="translate(-279.000000, -470.000000)" fill-rule="nonzero" fill="#7CAFBF">
            <g id="Group-Copy" transform="translate(40.000000, 421.000000)">
                <g id="membericon-03" transform="translate(239.000000, 49.000000)">
                    <path d="M40.95,22.6875 L39.9,22.6875 L39.9,15.7201172 C39.9,14.9015625 39.5653125,14.1152344 38.9746875,13.5351562 L32.41875,7.09628906 C31.828125,6.51621094 31.0275,6.1875 30.1940625,6.1875 L27.3,6.1875 L27.3,3.09375 C27.3,1.38574219 25.8890625,0 24.15,0 L3.15,0 C1.4109375,0 0,1.38574219 0,3.09375 L0,23.71875 C0,25.4267578 1.4109375,26.8125 3.15,26.8125 L4.2,26.8125 C4.2,30.2285156 7.021875,33 10.5,33 C13.978125,33 16.8,30.2285156 16.8,26.8125 L25.2,26.8125 C25.2,30.2285156 28.021875,33 31.5,33 C34.978125,33 37.8,30.2285156 37.8,26.8125 L40.95,26.8125 C41.5275,26.8125 42,26.3484375 42,25.78125 L42,23.71875 C42,23.1515625 41.5275,22.6875 40.95,22.6875 Z M10,30 C8.34375,30 7,28.65625 7,27 C7,25.34375 8.34375,24 10,24 C11.65625,24 13,25.34375 13,27 C13,28.65625 11.65625,30 10,30 Z M31,30 C29.34375,30 28,28.65625 28,27 C28,25.34375 29.34375,24 31,24 C32.65625,24 34,25.34375 34,27 C34,28.65625 32.65625,30 31,30 Z M36,16 L27,16 L27,9 L29.75625,9 L36,15.24375 L36,16 Z" id="Shape"></path>
                </g>
            </g>
        </g>
    </g>
</svg>