<?xml version="1.0" encoding="UTF-8"?>
<svg width="37px" height="37px" viewBox="0 0 37 37" version="1.1" xmlns="http://www.w3.org/2000/svg" xmlns:xlink="http://www.w3.org/1999/xlink">
    <!-- Generator: Sketch 47.1 (45422) - http://www.bohemiancoding.com/sketch -->
    <title>membericon-02</title>
    <desc>Created with Sketch.</desc>
    <defs>
        <polygon id="path-1" points="0.00216604274 0.0669138027 16.1817118 0.0669138027 16.1817118 8.07858403 0.00216604274 8.07858403"></polygon>
    </defs>
    <g id="Page-1" stroke="none" stroke-width="1" fill="none" fill-rule="evenodd">
        <g id="member-m" transform="translate(-104.000000, -464.000000)">
            <g id="membericon-02" transform="translate(104.000000, 464.000000)">
                <path d="M30.9522117,37 L2.43086256,37 C2.40087697,36.9822419 2.37299229,36.9560822 2.34061932,36.947967 C0.818898817,36.5676962 0.00107550832,35.5294223 0.000884517351,33.9665217 C-7.04374704e-05,27.250823 -0.000643410363,20.5351242 0.00126649928,13.8194255 C0.00174397669,12.0633821 1.20240867,10.8346387 2.94921203,10.8335885 C12.1078972,10.8277646 21.2666779,10.8279555 30.4254586,10.8333975 C32.1787557,10.8343523 33.377606,12.0551714 33.3818078,13.8103555 C33.3853411,15.2749184 33.3743591,16.7396723 33.3894474,18.2040442 C33.3925033,18.4940926 33.3276618,18.5856516 33.0222673,18.582501 C31.4622531,18.5660796 29.9018569,18.5616878 28.3418427,18.5778228 C24.9135549,18.6132435 22.4092814,21.7742743 23.1522362,25.1129812 C23.6993298,27.5711364 25.8348953,29.2704686 28.4276931,29.2919501 C29.9758659,29.3046481 31.5242297,29.29596 33.0724979,29.2890859 C33.2833519,29.2882266 33.3924078,29.3150547 33.3902114,29.5729285 C33.3771285,31.1207443 33.4079735,32.6693238 33.3715898,34.2164712 C33.344851,35.3579519 32.7800907,36.2039423 31.750363,36.7134841 C31.4987324,36.838077 31.2190261,36.9060541 30.9522117,37" id="Fill-1" fill="#7CAFBF"></path>
                <path d="M28.557847,24.058386 C29.1641039,24.0629612 29.6568469,23.6094601 29.6678163,23.0369114 C29.6788837,22.4608147 29.1632225,21.9618421 28.5618626,21.9667907 C27.9727453,21.9715526 27.4717753,22.4531583 27.4704041,23.0158096 C27.468935,23.5872378 27.9558014,24.0539042 28.557847,24.058386 L28.557847,24.058386 Z M37,25.3774328 C36.7284086,25.9764987 36.2489857,26.1781792 35.5727986,26.1705228 C33.1916483,26.143352 30.8097146,26.17183 28.4285644,26.1460597 C27.0378951,26.131027 25.8150973,25.2024562 25.413048,23.9329893 C24.7872027,21.9571735 26.2623954,19.9384073 28.4567715,19.8863999 C30.9345898,19.8276698 33.4148567,19.8645512 35.8940462,19.8710871 C36.4679826,19.8726744 36.7997099,20.2144109 37,20.6948028 L37,25.3774328 Z" id="Fill-3" fill="#7CAFBF"></path>
                <g id="Group-7" transform="translate(4.512195, 0.000000)">
                    <mask id="mask-2" fill="white">
                        <use xlink:href="#path-1"></use>
                    </mask>
                    <g id="Clip-6"></g>
                    <path d="M6.00752998,8.07056142 C4.38987501,8.07056142 2.77222005,8.06142422 1.15486222,8.07849878 C0.849199524,8.0818214 0.72113022,7.98841896 0.633274479,7.72907029 C0.474004997,7.25855089 0.267390482,6.80206031 0.0969285544,6.33458664 C-0.184962582,5.56189374 0.175572814,4.82759551 0.998564188,4.54692672 C5.30418882,3.07851486 9.61189346,1.61517921 13.9224705,0.159411752 C14.7281284,-0.112765909 15.5076377,0.232786197 15.8301385,0.970960809 C15.9463221,1.23667783 16.0315035,1.51420859 16.1486775,1.77946414 C16.2291046,1.96165427 16.1589785,1.99571109 15.9785127,1.99303453 C15.5958896,1.98721996 15.2127712,1.9864816 14.8302471,1.99709551 C12.8570092,2.05238016 11.280162,3.52863708 11.2416323,5.36687461 C11.2249922,6.16051846 11.2260817,6.95490067 11.2437123,7.74845222 C11.2493581,8.00447827 11.1796281,8.07923714 10.8972418,8.07692977 C9.26750291,8.06391619 7.63746692,8.07056142 6.00752998,8.07056142" id="Fill-5" fill="#7CAFBF" mask="url(#mask-2)"></path>
                </g>
                <path d="M23.4502709,9.01699545 C21.4674697,9.01699545 19.4846685,9.01025364 17.5020599,9.02435958 C17.2120725,9.02633026 17.1401055,8.93370815 17.1467531,8.6336457 C17.1650579,7.80616619 17.1497396,6.97785692 17.1539787,6.14985881 C17.1590848,5.16348 17.7457072,4.51823682 18.6630695,4.5165773 C21.8594826,4.51066525 25.0559921,4.51087269 28.2524052,4.51636986 C29.1884577,4.51802938 29.7686253,5.16202791 29.7725753,6.17765581 C29.7756582,7.0055502 29.7601473,7.83396319 29.7800899,8.66133899 C29.7873155,8.96109028 29.6970437,9.02467074 29.4345135,9.02321866 C27.4398623,9.01191316 25.4451148,9.01699545 23.4502709,9.01699545" id="Fill-8" fill="#7CAFBF"></path>
            </g>
        </g>
    </g>
</svg>