<?xml version="1.0" encoding="UTF-8"?>
<svg width="139px" height="157px" viewBox="0 0 139 157" version="1.1" xmlns="http://www.w3.org/2000/svg" xmlns:xlink="http://www.w3.org/1999/xlink">
    <!-- Generator: Sketch 47.1 (45422) - http://www.bohemiancoding.com/sketch -->
    <title>Page 1</title>
    <desc>Created with Sketch.</desc>
    <defs>
        <path d="M120.904243,108.206531 C120.904243,108.206531 111.19326,114.689943 112.002509,127.454161 C112.811757,140.218379 103.707711,141.434019 103.707711,141.434019 C103.707711,141.434019 81.4533757,135.153213 65.6730289,159.060796 C49.6895607,183.275531 39.7770751,160.884256 39.7770751,160.884256 L56.9736069,149.335678 C56.9736069,149.335678 58.2384624,147.360668 57.1257457,144.169209 C56.0130289,140.978559 46.2510636,117.526436 46.2510636,117.526436 L27.6383468,69.3060569 L0.528520231,36.0785687 L31.2799653,0.419800948 L125.557422,7.71363981 L139.719272,61.6070047 L127.985168,98.8866256 L120.904243,108.206531 Z" id="path-1"></path>
    </defs>
    <g id="Page-1" stroke="none" stroke-width="1" fill="none" fill-rule="evenodd">
        <g id="About" transform="translate(-1056.000000, -868.000000)">
            <g id="Page-1" transform="translate(1039.000000, 847.000000)">
                <g id="Group-13" transform="translate(24.000000, 80.000000)" stroke="#000000" stroke-linecap="round" stroke-linejoin="round">
                    <path d="M99.3264368,80.63125 C99.3264368,80.63125 94.6699951,71.3354167 100.743615,58.2 C106.817234,45.0645833 108.436866,33.34375 124.835639,25.6645833 C141.233602,17.9854167 122.269333,8.30805 119.976744,19.4 C117.344842,32.13125 97.9092589,17.9854167 88.7988294,39.40625 C85.8049399,46.4444083 92.8479092,63.8583333 74.4245963,61.8375 C61.1225595,60.3784583 46.283492,69.415625 40.0074184,82.753125" id="Stroke-1"></path>
                    <path d="M29.0242896,69.5671875 C30.6455411,69.2818458 32.0732466,69.0611708 33.8078724,68.8194792" id="Stroke-3"></path>
                    <path d="M97.6356221,70.7079075 C109.586886,73.4125908 117.142469,77.3984825 117.142469,81.8435075 C117.142469,89.9906992 91.762027,96.5955908 60.4553521,96.5955908 C29.1478675,96.5955908 3.76823558,89.9906992 3.76823558,81.8435075 C3.76823558,78.6829242 7.58813742,75.7543325 14.0917693,73.3527742" id="Stroke-5"></path>
                    <path d="M28.2650871,72.14375 C28.2650871,72.14375 31.9092589,62.0395833 22.5963755,56.9875 C16.6296515,53.7509333 4.98287853,46.8833333 8.62705031,40.4166667 C11.6565718,35.0396333 3.54059632,30.6948417 0.933798773,36.5770833 C-3.72264294,47.0854167 13.921627,49.8968 14.9031239,63.8583333 C15.7129399,75.3770833 10.6515902,80.63125 10.6515902,80.63125" id="Stroke-7"></path>
                    <path d="M121.191467,4.44583333 C121.191467,6.67845 119.37829,8.4875 117.142388,8.4875 C114.905676,8.4875 113.093308,6.67845 113.093308,4.44583333 C113.093308,2.214025 114.905676,0.404166667 117.142388,0.404166667 C119.37829,0.404166667 121.191467,2.214025 121.191467,4.44583333 Z" id="Stroke-9"></path>
                    <path d="M13.283492,27.6854167 C13.283492,29.136375 12.1052098,30.3125 10.6515902,30.3125 C9.19797055,30.3125 8.01968834,29.136375 8.01968834,27.6854167 C8.01968834,26.2344583 9.19797055,25.0583333 10.6515902,25.0583333 C12.1052098,25.0583333 13.283492,26.2344583 13.283492,27.6854167 Z" id="Stroke-11"></path>
                </g>
                <g id="Group-28">
                    <mask id="mask-2" fill="white">
                        <use xlink:href="#path-1"></use>
                    </mask>
                    <g id="Mask"></g>
                    <g mask="url(#mask-2)" stroke-linecap="round" stroke="#000000" stroke-linejoin="round">
                        <g transform="translate(17.803468, 21.693498)">
                            <path d="M87.7882543,112.060514 C95.1710289,104.694547 101.488832,94.0560782 102.696231,79.2195995 C106.034382,38.1917559 50.5757688,-9.82601659 3.84166474,2.63429147 C3.84166474,2.63429147 3.95981503,4.56067536 6.34467052,8.48476066 C8.46894798,11.9793199 9.22802312,15.2469597 9.22802312,15.2469597 C9.22802312,15.2469597 6.72420809,17.0193626 0.578774566,15.0945995 C0.578774566,15.0945995 -3.74504046,23.3763483 26.2222428,39.1034858 C60.0148439,56.8380498 80.2395838,98.3659265 58.9968092,114.777064 C58.9968092,114.777064 49.892763,106.875405 38.3609711,107.179315 C38.3609711,107.179315 35.9332254,113.865334 39.5748439,121.766993 C43.2164624,129.668652 33.808948,138.48204 25.9187746,140.3055 C25.9187746,140.3055 42.9129942,146.991519 58.0864046,128.149102 C58.0864046,128.149102 64.459237,127.085012 72.5768092,122.754092" id="Stroke-14"></path>
                            <path d="M22.4288092,10.1561033 C22.4288092,11.5403118 21.3071908,12.663563 19.9249942,12.663563 C18.5419884,12.663563 17.4219884,11.5403118 17.4219884,10.1561033 C17.4219884,8.77108436 18.5419884,7.6486436 19.9249942,7.6486436 C21.3071908,7.6486436 22.4288092,8.77108436 22.4288092,10.1561033 Z" id="Stroke-16"></path>
                            <path d="M76.5978844,24.819718 C76.5978844,24.819718 104.971757,22.0845284 112.407133,31.505737 C112.407133,31.505737 104.061353,31.505737 101.026671,40.4706754 C97.9919884,49.4364242 102.999618,55.666173 97.840659,53.5388033" id="Stroke-18"></path>
                            <path d="M49.5892139,43.5097749 C49.5892139,43.5097749 65.8243584,47.0043341 75.5361503,57.4896327 C80.4377688,62.7825284 80.2289827,63.8069076 74.7770751,63.1115616 C66.4312948,62.048282 63.3966127,67.3663009 59.7558035,63.8717417 C56.114185,60.376372 48.830948,53.0833436 46.0997341,48.5238839" id="Stroke-20"></path>
                            <path d="M27.4360347,40.0148104 C27.4360347,40.0148104 23.490948,60.0728673 38.057422,72.2292654 C38.057422,72.2292654 36.5400809,64.4791564 39.4234335,60.2244171 C41.4829711,57.1836967 43.2163815,53.6907583 43.065052,50.9555687" id="Stroke-22"></path>
                            <path d="M67.3041503,91.9454844 C67.3041503,91.9454844 58.5416069,97.7578635 56.4173295,105.963432 C55.0950173,111.06993 56.7968671,104.975522 65.5974451,106.039612" id="Stroke-24"></path>
                            <path d="M83.4259191,99.7331161 C83.4259191,99.7331161 83.2745896,108.698865 77.0530867,113.712974 C70.8315838,118.727083 71.0371329,119.315453 73.7149364,124.957642 C77.3565549,132.631571 87.674474,124.045912 87.8258035,110.522325 C87.9277688,101.39368 83.4259191,99.7331161 83.4259191,99.7331161 Z" id="Stroke-26"></path>
                        </g>
                    </g>
                </g>
            </g>
        </g>
    </g>
</svg>