<?xml version="1.0" encoding="UTF-8"?>
<svg width="24px" height="22px" viewBox="0 0 24 22" version="1.1" xmlns="http://www.w3.org/2000/svg" xmlns:xlink="http://www.w3.org/1999/xlink">
    <!-- Generator: Sketch 47.1 (45422) - http://www.bohemiancoding.com/sketch -->
    <title>share-square-solid</title>
    <desc>Created with Sketch.</desc>
    <defs></defs>
    <g id="Page-1" stroke="none" stroke-width="1" fill="none" fill-rule="evenodd">
        <g id="Artboard-3" transform="translate(-203.000000, -36.000000)" fill-rule="nonzero" fill="#7CAFBF">
            <g id="share-square-solid" transform="translate(203.440000, 36.440000)">
                <path d="M22.4728041,7.30702822 L16.7801855,12.9066685 C16.1801406,13.4969604 15.18,13.0593167 15.18,12.1881883 L15.18,9.2248695 C9.46476953,9.26481251 7.05371906,10.6707655 8.66623828,16.2809063 C8.84345687,16.8974699 8.15841984,17.3748919 7.67771984,16.9945274 C6.13730562,15.7756477 4.74375,13.4442521 4.74375,11.0909496 C4.74375,5.16385892 9.39258546,3.98768122 15.18,3.95424438 L15.18,0.988784268 C15.18,0.11687352 16.1808126,-0.319370102 16.7801855,0.270304116 L22.4728041,5.87006792 C22.8689072,6.25973881 22.8692234,6.91702791 22.4728041,7.30702822 Z M15.18,15.6118813 L15.18,18.4479178 L2.53,18.4479178 L2.53,5.27084032 L4.54277312,5.27084032 C4.67185335,5.27075475 4.79531673,5.21583477 4.88463937,5.11876861 C5.47575015,4.47770379 6.15900828,3.97030395 6.90128656,3.56733244 C7.34126937,3.32845674 7.1782425,2.63542482 6.68208578,2.63542482 L1.8975,2.63542482 C0.849526562,2.63542482 0,3.52034793 0,4.61198644 L0,19.1067717 C0,20.1984102 0.849526562,21.0833333 1.8975,21.0833333 L15.8125,21.0833333 C16.8604734,21.0833333 17.71,20.1984102 17.71,19.1067717 L17.71,15.4498856 C17.71,15.1085993 17.3859623,14.8706707 17.0770651,14.9844877 C16.6439844,15.1440365 16.1802087,15.1917544 15.7255312,15.1235471 C15.4381391,15.0804745 15.18,15.3094262 15.18,15.6118813 L15.18,15.6118813 Z" id="Shape"></path>
            </g>
        </g>
    </g>
</svg>