<?xml version="1.0" encoding="UTF-8"?>
<svg width="58px" height="58px" viewBox="0 0 58 58" version="1.1" xmlns="http://www.w3.org/2000/svg" xmlns:xlink="http://www.w3.org/1999/xlink">
    <!-- Generator: Sketch 47.1 (45422) - http://www.bohemiancoding.com/sketch -->
    <title>shrimp-02</title>
    <desc>Created with Sketch.</desc>
    <defs></defs>
    <g id="Page-1" stroke="none" stroke-width="1" fill="none" fill-rule="evenodd">
        <g id="Blog" transform="translate(-151.000000, -1467.000000)" fill-rule="nonzero" fill="#000000">
            <g id="shrimp-02" transform="translate(151.000000, 1467.000000)">
                <path d="M29,58 C13.0098462,58 0,44.9901538 0,29 C0,13.0098462 13.0098462,0 29,0 C44.9901538,0 58,13.0098462 58,29 C58,44.9901538 44.9901538,58 29,58 Z M29,2.97435897 C14.6487179,2.97435897 2.97435897,14.6487179 2.97435897,29 C2.97435897,43.3512821 14.6487179,55.025641 29,55.025641 C43.3512821,55.025641 55.025641,43.3512821 55.025641,29 C55.025641,14.6487179 43.3512821,2.97435897 29,2.97435897 Z" id="Shape"></path>
                <path d="M45.4900174,28 C45.1223958,24.59463 43.7324219,21.412293 41.4704861,18.7957714 C39.2313368,16.2061933 36.3025174,14.356067 33,13.4414819 L33.4101562,12 C37.0043403,12.9954158 40.1914062,15.0087005 42.6265191,17.8243054 C45.0874566,20.6698475 46.6004774,24.1335953 47,27.8398353 L45.4900174,28 Z" id="Shape"></path>
                <path d="M16.1056307,43 C12.8136185,39.3629124 11,34.4359901 11,29.1288898 C11,25.9397042 11.6848538,22.7828415 12.9799214,20 L14.1283282,20.7388075 C12.9380183,23.2953891 12.3081624,26.1967476 12.3081624,29.1288898 C12.3081624,34.0080974 13.97512,38.5348324 17,41.8794753 L16.1056307,43 Z" id="Shape"></path>
                <g id="Group" transform="translate(14.000000, 9.000000)">
                    <path d="M17.3658768,14.3228244 C16.9603791,16.8622901 15.643981,20.355916 11.7888152,23.2630534 L16.4490995,25.3053435 C22.4610427,22.3475954 24.3518957,16.2237023 24.8572986,13.964084 C24.497346,13.7601527 24.1241706,13.5711069 23.7377725,13.4014122 L17.465782,10.6520611 C17.5656872,11.6151527 17.5950711,12.8893511 17.3658768,14.3228244 Z" id="Shape"></path>
                    <path d="M25.3274408,18.9209542 C23.7994787,22.1153817 21.5721801,24.6608015 18.8159716,26.3890076 C19.8238389,27.0097328 20.4981991,28.0219466 20.7273934,29.1413359 C23.9508057,29.2083206 26.6115166,28.1008397 28.6478199,25.8412214 C29.865782,24.4881298 30.5210427,23.0903817 30.795782,22.3982061 C30.2903791,19.6384351 28.8564455,17.0885496 26.6864455,15.2457252 C26.4219905,16.231145 25.9973934,17.520229 25.3274408,18.9209542 Z" id="Shape"></path>
                    <path d="M15.2972512,14.0742366 C15.6498578,11.9798473 15.3354502,10.2620611 15.1958768,9.65770992 L5.64611374,5.47041985 C4.79985782,5.09977099 4.40905213,4.09946565 4.77488152,3.24206107 C5.1407109,2.38465649 6.12800948,1.98870229 6.9742654,2.35935115 L21.6706161,8.80328244 L22.4963033,6.86816794 L7.8014218,0.425725191 C5.90175355,-0.406374046 3.68914692,0.480801527 2.8663981,2.40549618 C2.17587678,4.02206107 2.68421801,5.8619084 3.99033175,6.90389313 C3.84194313,7.29687023 3.71118483,7.68835878 3.59364929,8.07538168 L0.941753555,6.91282443 L0.116066351,8.84793893 L3.10587678,10.1593511 C2.97511848,10.9601908 2.91635071,11.7431679 2.93104265,12.5023282 C2.96189573,14.2022519 3.35123223,15.7994656 4.08876777,17.249313 C5.36843602,19.7664504 7.32687204,21.1374046 8.10848341,21.6092748 C8.27156398,21.7075191 8.37293839,21.7611069 8.39203791,21.7700382 L8.4214218,21.7849237 L9.53654028,22.2746565 C12.7966825,20.1847328 14.7345498,17.4279389 15.2972512,14.0742366 Z M11.6418957,14.2394656 L9.73194313,13.4029008 L10.5576303,11.4677863 L12.4675829,12.3043511 L11.6418957,14.2394656 Z" id="Shape"></path>
                    <path d="M30.1845972,27.2627863 C28.4494787,29.1889695 25.4185308,31.3607634 20.6274882,31.2476336 C20.5834123,31.3890458 20.5319905,31.530458 20.4732227,31.6703817 C19.7753555,33.3048092 18.1709953,34.2649237 16.5122749,34.2128244 C17.0485308,32.0067939 15.9510427,29.6608397 13.8251185,28.7290076 L9.17952607,26.6926718 L8.54777251,28.1722901 C7.96450237,29.5387786 8.06734597,31.034771 8.70203791,32.2613359 C7.38563981,32.6319847 6.23819905,33.5787023 5.65492891,34.9466794 L5.02317536,36.4262977 L9.66876777,38.4626336 C11.885782,39.4346565 14.4480569,38.5266412 15.6072512,36.4382061 L15.6307583,36.448626 L15.6733649,36.3503817 C21.3914692,37.9922519 27.5841232,35.1267939 30.0068246,29.4539313 C30.425545,28.4729771 30.7076303,27.4637405 30.8604265,26.4530153 C30.6532701,26.7194656 30.4284834,26.9918702 30.1845972,27.2627863 Z" id="Shape"></path>
                </g>
            </g>
        </g>
    </g>
</svg>