<?xml version="1.0" encoding="UTF-8"?>
<svg width="67px" height="57px" viewBox="0 0 67 57" version="1.1" xmlns="http://www.w3.org/2000/svg" xmlns:xlink="http://www.w3.org/1999/xlink">
    <!-- Generator: Sketch 47.1 (45422) - http://www.bohemiancoding.com/sketch -->
    <title>story-b</title>
    <desc>Created with Sketch.</desc>
    <defs>
        <polygon id="path-1" points="0 0 67 0 67 57 4.39545655e-21 57"></polygon>
    </defs>
    <g id="Page-1-Copy" stroke="none" stroke-width="1" fill="none" fill-rule="evenodd">
        <g id="Shop-03_2-Copy" transform="translate(-905.000000, -2501.000000)">
            <g id="story-b" transform="translate(905.000000, 2501.000000)">
                <mask id="mask-2" fill="white">
                    <use xlink:href="#path-1"></use>
                </mask>
                <g id="Clip-2"></g>
                <path d="M65.1646677,29.8817027 C64.0225486,29.9696241 62.9696195,30.7461027 62.8783213,31.5725001 C62.6375082,33.7526626 61.5163082,37.7933464 56.7060457,40.3954031 C56.7060457,40.3954031 65.4860762,37.5662964 66.971658,31.5220982 C67.1724167,30.7053625 66.2790568,29.7958746 65.1646677,29.8817027 M35.197298,47.6062516 C34.9029708,47.3109256 34.7135636,46.9637485 34.6341034,46.5751872 C34.3563169,45.2194897 34.4133985,43.2745896 36.2606055,41.7073009 C36.4613642,41.537255 36.6833663,41.3312997 36.914774,41.105538 C36.4028231,41.2255041 35.765844,41.3234094 34.9822689,41.3234094 C33.7807978,41.3234094 32.5157586,41.0976476 31.2218543,40.6549808 C27.9224711,39.525045 25.9109923,38.7736868 25.1726609,38.4923703 C25.0842816,38.9405122 24.9829293,39.8260069 25.2665537,40.8416126 C25.4739611,41.5820208 25.8568296,42.2731544 26.4033214,42.8937576 C26.5974314,43.1130782 26.7754871,43.2934299 26.9640835,43.4602552 C27.8493353,44.243175 28.5051254,45.0040338 28.9687515,45.7835719 C29.4721077,46.6321912 29.7252453,47.4754966 29.7421103,48.3664663 C29.7614078,49.3638757 29.4946484,50.4005761 28.90194,51.6285781 C28.6439376,52.1652855 28.620586,52.7449875 28.8317231,53.4024662 C29.060374,54.1148555 29.5334056,54.8294992 29.9547069,55.4665272 C30.3062779,55.9979207 30.6408216,56.5024225 30.8321748,57 C31.1530969,56.6740787 31.78813,55.6193431 32.356676,54.6736238 C33.4970113,52.7773542 35.0954591,50.1405154 36.9382877,48.2614758 C36.9006657,48.2637302 36.8636924,48.2692052 36.8255839,48.2692052 C36.2111456,48.2692052 35.6176263,48.0278237 35.197298,47.6062516 M66.650736,38.7756192 C65.9955946,38.1764328 64.5880135,38.0719254 63.7066536,38.7231239 C60.9936545,40.7277656 58.0181124,43.1568779 51.1694518,41.8063333 C51.1694518,41.8063333 59.9856448,45.3814842 65.9409454,41.1997396 C66.8398189,40.5686696 67.2898233,39.3604741 66.650736,38.7756192 M46.7563282,27.8496862 C44.8222015,8.6749162 22.7560971,9.33142869 22.7560971,9.33142869 C47.299901,6.85191452 46.7563282,27.8496862 46.7563282,27.8496862 M54.6198094,23.5012773 C53.2519583,8.81195131 38.6252769,3.68561454 34.1748557,2.4648588 C31.9944023,1.86776576 29.3569714,1.5643884 26.3356991,1.5643884 C21.2932181,1.5643884 16.3421974,2.4131687 13.8536329,2.91541605 C15.7397592,3.39334813 17.4541541,4.51249499 18.230594,5.81859575 C18.6938958,6.59668462 18.8054644,7.40617402 18.5528133,8.15994761 C17.930429,10.0140278 15.6836506,14.4796653 12.9012454,16.1300446 C14.5750993,16.6071716 18.8967626,17.8327581 21.3694351,18.4768714 C25.2049315,19.4775015 27.7329018,19.6828126 29.7641646,19.8465784 C32.9583034,20.1066391 34.8861058,20.2634807 38.4425184,23.2434709 C41.0697329,25.4445671 42.405962,28.0554804 42.4143945,31.0056804 C42.4281784,35.9589117 38.6507366,40.4717305 36.6515822,42.1657485 C35.348921,43.2699198 34.8690786,44.7140218 35.2255145,46.4544159 C35.2809744,46.7262318 35.4157325,46.9708338 35.6255724,47.1816199 C35.9331969,47.4904722 36.3705525,47.6674423 36.8255839,47.6674423 C37.1481276,47.6674423 37.4628874,47.5780716 37.7359711,47.4056103 C39.5844754,46.2482997 55.7593338,35.7349213 54.6198094,23.5012773 M50.4796073,11.7880768 C50.4035525,11.3640892 50.1705233,10.8603926 49.8079252,10.2922847 C49.4203539,9.68649615 48.9020786,9.01645728 48.3109918,8.31823846 C47.72477,7.62565563 47.0714123,6.90698621 46.4105952,6.19797848 C45.712156,5.44887471 45.0093384,4.71217012 44.3705755,4.02892693 C43.7751103,3.39109373 43.2352673,2.79947566 42.8151011,2.29175335 C42.5687744,1.99465608 42.3200152,1.73684973 42.0701209,1.50255352 C39.9608574,-0.469721421 37.7776471,-0.26682573 36.5442299,0.776154739 C35.9497376,1.27856312 34.8742678,1.58564414 33.8432309,1.77292008 C34.0039351,1.8128551 34.1792341,1.84264534 34.3350734,1.88580094 C37.4225086,2.73200479 45.3012331,5.42600869 50.4796073,11.7880768 M8.76898937,9.12547346 C7.81854779,9.12547346 7.15448734,8.45543459 7.15448734,7.49554474 C7.15448734,6.53565489 7.81854779,5.86400574 8.76898937,5.86400574 C9.7482961,5.86400574 10.536574,6.9564219 10.536574,7.85979081 C10.536574,8.69987559 9.94191959,9.12547346 8.76898937,9.12547346 M17.9806997,7.96880699 C18.1783773,7.3787992 18.0880521,6.75900117 17.7115079,6.12503265 C16.9524195,4.84856111 15.0844556,3.7178202 13.1696264,3.37547398 C12.8336231,3.31428322 12.4791332,3.28449298 12.1162108,3.28449298 C10.1141375,3.28449298 7.94065707,4.23439907 5.60955354,5.16675308 C-4.45870559,9.18859656 1.95113993,13.3688919 2.67876856,13.7395791 C4.1108364,14.4716139 7.09091916,16.1582246 10.8381985,16.1582246 C14.1507169,16.1582246 17.2760983,10.0673281 17.9806997,7.96880699 M8.36747199,6.80054648 C7.98281964,6.80054648 7.67000582,7.11149218 7.67000582,7.49554474 C7.67000582,7.87943627 7.98281964,8.19134814 8.36747199,8.19134814 C8.75212435,8.19134814 9.06493817,7.87943627 9.06493817,7.49554474 C9.06493817,7.11149218 8.75212435,6.80054648 8.36747199,6.80054648" id="Fill-1" fill="#ABD5E3" mask="url(#mask-2)"></path>
            </g>
        </g>
    </g>
</svg>