<?xml version="1.0" encoding="UTF-8"?>
<svg width="123px" height="89px" viewBox="0 0 123 89" version="1.1" xmlns="http://www.w3.org/2000/svg" xmlns:xlink="http://www.w3.org/1999/xlink">
    <!-- Generator: Sketch 47.1 (45422) - http://www.bohemiancoding.com/sketch -->
    <title>fish-null</title>
    <desc>Created with Sketch.</desc>
    <defs></defs>
    <g id="Page-1" stroke="none" stroke-width="1" fill="none" fill-rule="evenodd" fill-opacity="0.2">
        <g id="member-01-3" transform="translate(-858.000000, -569.000000)" fill-rule="nonzero" fill="#17223D">
            <g id="fish-null" transform="translate(858.000000, 569.000000)">
                <g id="fish-solid" transform="translate(0.000000, 65.000000)">
                    <path d="M24.418964,0 C17.7024682,0 11.8370122,4.10775 8.5724533,7.62225 L2.05304038,2.6685 C1.14750416,1.98 -0.204454709,2.7135 0.0269683988,3.768 L1.83206864,12 L0.0262218727,20.23275 C-0.205201235,21.28725 1.14675763,22.02 2.05229386,21.33225 L8.57170677,16.3785 C11.8362656,19.89225 17.7024682,24 24.418964,24 C34.6807125,24 43,14.4 43,12 C43,9.6 34.6807125,0 24.418964,0 Z M30.9458422,13.8 C29.956695,13.8 29.1541794,12.99375 29.1541794,12 C29.1541794,11.0055 29.956695,10.2 30.9458422,10.2 C31.9357359,10.2 32.7375049,11.0055 32.7375049,12 C32.7375049,12.99375 31.9349893,13.8 30.9458422,13.8 Z" id="Shape"></path>
                </g>
                <g id="fish-solid-copy" transform="translate(49.000000, 0.000000)">
                    <path d="M24.418964,0 C17.7024682,0 11.8370122,4.10775 8.5724533,7.62225 L2.05304038,2.6685 C1.14750416,1.98 -0.204454709,2.7135 0.0269683988,3.768 L1.83206864,12 L0.0262218727,20.23275 C-0.205201235,21.28725 1.14675763,22.02 2.05229386,21.33225 L8.57170677,16.3785 C11.8362656,19.89225 17.7024682,24 24.418964,24 C34.6807125,24 43,14.4 43,12 C43,9.6 34.6807125,0 24.418964,0 Z M30.9458422,13.8 C29.956695,13.8 29.1541794,12.99375 29.1541794,12 C29.1541794,11.0055 29.956695,10.2 30.9458422,10.2 C31.9357359,10.2 32.7375049,11.0055 32.7375049,12 C32.7375049,12.99375 31.9349893,13.8 30.9458422,13.8 Z" id="Shape"></path>
                </g>
                <g id="fish-solid-copy-2" transform="translate(80.000000, 45.000000)">
                    <path d="M24.418964,0 C17.7024682,0 11.8370122,4.10775 8.5724533,7.62225 L2.05304038,2.6685 C1.14750416,1.98 -0.204454709,2.7135 0.0269683988,3.768 L1.83206864,12 L0.0262218727,20.23275 C-0.205201235,21.28725 1.14675763,22.02 2.05229386,21.33225 L8.57170677,16.3785 C11.8362656,19.89225 17.7024682,24 24.418964,24 C34.6807125,24 43,14.4 43,12 C43,9.6 34.6807125,0 24.418964,0 Z M30.9458422,13.8 C29.956695,13.8 29.1541794,12.99375 29.1541794,12 C29.1541794,11.0055 29.956695,10.2 30.9458422,10.2 C31.9357359,10.2 32.7375049,11.0055 32.7375049,12 C32.7375049,12.99375 31.9349893,13.8 30.9458422,13.8 Z" id="Shape"></path>
                </g>
            </g>
        </g>
    </g>
</svg>