<?xml version="1.0" encoding="UTF-8"?>
<svg width="51px" height="62px" viewBox="0 0 51 62" version="1.1" xmlns="http://www.w3.org/2000/svg" xmlns:xlink="http://www.w3.org/1999/xlink">
    <!-- Generator: Sketch 47.1 (45422) - http://www.bohemiancoding.com/sketch -->
    <title>icon-shop-05</title>
    <desc>Created with Sketch.</desc>
    <defs></defs>
    <g id="Page-1" stroke="none" stroke-width="1" fill="none" fill-rule="evenodd">
        <g id="Artboard-4" transform="translate(-195.000000, -818.000000)" fill-rule="nonzero" fill="#384982">
            <g id="icon-shop-05" transform="translate(216.627372, 846.609543) rotate(-396.000000) translate(-216.627372, -846.609543) translate(200.127372, 812.109543)">
                <path d="M32.5946178,54.1487052 C32.5917886,54.1201889 32.5863997,54.0926098 32.5823581,54.0644952 C32.5771039,54.0278124 32.5727928,53.9909956 32.5655178,53.9543128 C32.5589165,53.9213785 32.5498901,53.8896492 32.5416721,53.8573843 C32.5338582,53.8261905 32.5268526,53.7947289 32.5174221,53.7638028 C32.5077221,53.7319396 32.4955972,53.7010136 32.4844152,53.6698197 C32.4733681,53.6392953 32.4632639,53.6085031 32.4507348,53.5783803 C32.4384751,53.5490608 32.4240598,53.5209462 32.4104529,53.4922961 C32.395903,53.4615039 32.3821613,53.4305778 32.36586,53.4004551 C32.3509058,53.3727421 32.3339309,53.3465018 32.3177643,53.319726 C32.3001157,53.2904065 32.2835449,53.2606853 32.2642797,53.2321691 C32.2439366,53.2020463 32.2214381,53.1736639 32.1994784,53.1446122 C32.1818298,53.1211833 32.1655285,53.097219 32.1466674,53.0744595 C32.0620621,52.9719082 31.9674873,52.8779251 31.8642903,52.793849 C31.8411181,52.7749721 31.8167335,52.7586388 31.7930224,52.7408329 C31.7640572,52.7192784 31.7357656,52.6970544 31.7057226,52.6769726 C31.6767574,52.657694 31.6465797,52.6409591 31.6169409,52.6232871 C31.5901312,52.6073555 31.5638605,52.5906206 31.5363772,52.5758939 C31.50593,52.5596945 31.4745398,52.545905 31.4434191,52.5313122 C31.4147233,52.5179242 31.3867012,52.5037331 31.3573318,52.4915501 C31.3268846,52.4789654 31.2957639,52.4689245 31.2649126,52.4579464 C31.2336571,52.4468345 31.2028058,52.4349192 31.1707419,52.4252799 C31.1396212,52.4159084 31.1078268,52.4089467 31.0763019,52.4011817 C31.0439686,52.393149 31.0119048,52.3840452 30.978898,52.377619 C30.9421189,52.3703895 30.9050704,52.3659715 30.8678871,52.3607502 C30.8395955,52.3567338 30.8118428,52.3513787 30.7832817,52.3485672 C30.6503112,52.335581 30.5165324,52.335581 30.3835619,52.3485672 C30.3550008,52.3513787 30.3272481,52.3567338 30.2989565,52.3607502 C30.261908,52.3659715 30.2248595,52.3702556 30.1880804,52.377619 C30.1550735,52.3841791 30.1231444,52.393149 30.0906764,52.4011817 C30.0591515,52.4090806 30.0274919,52.4159084 29.9962364,52.4252799 C29.9643073,52.4349192 29.933456,52.4468345 29.9020658,52.4579464 C29.8712145,52.4689245 29.8400937,52.4790993 29.8096465,52.4915501 C29.7802772,52.5035992 29.7521203,52.5179242 29.7235592,52.5313122 C29.6924385,52.545905 29.6610483,52.5595606 29.6306011,52.5758939 C29.6029831,52.5906206 29.5768471,52.6073555 29.5500374,52.6232871 C29.5202639,52.6409591 29.4902209,52.6575601 29.4612557,52.6769726 C29.4312127,52.6969206 29.4029211,52.7192784 29.3739559,52.7408329 C29.3501101,52.7585049 29.3257255,52.7749721 29.302688,52.793849 C29.2509548,52.8360209 29.2013771,52.8803349 29.153955,52.9274603 L24.9767676,57.0785147 C24.1870278,57.8633138 24.1870278,59.1355665 24.9767676,59.9202317 C25.3716375,60.3126313 25.8891044,60.508898 26.4065712,60.508898 C26.9239033,60.508898 27.4416396,60.3127652 27.8363748,59.9202317 L28.5563287,59.204782 C28.4397942,61.9073987 26.1915551,64.0707506 23.4436323,64.0707506 C20.6212084,64.0707506 18.325143,61.7889158 18.325143,58.9844171 L18.325143,48.1465049 L18.5890632,48.1465049 C21.3663553,48.1465049 23.6255069,45.901353 23.6255069,43.141436 L23.6255069,39.3189209 L8.97921499,39.3189209 L8.97921499,43.141436 C8.97921499,45.901353 11.2385013,48.1465049 14.0156587,48.1465049 L14.2795789,48.1465049 L14.2795789,58.9844171 C14.2795789,61.7890496 11.9835135,64.0707506 9.16108956,64.0707506 C6.41316686,64.0707506 4.16506242,61.9075326 4.04839325,59.204782 L4.76834712,59.9202317 C5.16321702,60.3126313 5.68068386,60.508898 6.1981507,60.508898 C6.71548281,60.508898 7.23321909,60.3127652 7.62795428,59.9202317 C8.41769409,59.1354327 8.41769409,57.8631799 7.62795428,57.0785147 L3.45076688,52.9274603 C3.40361422,52.8806026 3.35390183,52.8361548 3.3020339,52.793849 C3.27886173,52.7749721 3.25447707,52.7586388 3.23076601,52.7408329 C3.2018008,52.7192784 3.1735092,52.6970544 3.14346622,52.6769726 C3.11450101,52.657694 3.0843233,52.6409591 3.05468448,52.6232871 C3.02787482,52.6073555 3.00160405,52.5906206 2.97412078,52.5758939 C2.94367363,52.5596945 2.91228343,52.545905 2.88116267,52.5313122 C2.8524669,52.5179242 2.82444474,52.5037331 2.79507537,52.4915501 C2.76462822,52.4789654 2.73350746,52.4689245 2.70265614,52.4579464 C2.67140066,52.4468345 2.64054934,52.4349192 2.60848553,52.4252799 C2.57736477,52.4159084 2.5455704,52.4089467 2.51404547,52.4011817 C2.48171222,52.393149 2.4496484,52.3840452 2.41664154,52.377619 C2.37986246,52.3703895 2.34281393,52.3659715 2.30576541,52.3607502 C2.27747381,52.3567338 2.2497211,52.3513787 2.22116005,52.3485672 C2.08818953,52.335581 1.95441068,52.335581 1.82144016,52.3485672 C1.79287912,52.3513787 1.7651264,52.3567338 1.7368348,52.3607502 C1.69978628,52.3659715 1.66273776,52.3702556 1.62582395,52.377619 C1.59281709,52.3841791 1.56088799,52.393149 1.52842002,52.4011817 C1.49689509,52.4090806 1.46523544,52.4159084 1.43397996,52.4252799 C1.40205087,52.4349192 1.37119955,52.4468345 1.33980935,52.4579464 C1.30895803,52.4689245 1.27783727,52.4790993 1.24739012,52.4915501 C1.21802075,52.5035992 1.18986387,52.5179242 1.16130282,52.5313122 C1.13018206,52.545905 1.09879186,52.5595606 1.06834471,52.5758939 C1.04072672,52.5906206 1.01459067,52.6073555 0.98778101,52.6232871 C0.958007469,52.6409591 0.927964484,52.6575601 0.898999274,52.6769726 C0.868956289,52.6969206 0.840664689,52.7192784 0.811699479,52.7408329 C0.787853702,52.7585049 0.763469037,52.7749721 0.740431591,52.793849 C0.637234612,52.8779251 0.542659835,52.9719082 0.458054478,53.0744595 C0.439193411,53.097219 0.422892061,53.1211833 0.405243491,53.1446122 C0.383418542,53.17353 0.360785262,53.2020463 0.340442255,53.2321691 C0.321177022,53.2608192 0.304471506,53.2904065 0.286957658,53.319726 C0.27079103,53.3466357 0.25381607,53.372876 0.238861938,53.4004551 C0.222695309,53.4305778 0.208953675,53.4616378 0.194268987,53.4922961 C0.180662075,53.5209462 0.166246831,53.5490608 0.153987138,53.5783803 C0.141458001,53.6085031 0.131353858,53.6392953 0.120306661,53.6698197 C0.108990021,53.7010136 0.0969997718,53.7318057 0.0872997946,53.7638028 C0.0778692613,53.7947289 0.0709984441,53.8260566 0.0630498517,53.8573843 C0.0548318155,53.8896492 0.0458054478,53.9215124 0.0392040744,53.9543128 C0.0319290916,53.9907279 0.0274832687,54.0275446 0.0223638363,54.0644952 C0.0183221791,54.0926098 0.0129333029,54.1201889 0.0101041429,54.1487052 C0.00350276954,54.2149753 0,54.2815132 0,54.3480511 L0,58.9837477 C0,64.0043466 4.11023061,68.088863 9.16243678,68.088863 C12.0465633,68.088863 14.6221767,66.7564985 16.3029672,64.6800342 C17.9837577,66.7564985 20.5593711,68.088863 23.4434976,68.088863 C28.4957038,68.088863 32.6059344,64.0043466 32.6059344,58.9837477 L32.6059344,54.3479172 C32.6047219,54.2815132 32.6012191,54.2149753 32.5946178,54.1487052 Z" id="Shape"></path>
                <rect id="Rectangle-path" x="8.63098264" y="23.0159537" width="14.3849711" height="12.4669749"></rect>
                <path d="M18.0687834,10.4000767 L17.8095483,10.4000767 L17.8095483,2.01303489 C17.8095483,0.90129885 16.9202883,0 15.823402,0 C14.7265157,0 13.8372557,0.90129885 13.8372557,2.01303489 L13.8372557,10.4002108 L13.5780206,10.4002108 C10.8500303,10.4002108 8.63098264,12.6494343 8.63098264,15.4143563 L8.63098264,19.1799614 L23.0159537,19.1799614 L23.0159537,15.4142222 C23.0158214,12.6494343 20.7966413,10.4000767 18.0687834,10.4000767 Z" id="Shape"></path>
            </g>
        </g>
    </g>
</svg>