<?xml version="1.0" encoding="UTF-8"?>
<svg width="96px" height="60px" viewBox="0 0 96 60" version="1.1" xmlns="http://www.w3.org/2000/svg" xmlns:xlink="http://www.w3.org/1999/xlink">
    <!-- Generator: Sketch 47.1 (45422) - http://www.bohemiancoding.com/sketch -->
    <title>icon-shop-04</title>
    <desc>Created with Sketch.</desc>
    <defs></defs>
    <g id="Page-1" stroke="none" stroke-width="1" fill="none" fill-rule="evenodd">
        <g id="Artboard-4" transform="translate(-169.000000, -704.000000)" fill="#384982">
            <g id="icon-shop-04" transform="translate(169.000000, 704.000000)">
                <path d="M56.259774,29.801442 C56.2745957,17.9161159 46.7042153,8.28209246 34.8464802,8.24570752 C22.8678912,8.20881547 13.2256826,17.8056933 13.2107343,29.7795096 C13.1959126,41.6889233 22.8640908,51.3130581 34.862822,51.3329621 C46.5861485,51.3524857 56.245079,41.6327611 56.259774,29.801442 M61.6133191,42.6515396 C60.8403108,44.1320392 60.121902,45.442024 59.260977,46.6664344 C54.9440636,52.8061086 49.1565089,56.8367238 41.8876715,58.6754947 C36.6561203,59.9989178 31.4268494,59.8262478 26.2445771,58.3409307 C19.0699905,56.284484 12.837785,52.626973 7.66843421,47.2259005 C4.36192967,43.7711056 1.89747469,39.8037521 0.683362609,35.1275894 C-0.192004096,31.7564672 -0.142345088,28.3541579 0.360705735,24.9390442 C1.14144163,19.6372379 3.14427051,14.8661194 6.60000544,10.7479014 C9.82378719,6.90593018 13.8740367,4.23106623 18.5441371,2.47825004 C23.3063347,0.69095055 28.2564004,0.0138356005 33.3230127,0.00027048169 C36.1827129,-0.00746290381 39.0135297,0.147711913 41.8026685,0.843336278 C47.7945599,2.33765455 52.885115,5.35025192 56.9613342,9.9833105 C62.6370295,16.434095 65.068674,23.987711 64.3697741,32.5536398 C64.1412414,35.3532521 63.48744,38.0515698 62.4504281,40.65696 C62.2866294,41.0686043 62.2396307,41.465289 62.3207066,41.8913858 C63.0097254,45.5142868 63.9305706,49.0636572 65.7417309,52.3147217 C66.996381,54.5669118 68.6085252,56.4865662 70.9495928,57.6934815 C71.9935721,58.2317758 73.1022854,58.5810459 74.2634448,58.7040195 C79.0386905,59.2098589 83.8201436,59.4894018 88.5971629,58.7459826 C90.9635667,58.3776959 93.2900659,57.8470082 95.2703455,56.3799469 C95.5995898,56.1360284 95.7248775,56.3983296 95.8952636,56.5456442 C96.1306372,56.7489942 95.9150259,56.8809689 95.7769434,56.995068 C94.714342,57.8733778 93.4620989,58.3768085 92.1642506,58.7688024 C88.1669537,59.9759712 84.0607111,60.0972966 79.9319193,59.9506158 C77.8850054,59.8779727 75.8361912,59.7501817 73.8134734,59.4419873 C70.2123085,58.8932972 67.6334605,56.7948874 65.6999262,53.8111952 C63.656686,50.658763 62.5945913,47.131325 61.8062545,43.5019584 C61.7572289,43.2759154 61.7040228,43.050633 61.6133191,42.6515396" id="Fill-1"></path>
                <path d="M33.9964489,39.3244381 C39.1954934,39.3113787 43.3430259,35.1645786 43.3332732,29.9890028 C43.3235206,24.803791 39.1562295,20.650271 33.9802367,20.6667537 C28.7219164,20.6836168 24.6739369,24.8263597 24.6958486,30.1687913 C24.7166205,35.2324113 28.8864447,39.3372439 33.9964489,39.3244381 M44.9999617,29.9656734 C45.0157939,36.0616192 40.1235143,40.9858968 34.0376126,40.9999705 C27.942845,41.0139174 23.0142146,36.0813985 23.0000289,29.9536283 C22.9862233,23.9958839 27.9134604,19.0239332 33.8549723,19.0000966 C40.0838704,18.9751189 44.9840028,23.7963161 44.9999617,29.9656734" id="Fill-3"></path>
                <path d="M33,37.6463221 C36.4742739,36.262951 38.3772073,33.7317493 38.3705148,30.0154727 C38.3639486,26.3252544 36.4746528,23.8047301 33.0468473,22.4319094 C35.2451331,21.2831889 39.163509,22.5254646 41.2115299,24.979763 C43.5482109,27.7796817 43.5979624,31.9957666 41.3444954,34.9215272 C39.3997656,37.4466276 35.8977117,38.650388 33,37.6463221" id="Fill-5"></path>
            </g>
        </g>
    </g>
</svg>