<?xml version="1.0" encoding="UTF-8"?>
<svg width="84px" height="84px" viewBox="0 0 84 84" version="1.1" xmlns="http://www.w3.org/2000/svg" xmlns:xlink="http://www.w3.org/1999/xlink">
    <!-- Generator: Sketch 47.1 (45422) - http://www.bohemiancoding.com/sketch -->
    <title>icon-shop-02</title>
    <desc>Created with Sketch.</desc>
    <defs></defs>
    <g id="Page-1" stroke="none" stroke-width="1" fill="none" fill-rule="evenodd">
        <g id="Artboard-4" transform="translate(-175.000000, -341.000000)" fill-rule="nonzero" fill="#000000">
            <g id="icon-shop-02" transform="translate(175.000000, 341.000000)">
                <path d="M76.7044688,47.115113 C81.409125,42.3969381 84,36.1824916 84,29.6161071 C84,23.0498871 81.409125,16.8352761 76.7143125,12.1269732 L66.2359687,1.49956222 C66.2349844,1.49857502 66.234,1.49775235 66.2330156,1.49676515 C66.2307187,1.49446167 66.2285859,1.49199366 66.2262891,1.48969019 C65.2684922,0.528976579 63.994875,0 62.6402109,0 C61.2855469,0 60.0120938,0.529141113 59.0536406,1.49034832 L1.50953906,59.2351758 C0.535992187,60.2113556 0,61.5091992 0,62.8898034 C0,64.2702431 0.535992187,65.5679222 1.509375,66.5442665 L3.79460156,68.8362241 C4.75748437,69.8017092 6.0808125,70.3497717 7.44039844,70.3497717 C7.47534375,70.3497717 7.51061719,70.3494426 7.54572656,70.34862 C8.9420625,70.3194975 10.2850781,69.7118737 11.2317188,68.6802459 L44.5902188,32.2909352 L48.2919609,36.0033142 C48.7723359,36.4852341 49.4020078,36.7261117 50.0316797,36.7261117 C50.6611875,36.7261117 51.2910234,36.4850695 51.7713984,36.0033142 C52.7323125,35.0398035 52.7323125,33.4773893 51.7713984,32.5138786 L47.9233125,28.6547353 L52.4532422,23.7134524 L56.4998437,27.7716818 C56.9802187,28.2536016 57.6098906,28.4944793 58.2395625,28.4944793 C58.8690703,28.4944793 59.4989062,28.2534371 59.9792812,27.7716818 C60.9401953,26.8081711 60.9401953,25.2457569 59.9792812,24.2822462 L55.7863359,20.0772526 L66.3119297,8.59525241 L73.2248672,15.6063722 C77.0001094,19.3924624 79.0791094,24.3678038 79.0791094,29.6159426 C79.0791094,34.8640813 77.0001094,39.8394227 73.2248672,43.6255129 C73.2247031,43.6256775 73.2248672,43.6255129 73.2247031,43.6256775 L55.7804297,61.1205701 C53.2563281,63.6519246 51.8660625,67.0176306 51.8660625,70.5973953 C51.8660625,74.177489 53.2561641,77.5430305 55.7802656,80.074385 C58.3043672,82.6057395 61.6605938,84 65.2302656,84 C68.7999375,84 72.1558359,82.6057395 74.6801016,80.074385 C75.6408516,79.1108743 75.6408516,77.5484601 74.6801016,76.5849495 C73.7193516,75.6214388 72.1614141,75.6214388 71.2006641,76.5849495 C69.6059766,78.1843838 67.4856328,79.0651339 65.2304297,79.0651339 C62.9750625,79.0651339 60.8547188,78.1843838 59.2600313,76.5849495 C57.6653437,74.9855151 56.7869531,72.8592432 56.7869531,70.5973953 C56.7867891,68.3357119 57.6651797,66.2092754 59.2598672,64.6100056 L76.7044688,47.115113 Z" id="Shape"></path>
                <path d="M43.1957458,41 L23,62.9897077 C25.6583937,64.9943686 28.8350117,66 32.0134435,66 C35.8532173,66 39.6928261,64.5370233 42.6160204,61.6107399 C48.2617476,55.9593654 48.4540001,46.8864014 43.1957458,41 Z" id="Shape"></path>
            </g>
        </g>
    </g>
</svg>