<?xml version="1.0" encoding="UTF-8"?>
<svg width="301px" height="155px" viewBox="0 0 301 155" version="1.1" xmlns="http://www.w3.org/2000/svg" xmlns:xlink="http://www.w3.org/1999/xlink">
    <!-- Generator: Sketch 47.1 (45422) - http://www.bohemiancoding.com/sketch -->
    <title>Page 1</title>
    <desc>Created with Sketch.</desc>
    <defs>
        <polygon id="path-1" points="152.799261 155 0.147546268 155 0.147546268 0.293282071 152.799261 0.293282071"></polygon>
    </defs>
    <g id="Page-1" stroke="none" stroke-width="1" fill="none" fill-rule="evenodd">
        <g>
            <path d="M26.9072079,71.6449959 C30.5508166,74.7982083 37.7587502,71.763889 38.7859927,66.6804108 C36.0853288,71.4787361 32.4808919,73.6649084 26.9072079,71.6449959 M66.8120405,52.6386174 C66.1592808,54.9821483 65.5253236,57.6734576 64.6275048,60.2713054 C64.2743314,61.2936596 63.4532895,62.2467124 62.6291137,62.9823242 C61.4401698,64.0444155 60.2311698,63.7738858 59.3596745,62.4082037 C58.9005805,61.6894404 58.5881458,60.8743545 58.2077088,60.1037741 C58.2450004,61.800704 59.2976263,63.6219314 60.5714949,63.9643056 C62.1364886,64.3852002 63.135214,63.3822377 64.0712645,62.3265043 C64.1496082,62.2381292 64.2257583,62.1453035 64.2884333,62.0454841 C66.1570872,59.0652072 66.644385,55.7298402 66.8120405,52.6386174 M32.010203,45.1845872 C29.4157731,44.8803605 26.8200897,44.630812 24.2773666,45.4856349 C22.2589196,46.1640254 21.6591202,47.2798411 21.9565129,49.3744592 C22.0818628,50.2588464 22.0987851,51.2045877 21.9292493,52.0753054 C21.6625674,53.4435306 21.196579,54.771701 20.8152019,56.1170377 C22.1006653,54.0968073 22.8656132,51.9284373 22.5136933,49.488266 C22.1993784,47.304637 22.7261614,46.4107129 24.8135509,45.8219691 C25.262617,45.6951285 25.7264117,45.5857722 26.1892662,45.5523931 C28.1284294,45.4125188 30.0697863,45.3044341 32.010203,45.1845872 M52.7950994,21.3048599 C51.7825855,20.5949977 47.032137,21.9498713 43.6373479,23.9786849 C38.5566024,27.0149116 35.5456974,31.5137787 34.4303965,37.3513067 C37.0636849,27.871324 43.4703191,22.8641408 52.7950994,21.3048599 M4.02426721,66.1488883 C3.99261636,66.0649637 3.96127888,65.981357 3.9299414,65.8971145 C3.29786444,66.146981 2.63789713,66.3412155 2.03997803,66.6575223 C0.772376997,67.3276475 0.666456318,68.2126705 1.78739795,69.1358411 C2.44705188,69.6791257 3.20259851,70.134671 3.97444062,70.5002516 C7.6879319,72.2594892 9.89503056,75.1501194 10.613599,79.2500268 C10.8379753,80.5279696 11.1707793,81.7970112 11.5772264,83.0282232 C11.8451619,83.8404481 12.5157839,84.2979007 13.3286781,83.7215549 C14.894612,82.6117792 15.5539525,80.8922786 16.1985645,79.1854939 C15.4145008,80.3172044 14.7325972,81.5182163 13.9237769,82.6232235 C13.6389192,83.0126463 13.0312855,83.3804522 12.5928741,83.3556563 C12.2954815,83.3388078 11.9576634,82.6537415 11.7806067,82.2086868 C11.5646914,81.6666738 11.4474893,81.0696647 11.3757264,80.4856894 C10.7543042,75.4381334 8.31656173,71.7654785 3.59839087,69.7697261 C3.03024237,69.5293966 2.48685048,69.173035 2.01240105,68.7728036 C1.26030155,68.1379649 1.32328988,67.4691113 2.17660944,66.9744648 C2.7576063,66.6374948 3.40597875,66.4197359 4.02426721,66.1488883 M57.6787322,27.4243619 C44.7213113,34.86059 34.2630544,45.2055683 24.8242056,56.7264448 C35.3636266,46.4911406 45.8200033,36.1598318 57.6787322,27.4243619 M82.4497559,28.4012569 C80.0195344,27.4249977 77.549201,27.3185025 74.9964499,27.9329958 C75.3574577,29.5482265 74.8256606,30.4326137 73.4690612,30.6554589 C72.285758,30.8496935 71.6173295,30.183701 71.399534,28.5338197 C67.4456843,28.4829563 63.6873804,29.2411387 60.2192616,31.2874366 C62.5899419,29.1184308 65.5494534,28.2915827 68.5462566,27.546434 C64.4078291,27.4612379 60.7278689,28.7159742 57.6608698,31.4924797 C56.8949818,32.1858113 56.3553504,33.2558499 55.9949694,34.2575409 C55.5797478,35.4111862 56.0626584,36.2017941 57.2578698,36.4926691 C58.2866793,36.7428534 59.373463,36.750165 60.4345501,36.8649255 C60.431103,36.9637913 60.4276558,37.062657 60.4242087,37.1618406 C59.0171559,37.0750549 57.5361466,37.2266914 56.2318808,36.8096116 C55.480408,36.5696 55.0153598,35.4095967 54.359153,34.5856097 C50.0126446,39.1130875 45.9832716,44.2823977 40.6944452,48.1133649 C40.594792,48.0173603 40.4951388,47.9213556 40.3954857,47.8256689 C44.3571698,43.4215348 48.3188539,39.0174008 52.2808514,34.6135846 C50.7252589,35.758011 49.2160459,36.9793682 47.7607334,38.2639868 C43.2073977,42.2844201 38.7985277,46.4437741 35.4071857,51.5784336 C35.0505652,52.1185392 34.5673413,52.6376638 34.0270831,52.9778127 C28.8438641,56.2429246 23.6349483,59.4654385 18.4366873,62.7057545 C17.9710123,62.9959938 17.5294672,63.3250163 17.0766407,63.6359188 C17.117066,63.702677 17.157178,63.7691173 17.19729,63.8358755 C18.9123902,63.0691099 20.627177,62.3026621 22.3419639,61.5362144 C21.269282,62.3678309 20.1035278,63.0007622 18.946548,63.6492705 C17.8246663,64.2780692 16.7112457,64.9230806 15.5943779,65.5610983 C15.6357434,65.6431155 15.6774222,65.7251327 15.7191011,65.8071499 C16.4223141,65.5207254 17.1258405,65.234301 17.6958692,65.0022367 C15.9666671,66.4467571 14.0929993,67.8791974 12.3750787,69.4836196 C10.5531176,71.1856358 10.6120321,72.0897327 12.3606634,73.9243117 C12.7116432,74.2924355 13.0892598,74.6564266 13.5132559,74.9275921 C15.1440583,75.9718811 15.8431975,75.6225132 15.9954976,73.7310308 C16.0177472,73.4538253 16.0437573,73.1772556 16.0766617,72.9016396 C16.3809486,70.3432109 18.6877005,67.4125258 21.0517999,66.6683307 C19.697394,67.969162 18.469905,69.2604564 18.127073,70.8327711 C19.4128497,69.7283996 20.7114749,68.3350606 22.2579795,67.3375023 C26.4684832,64.6210792 31.042815,62.6364532 35.8490442,61.301607 C41.9683137,59.601816 47.9882435,57.6737755 53.595772,54.6038518 C55.2500775,53.6978476 56.8843271,52.7543317 58.5276645,51.8279821 L58.7313581,52.1954701 C54.4613132,54.6540794 50.1912683,57.1130066 45.9462933,59.5573105 C56.9836669,56.4088665 65.6136953,49.5594748 73.5486584,40.9905825 C71.1124827,41.1587496 69.0755466,40.9174664 67.3322426,39.7530126 C65.2044278,38.3323344 62.9920018,37.4501725 60.3928712,37.8446817 C62.7858011,37.1672448 64.4902466,37.3459025 66.6409378,38.4064043 C67.2720747,38.7176246 67.906972,39.0612704 68.5794743,39.2389744 C71.9426126,40.1278122 75.0033441,39.7698611 77.4094358,36.8932183 C78.80176,35.2287138 80.2210344,33.5874157 81.6180592,31.9267259 C82.0301471,31.4368478 82.4074503,30.9170875 82.8007357,30.4109968 L82.5180717,30.1287049 C81.0079185,31.4867575 79.4977654,32.8448101 77.9876123,34.2025448 C77.9393526,34.1465951 77.8910929,34.0906454 77.8431465,34.0346956 C79.3545531,32.1864471 80.8659597,30.3378806 82.4497559,28.4012569 M85,30.1693956 C83.3287722,34.1764773 80.653805,37.4902274 77.8306115,40.6618778 C74.9231202,43.9288972 71.8598816,47.0554064 68.8173258,50.1965388 C68.2241073,50.8091248 67.9668266,51.4029549 67.9088522,52.257142 C67.7101726,55.1910061 67.299965,58.1137438 66.0085475,60.7799393 C65.4363251,61.9615595 64.644427,63.1291923 63.6858135,64.0034068 C61.758872,65.761055 59.4483596,65.3341204 58.1397065,63.0675204 C57.5185976,61.9923954 57.1422345,60.7723098 56.6032299,59.4950028 C55.89845,59.8399202 55.1754943,60.1956461 54.4509718,60.5478751 C50.3178717,62.5569791 46.1026674,64.3174883 41.5534055,65.142429 C41.1322298,65.218724 40.6894312,65.6958862 40.4349709,66.1018397 C39.4964134,67.5981771 38.8088691,69.2909745 37.7045363,70.6382186 C35.4485512,73.3899281 32.3849992,74.3159598 28.9419504,73.7783973 C26.9949528,73.4744885 25.5014086,72.3259295 24.401463,70.6696903 C24.1645517,70.312375 23.9426823,69.9442512 23.6938628,69.5503778 C21.2755495,70.4131481 19.9587486,72.20799 19.1013552,74.5041543 C18.1910014,76.9427362 17.2427293,79.3724169 16.1769416,81.7439226 C15.766734,82.6559668 15.0769961,83.4926696 14.3559207,84.1961739 C12.969864,85.5491402 11.291742,85.1568562 10.6584115,83.3003424 C10.1510578,81.8132239 9.84802434,80.2485388 9.52932218,78.7026096 C8.84679188,75.3929921 6.94492027,73.0930131 4.00358447,71.5928609 C3.09793133,71.1306398 2.17629606,70.6639682 1.3627751,70.0602833 C-0.588296348,68.6116303 -0.446024193,66.4874478 1.80024631,65.6516987 C3.79299661,64.9103647 5.93930056,64.5581357 8.04141866,64.1636265 C10.5302413,63.6963191 13.0563555,63.4305579 15.5407908,62.9444946 C16.4241943,62.771559 17.2333281,62.2088828 18.2094905,61.7635102 C17.0835349,60.5497824 17.5040839,59.469889 18.1032565,58.3849093 C18.8857533,56.9680459 19.7390729,55.5823363 20.4021739,54.1092053 C21.0718559,52.621451 21.3435518,51.0421427 21.0558738,49.3611075 C20.4523139,45.8353207 22.7330556,44.5398937 25.7057289,44.1863931 C27.863001,43.9292151 30.0691595,44.0926137 32.2536952,44.0706789 C32.6996275,44.0662283 33.1455598,44.0697252 33.8036469,44.0697252 C32.0829059,42.7784308 32.6714238,41.1123368 32.8469137,39.7062818 C34.1555668,29.218886 40.9244623,22.0776656 51.2623833,20.0914501 C52.2817915,19.895626 53.195279,19.9735106 53.9881172,20.7301036 C54.2425776,20.9726584 54.5750682,21.1293812 54.8408101,21.3620812 C57.3264989,23.5361734 59.9221823,25.0064433 63.4846269,24.2199681 C65.0239239,23.8801371 66.7800762,24.5820519 68.4419028,24.7721538 C70.1096834,24.9632095 71.7805978,25.142185 73.4546459,25.2636214 C76.5561162,25.488374 79.6607203,25.6673496 82.8834667,25.8730284 C82.8834667,25.8730284 84.8599215,26.1546844 85,30.1693956" id="Fill-1" fill="#656666"></path>
            <g id="Group-5" transform="translate(83.000000, 0.000000)">
                <mask id="mask-2" fill="white">
                    <use xlink:href="#path-1"></use>
                </mask>
                <g id="Clip-4"></g>
                <path d="M20.1355822,78.54825 C23.3147908,78.5654375 29.9851528,76.6616875 32.346484,75.1010625 C32.6221344,74.918875 32.827073,74.51575 32.9118644,74.1766875 C34.6439871,67.283875 36.3614043,60.3873125 38.0609871,53.486375 C38.4220546,52.0198125 38.874484,50.545125 38.9749196,49.05325 C39.0966313,47.2495 38.3895147,46.9285625 36.8075761,47.833875 C29.6857233,51.907625 23.7838031,57.345125 18.8352387,63.8485625 C16.5959319,66.7916875 14.8594288,69.9916875 14.0327908,73.6173125 C13.5080853,75.9195 14.740846,77.7173125 17.0661957,78.1395 C18.1775577,78.3416875 19.3076926,78.4404375 20.1355822,78.54825 M0.152342945,26.0179375 C0.43425092,24.312625 2.09284601,23.9341875 3.6910546,23.57825 C10.4878215,22.0645 17.3033613,20.6335625 24.095435,19.0998125 C34.8326558,16.6754375 45.5348337,14.09325 56.2914534,11.760125 C69.9779135,8.791375 83.6828337,5.897 97.4231098,3.1895 C103.224594,2.046375 109.113061,1.15325 115.004656,0.7073125 C121.144367,0.242625 127.34822,0.180125 133.499509,0.4645 C137.663987,0.657 141.919202,1.32325 145.896576,2.54575 C151.854502,4.3773125 154.243367,10.07575 151.925214,15.8766875 C150.089214,20.4710625 146.846177,24.1048125 143.178871,27.2891875 C130.845006,37.9985625 116.691723,45.791375 101.823815,52.31325 C82.6478153,60.725125 63.3720055,68.910125 44.1368706,77.187625 C43.2464043,77.57075 42.3418583,77.925125 41.4294902,78.2529375 C38.7205454,79.226375 37.350116,81.361375 36.759392,83.9698125 C33.7916926,97.0716875 30.8368215,110.177625 28.0042877,123.3095 C26.2361834,131.506687 24.7549933,139.765437 23.0034718,147.966375 C22.5795147,149.952 21.6630791,151.848875 20.826116,153.721062 C20.5830055,154.2645 19.8286436,154.580125 19.3086313,155.000125 C18.917527,154.4695 18.3649748,153.994187 18.1619135,153.399812 C17.105619,150.307 16.9519933,147.069187 17.599662,143.93325 C20.4741221,130.012937 23.5069012,116.125125 26.4702202,102.22325 C27.6682509,96.6010625 28.8456313,90.9741875 30.0029871,85.34325 C30.1738215,84.51325 30.1816436,83.6498125 30.285208,82.592625 C28.3040301,82.867 26.3970055,83.1073125 24.498116,83.3995 C21.6330423,83.84075 18.777981,84.0748125 15.8841221,83.5829375 C11.6680178,82.8660625 9.81699939,79.742 9.71061902,76.2035625 C9.54729387,70.776375 11.3548215,65.9145 14.7361528,61.7329375 C18.6869319,56.8473125 22.8085454,52.102625 28.0193061,48.4410625 C30.7316926,46.5354375 33.4212387,44.5791875 35.967484,42.4616875 C37.5372202,41.156375 38.9257969,39.5898125 40.1986067,37.9845 C41.590938,36.22825 43.0909012,35.59075 44.9225209,36.3648125 C46.7384963,37.132 47.5779626,38.7273125 47.1001896,40.875125 C45.1775209,49.516375 43.1947785,58.1441875 41.2595945,66.782625 C40.8465883,68.625125 40.5380853,70.491375 40.0991098,72.7754375 C42.3844104,71.9823125 44.3834227,71.3966875 46.2976436,70.607 C62.4852939,63.9266875 78.7208153,57.3566875 94.813662,50.4560625 C107.769852,44.9004375 120.178183,38.273875 131.610006,29.946375 C137.474067,25.6745 142.547785,20.6591875 146.352134,14.4395 C146.555509,14.1073125 146.75638,13.772625 146.939417,13.428875 C148.088012,11.2685625 147.904349,10.5429375 145.782999,9.2535625 C143.342196,7.770125 140.60822,7.1273125 137.832318,6.6891875 C130.957018,5.603875 124.023521,5.6429375 117.141024,6.3041875 C109.66092,7.0229375 102.193018,8.0204375 94.7826865,9.2691875 C84.7704166,10.956375 74.7665945,12.7645 64.8525699,14.943875 C50.0738337,18.1929375 35.3855209,21.8510625 20.6386988,25.2485625 C16.1165945,26.2904375 11.7681405,27.7029375 7.91717117,30.312625 C6.3505638,31.3741875 4.8962816,31.220125 3.31371718,30.651375 C2.98550245,30.5335625 2.66291963,30.397625 2.26555767,30.2416875 C2.26555767,30.2416875 0.0306312883,28.4923125 0.152342945,26.0179375" id="Fill-3" fill="#231916" mask="url(#mask-2)"></path>
            </g>
            <path d="M201.6975,91.8108793 C202.253887,91.1343422 202.909788,90.2443301 203.660433,89.4434789 C205.076518,87.932855 208.76743,87.4867304 210.357426,88.7835597 C211.009511,89.3153299 211.639659,90.3871794 211.590379,91.1691757 C211.481645,92.8824092 211.127783,94.6419808 210.518301,96.2465593 C209.575304,98.7290061 208.316598,101.089695 207.234028,103.521011 C206.946932,104.165271 206.813081,104.878559 206.608967,105.559889 C206.739956,105.630835 206.870628,105.70146 207.001299,105.772086 C207.421928,105.283778 207.926491,104.845323 208.248242,104.298213 C209.436685,102.279148 210.611138,100.248578 211.692119,98.1703917 C212.10162,97.3829626 212.555949,97.0617912 213.35969,97.4011783 C214.257858,97.7814707 214.055969,98.4576882 213.689071,99.0859697 C212.070144,101.860187 210.505584,104.671795 208.755349,107.361006 C208.153179,108.28681 207.155816,109.044199 206.187384,109.621349 C203.333278,111.323078 200.160282,109.609844 200.286185,106.288197 C200.36853,104.108067 200.939224,101.893742 201.624057,99.8046905 C202.312387,97.7044535 203.417213,95.7429115 204.32937,93.7158568 C204.501691,93.3333274 204.625368,92.9287473 204.680688,92.494447 C202.693274,94.7656557 201.201203,97.3481291 200.227366,100.159737 C199.177544,103.19153 198.358542,106.310568 197.57801,109.426409 C197.302678,110.525422 197.001276,111.041214 195.74702,110.997432 C193.795532,110.929363 192.282478,109.940283 190.864803,108.850857 C190.32018,108.432535 190.000973,107.396159 190.000019,106.640367 C189.994296,103.13209 191.27812,99.9532922 192.805481,96.8726037 C194.247637,93.9635263 195.642101,91.0646752 194.813244,87.6503521 C194.773184,87.4864109 195.323212,86.9562385 195.466283,87.0028962 C197.235594,87.5819633 199.102829,88.0293662 200.673112,88.9689123 C201.342366,89.3693379 201.377975,90.8390563 201.6975,91.8108793" id="Fill-6" fill="#231916"></path>
            <path d="M249.795724,94.0485075 C249.652773,93.7807848 249.52171,93.1744997 249.217217,93.0561145 C248.842925,92.910287 248.218089,93.0235666 247.885249,93.2829928 C246.373451,94.4614196 245.731851,96.2075207 245.374627,98.0608386 C245.313058,98.3805742 245.597739,98.9747336 245.872972,99.1125837 C246.211908,99.2823436 246.824857,99.2746852 247.117768,99.0525934 C248.665837,97.8789531 249.505556,96.2349631 249.795724,94.0485075 M244.67542,100.522037 C244.67542,102.584045 244.518449,104.500225 244.719616,106.374284 C244.922307,108.262383 245.991539,108.722841 247.664575,107.939138 C250.004206,106.843357 251.697969,104.963554 253.11467,102.8189 C254.040037,101.418382 254.726138,99.8465078 255.622549,98.4220569 C255.929481,97.9347951 256.504635,97.4733802 257.036203,97.3371256 C257.792102,97.1431144 258.211199,97.63963 257.892076,98.4705597 C255.964228,103.487409 253.487743,108.160272 249.081886,111.238286 C244.541004,114.410753 240.942558,113.27668 239.039399,108.012849 C236.844243,101.941702 238.311541,96.362283 241.703334,91.2047112 C243.034387,89.1803572 244.78149,87.7010215 247.149771,87.1566413 C250.563815,86.3716616 254.35337,88.6276804 255.063854,91.8961954 C255.1303,92.2022098 255.207414,92.5398149 255.150721,92.8362564 C254.448162,96.5100251 252.875404,99.591549 249.539693,101.341479 C247.512481,102.405031 246.652036,102.220912 244.67542,100.522037" id="Fill-8" fill="#231916"></path>
            <g id="Group-12" transform="translate(212.000000, 120.000000)" fill="#656666">
                <path d="M59.5404046,2.35426757 C69.3432532,1.9769973 79.1461018,1.60032162 88.9489504,1.22305135 C88.9649327,1.32294324 88.9806018,1.42253784 88.9968975,1.52242973 C88.6299292,1.59437568 88.254813,1.64015946 87.8978729,1.74272703 C84.3971018,2.74937568 80.769725,2.45921351 77.194056,2.68724054 C70.2896616,3.12783514 63.3733588,3.43197027 56.4802461,3.99386216 C49.2019891,4.58697027 41.9271792,5.28561892 34.6827673,6.17007838 C23.9567004,7.47967297 13.2582109,8.99232162 2.54906655,10.4255919 C2.16642923,10.476727 1.79570035,10.6057541 1.37514401,10.7092135 C1.18868275,9.99421351 1.01914401,9.27951081 0.813566549,8.57432162 C0.627732042,7.93691622 0.402725,7.31021351 0.184612324,6.64813243 C29.6677426,1.98561892 59.1925525,1.11215946 88.7029468,0.076672973 C83.8452391,0.35642973 78.9847109,0.599321622 74.1307637,0.926348649 C69.2363905,1.25605135 64.3482849,1.6689973 59.4573588,2.04567297 C59.4849363,2.14853784 59.5128271,2.2514027 59.5404046,2.35426757" id="Fill-10"></path>
            </g>
            <path d="M223.502382,100.158426 C223.74181,99.3876989 224.021191,98.7378389 224.139892,98.0543158 C224.395533,96.5833945 224.679547,95.0983668 224.718921,93.6114154 C224.733686,93.0490798 224.188241,92.1183727 223.74789,91.9901319 C223.31275,91.8641354 222.552485,92.4081967 222.170616,92.8878171 C220.920204,94.4581249 220.387208,96.4205288 220.028789,98.4355114 C219.598281,100.857658 219.513743,103.293271 220.209736,105.663801 C220.401973,106.317828 221.051933,107.366517 221.346079,107.30977 C221.986774,107.186018 222.601413,106.539044 223.093008,105.965166 C223.385707,105.623725 223.504119,105.026444 223.560574,104.524382 C223.678406,103.476014 224.243249,103.408367 224.954585,103.655551 C226.468455,104.182299 227.315864,105.592627 228.05094,106.952941 C228.343929,107.495078 228.087419,108.627123 227.766927,109.310005 C226.209919,112.626952 222.338824,113.893329 218.785904,112.343219 C216.0526,111.150581 214.458824,108.927207 214.14528,105.703235 C213.634866,100.455624 214.422055,95.5013633 217.261612,91.1331632 C219.376513,87.8796957 222.812469,86.3754318 225.854685,87.2410568 C228.607676,88.0242871 230.957374,91.2700602 230.999354,94.3468761 C231.024542,96.2009165 230.314074,97.2213922 228.716534,97.7850102 C228.230729,97.9562116 227.746371,98.262707 227.363634,98.6358875 C226.311539,99.6618134 224.988748,100.269995 223.502382,100.158426" id="Fill-13" fill="#231916"></path>
            <path d="M265.979052,95.3015446 C265.42478,96.7375945 265.011126,97.9164877 264.517202,99.0572722 C264.039391,100.161187 263.479259,101.224825 262.943736,102.330289 C262.007449,101.865857 261.580905,101.352783 261.894368,100.419583 C263.339812,96.1151513 264.858203,91.8643195 268.107084,88.6077238 C268.991226,87.7209978 270.030926,86.7360565 271.128339,87.0647834 C272.433458,87.4557855 273.608797,88.4648934 274.724374,89.3664911 C275.219469,89.766788 275.024946,90.3136334 274.322145,90.6473175 C271.999297,91.7493735 270.991236,93.8413281 271.677925,96.4088676 C272.161302,98.2164006 273.035482,99.9065091 273.523547,101.713113 C273.968254,103.359535 274.451046,105.113778 274.350855,106.782508 C274.079285,111.293285 270.222226,113.971743 266.142522,112.671088 C263.790671,111.921305 261.882063,110.444048 260.573136,108.239627 C260.192293,107.597974 259.994548,106.727359 260.000114,105.963944 C260.006559,105.036321 260.771467,104.717199 261.470753,105.30711 C262.265836,105.978196 262.931725,106.818758 263.718604,107.502547 C265.194223,108.785542 266.255017,108.525287 267.092871,106.680265 C268.181202,104.282821 267.708371,101.845719 267.135057,99.4324732 C266.833898,98.165589 266.436943,96.9241106 265.979052,95.3015446" id="Fill-15" fill="#231916"></path>
            <path d="M287.084866,95.3932587 C286.79931,96.0191346 286.574461,96.4854371 286.371124,96.961674 C285.756103,98.403424 285.183812,99.8675266 284.515746,101.281646 C284.347477,101.637737 283.884222,101.839533 283.556231,102.112111 C283.334623,101.592721 282.834826,100.994476 282.942978,100.568222 C283.291598,99.1963243 283.893063,97.8980043 284.346004,96.5524952 C285.383613,93.4684418 287.023865,90.784564 289.269414,88.5477405 C289.93306,87.8867832 290.82568,87.4086836 291.692957,87.0752556 C292.168,86.8927085 292.853747,87.0721511 293.362679,87.2950573 C294.020725,87.5831589 294.608929,88.0593959 295.206563,88.486581 C296.281893,89.2558869 296.259791,90.094424 295.167075,90.69981 C293.085964,91.852527 292.122322,93.9260515 292.777716,96.343249 C293.268378,98.1538187 294.138307,99.8504516 294.623369,101.662263 C295.074836,103.349272 295.574338,105.144009 295.467365,106.850887 C295.19065,111.268031 291.416242,113.900063 287.368654,112.716611 C284.981653,112.018399 283.072347,110.547466 281.695254,108.379874 C281.340446,107.821367 281.091726,107.125328 281.007444,106.462508 C280.954695,106.045568 281.188974,105.373434 281.498106,105.184368 C281.771874,105.016412 282.417248,105.234661 282.739051,105.498547 C283.459277,106.0881 284.043651,106.858958 284.748553,107.472416 C286.265035,108.792157 287.367181,108.517716 288.206757,106.615252 C289.253501,104.244001 288.791719,101.838601 288.230627,99.4583478 C287.925032,98.1603382 287.51099,96.89058 287.084866,95.3932587" id="Fill-17" fill="#231916"></path>
            <path d="M168,96.5880761 C166.347439,97.3961773 164.420759,97.9922393 162.45797,97.5767443 C161.707834,97.4181123 161.120661,96.2851176 160.549188,95.5269267 C160.253404,95.1346384 160.154495,94.5907119 159.919626,93.9965573 C159.658382,94.1650442 159.400905,94.302059 159.176398,94.4813544 C155.454289,97.4556245 153.554299,101.50376 152.721895,106.092007 C152.505238,107.286356 152.745759,108.611045 152.992246,109.831144 C153.175306,110.739066 152.929133,111.039481 152.120279,110.995929 C151.423208,110.958417 150.694737,110.943157 150.043823,110.72476 C149.061958,110.395098 148.10741,109.949085 147.192739,109.455386 C146.208676,108.924176 146.018394,107.913573 146.001752,106.897883 C145.950257,103.688367 147.041079,100.76814 148.307739,97.9016379 C148.961479,96.4227682 149.728571,94.9903119 150.29973,93.4809239 C150.987381,91.6638089 151.492601,89.786293 150.959436,87.8006911 C150.902916,87.5902415 150.979531,87.3435513 150.992405,87.1502682 C151.114236,87.0746081 151.192107,86.9875036 151.241718,87.0014911 C153.011714,87.5009117 154.868058,87.8204009 156.504919,88.6068849 C157.203875,88.9422691 157.444396,90.2545593 157.932345,91.1990395 C158.408677,90.756523 159.10669,90.1121402 159.800936,89.4629889 C162.280562,87.1451818 163.382374,87.3600821 164.851248,90.471049 C165.221763,91.2562614 165.496196,92.0897946 165.897483,92.8572046 C166.521079,94.0499645 167.215324,95.2048943 168,96.5880761" id="Fill-19" fill="#231916"></path>
            <path d="M178.317912,106.491972 C178.672729,106.042654 179.112363,105.643362 179.368227,105.135424 C180.549442,102.791849 181.650647,100.400396 182.853067,98.0703258 C183.091402,97.6081174 183.604543,97.1505126 184.067643,97.0262135 C184.727801,96.8491257 185.231047,97.2858605 184.890366,98.0936511 C183.530753,101.314685 182.187537,104.547996 180.691086,107.694451 C180.244384,108.633906 179.389714,109.40364 178.596111,110.077003 C177.256006,111.214417 175.75079,111.243573 174.213344,110.476295 C172.677029,109.70963 172.115542,108.301521 172.024222,106.595708 C171.815007,102.681975 172.999333,99.0757673 174.101103,95.4425511 C174.559397,93.9322406 174.896967,92.3715965 175.186193,90.8112594 C175.371376,89.8116493 175.308894,88.7592504 175.484182,87.7565711 C175.538182,87.4453631 176.040015,86.9662745 176.282026,87.0018762 C177.067995,87.1185025 177.893545,87.3041839 178.586498,87.7034755 C180.710594,88.9271309 181.558762,90.7949931 180.947798,93.3346842 C180.167201,96.578123 179.136111,99.7497445 178.293032,102.977224 C178.015399,104.039444 177.986561,105.178392 177.844069,106.282045 C178.001828,106.352021 178.15987,106.421996 178.317912,106.491972" id="Fill-21" fill="#231916"></path>
            <path d="M290,117.375315 C287.626338,117.588488 285.256037,117.896699 282.878403,117.998666 C274.150734,118.372215 265.409925,118.487382 256.694784,119.063875 C248.368327,119.614959 240.064788,120.584801 231.757277,121.438816 C227.439583,121.882983 223.135029,122.475975 218.838419,123 C218.593353,122.192844 218.33973,121.384697 218.104136,120.570611 C217.907044,119.888191 217.915906,119.396175 218.796556,119.316318 C223.087054,118.927589 227.387331,118.611458 231.658578,118.047175 C240.000007,116.945667 248.384828,116.804761 256.763232,116.5081 C260.835553,116.364554 264.911541,116.324955 268.985696,116.249717 C273.791079,116.16029 278.596461,116.082742 283.401537,116.002225 C283.850113,115.994635 284.298689,116.001235 284.745431,116.107162 C278.251779,116.398543 271.758126,116.689595 265.264474,116.980976 C265.267224,117.063474 265.269669,117.145641 265.272419,117.228139 L289.982888,117.228139 C289.988694,117.276977 289.994194,117.326476 290,117.375315" id="Fill-23" fill="#656666"></path>
            <path d="M186,85.8473232 C185.642889,87.0875007 185.358074,88.1062291 185.054192,89.1212041 C184.823798,89.8912715 184.093687,90.2099955 183.284526,89.8559272 C181.281686,88.9801398 179.336047,88.0152098 177.441253,87.0008603 C177.104004,86.81976 176.984834,86.2242246 177.001518,85.8266796 C177.057925,84.5076813 177.212448,83.1908724 177.349493,81.874689 C177.425761,81.139966 177.917136,80.9116357 178.858177,81.0292414 C181.254277,81.3282603 183.192766,82.3610638 184.896491,83.5693376 C185.616672,84.0801094 185.689762,85.1560767 186,85.8473232" id="Fill-25" fill="#231916"></path>
        </g>
    </g>
</svg>