<?xml version="1.0" encoding="utf-8"?>
<!-- Generator: Adobe Illustrator 24.1.2, SVG Export Plug-In . SVG Version: 6.00 Build 0)  -->
<svg version="1.1" xmlns="http://www.w3.org/2000/svg" xmlns:xlink="http://www.w3.org/1999/xlink" x="0px" y="0px"
	 viewBox="0 0 28 39" style="enable-background:new 0 0 28 39;" xml:space="preserve">
<style type="text/css">
	.st0{fill:#FFFFFF;}
</style>
<g id="圖層_2">
</g>
<g id="圖層_1">
	<desc>Created with Sketch.</desc>
	<g>
		<path class="st0" d="M20.4,13.3c-0.2,0-0.4,0-0.5-0.1c-0.1-0.1-0.3-0.2-0.4-0.3C17.8,12.3,15.9,12,14,12c-0.1,0-0.1,0-0.2,0
			c-0.2,0.8,0,1.8,0.4,3.1c0.1,0.4,0,0.9-0.4,1.2c-0.2,0.1-0.4,0.2-0.6,0.2c-0.2,0-0.5-0.1-0.7-0.2c-1.1-0.8-2.2-2.2-2.7-3.8
			C4.1,14,0,18.4,0,23.5C0,29.2,5,34,11.7,34.9c0.5,0.1,1.1,0.3,1.2,0.7c0.1,0.4,0.1,0.9,0,1.3L12.8,38c-0.1,0.4-0.3,1.4,1.2,0.8
			c1.5-0.6,8.1-4.8,11-8.2c2-2.2,3-4.5,3-7C28,19.1,24.9,15.2,20.4,13.3z M8.5,27.3H5.7c-0.4,0-0.7-0.3-0.7-0.7v-5.6
			c0-0.4,0.3-0.7,0.7-0.7c0.4,0,0.7,0.3,0.7,0.7v4.9h2c0.4,0,0.7,0.3,0.7,0.7C9.3,26.9,8.9,27.3,8.5,27.3z M11.4,26.5
			c0,0.4-0.3,0.7-0.7,0.7c-0.4,0-0.7-0.3-0.7-0.7v-5.6c0-0.4,0.3-0.7,0.7-0.7c0.4,0,0.7,0.3,0.7,0.7V26.5z M18.1,26.5
			c0,0.3-0.2,0.6-0.5,0.7c-0.1,0-0.2,0-0.2,0c-0.2,0-0.5-0.1-0.6-0.3l-2.9-3.9v3.5c0,0.4-0.3,0.7-0.7,0.7c-0.4,0-0.7-0.3-0.7-0.7
			v-5.6c0-0.3,0.2-0.6,0.5-0.7c0.1,0,0.2,0,0.2,0c0.2,0,0.4,0.1,0.6,0.3l2.9,3.9v-3.5c0-0.4,0.3-0.7,0.7-0.7c0.4,0,0.7,0.3,0.7,0.7
			V26.5z M22.6,23c0.4,0,0.7,0.3,0.7,0.7c0,0.4-0.3,0.7-0.7,0.7h-2v1.3h2c0.4,0,0.7,0.3,0.7,0.7c0,0.4-0.3,0.7-0.7,0.7h-2.8
			c-0.4,0-0.7-0.3-0.7-0.7v-5.6c0-0.4,0.3-0.7,0.7-0.7h2.8c0.4,0,0.7,0.3,0.7,0.7c0,0.4-0.3,0.7-0.7,0.7h-2V23H22.6z"/>
	</g>
	<path class="st0" d="M20.2,12.3c0.1,0,0.2,0.1,0.3,0l5.8-5.1c0.1-0.1,0.1-0.2,0.1-0.2c0-0.1,0-0.2-0.1-0.2v0l-5.8-5.1
		c-0.1-0.1-0.1-0.1-0.2-0.1c-0.1,0-0.1,0-0.1,0c-0.1,0-0.2,0.1-0.2,0.3V5l-0.5,0c-6.4,0.1-9.1,1.7-9.1,5.7c0,2,1.3,3.9,2.6,4.8
		c0.1,0,0.1,0,0.1,0c-0.7-2.3-0.6-3.9,0.2-5c0.9-1.3,2.8-1.9,6.2-1.9l0.5,0V12C20.1,12.2,20.2,12.2,20.2,12.3z"/>
</g>
</svg>
