<?xml version="1.0" encoding="UTF-8"?>
<svg width="134px" height="175px" viewBox="0 0 134 175" version="1.1" xmlns="http://www.w3.org/2000/svg" xmlns:xlink="http://www.w3.org/1999/xlink">
    <!-- Generator: Sketch 47.1 (45422) - http://www.bohemiancoding.com/sketch -->
    <title>story-a</title>
    <desc>Created with Sketch.</desc>
    <defs></defs>
    <g id="Page-1-Copy" stroke="none" stroke-width="1" fill="none" fill-rule="evenodd">
        <g id="Shop-03_2-Copy" transform="translate(-126.000000, -1778.000000)" fill="#ABD5E3">
            <g id="story-a" transform="translate(193.000000, 1865.500000) scale(-1, 1) translate(-193.000000, -1865.500000) translate(126.000000, 1778.000000)">
                <g id="Group-3">
                    <path d="M103.479758,168.863429 C103.847336,167.135917 104.18459,165.552739 104.562413,163.777798 C104.795171,164.116349 104.95089,164.277856 105.031208,164.471256 C105.528278,165.66559 106.033544,166.857471 106.488407,168.068569 C107.511232,170.792518 106.288841,173.61337 103.665391,174.646197 C101.097263,175.656945 98.2976055,174.439305 97.1719235,171.793043 C96.4924985,170.195555 95.8561009,168.579667 95.2029021,166.97073 C94.4726636,165.172891 93.7784862,163.358697 92.9912875,161.5858 C92.7978685,161.149936 92.3655443,160.723067 91.9344495,160.507179 C90.6882905,159.882004 90.2899786,158.655777 90.9558807,157.432821 C91.1730673,157.032938 91.3111651,156.477272 91.2259297,156.043861 C89.5171223,147.37809 88.2549817,138.645263 87.6866086,129.836384 C87.2874771,123.654141 87.0756177,117.446957 87.1104495,111.253265 C87.1588043,102.654959 90.4157829,95.2186857 96.0458318,88.7633119 C99.6015443,84.6863843 103.661703,81.1479498 107.771037,77.6585806 C113.308474,72.9560689 118.747972,68.1627862 123.796125,62.9144217 C129.75933,56.714597 132.370486,49.3061273 132.621685,40.8914077 C132.86059,32.9023306 131.517722,25.1230082 129.110229,17.5575292 C127.441581,12.3132535 125.306187,7.21617407 123.371587,2.05612734 C123.243324,1.71348715 123.051954,1.39374416 122.825752,0.932120327 C121.969709,1.35776285 121.18292,1.74169977 120.402688,2.13831192 C106.024939,9.454375 93.2424862,18.9804264 81.6008777,30.077389 C66.7469572,44.2360339 54.314052,60.3286741 43.5030795,77.7064194 C31.3844801,97.1849825 21.5905963,117.797775 13.530107,139.242634 C11.2549755,145.295263 9.21014373,151.434574 7.01328135,157.517459 C6.53014373,158.854901 5.90030275,160.148183 5.24423547,161.412845 C4.75167278,162.362261 3.84399694,162.67587 2.80477982,162.518861 C1.60328746,162.338137 0.541941896,161.86302 0.0624923547,160.66705 C-0.0801131498,160.312144 0.0493792049,159.799001 0.172724771,159.394211 C5.88555046,140.634048 12.8752691,122.368218 21.4770856,104.729609 C29.8186881,87.6245853 39.5461865,71.3630783 51.2267248,56.3016297 C63.6342232,40.3034404 77.7988838,26.1243516 94.653789,14.7546671 C103.392474,8.86027453 112.644211,3.93655958 122.508578,0.171606308 C123.369538,-0.156723131 123.69081,0.0321787383 124.041177,0.809865654 C128.280823,10.2312442 131.603367,19.9363843 133.076138,30.1967815 C134.136254,37.5843984 134.171905,44.935625 131.782443,52.1310689 C130.69733,55.3988259 129.065563,58.3640129 126.851489,61.0139544 C122.418015,66.3207886 117.277251,70.8977745 112.095917,75.4477745 C107.359202,79.6077044 102.59585,83.7574124 98.1250856,88.1933353 C93.6797278,92.6043166 90.4657768,97.8980666 89.1556911,104.098709 C88.5475688,106.978032 88.2144128,109.961209 88.1717951,112.903908 C88.0205841,123.276338 88.803685,133.60052 90.3203028,143.862553 C90.8972813,147.768569 91.6283394,151.651279 92.2684251,155.548709 C92.3671835,156.147716 92.5896972,156.476863 93.2273242,156.665765 C94.5833058,157.067693 95.0090734,158.253032 94.4595505,159.602739 C94.3235015,159.935975 94.2849817,160.408639 94.4132446,160.733697 C95.8020092,164.248826 97.2174098,167.753732 98.6598563,171.24719 C99.286419,172.763312 100.857538,173.625637 102.367599,173.374585 C103.942407,173.112903 105.117673,171.833931 105.259869,170.227039 C105.388131,168.773475 105.043092,168.462728 103.479758,168.863429" id="Fill-1"></path>
                </g>
                <path d="M46.6032185,120.410527 C47.6878471,120.384137 48.5983995,119.451695 48.5854275,118.380183 C48.5716185,117.244581 47.6087596,116.334759 46.4730798,116.383768 C45.3692024,116.431521 44.5431774,117.332547 44.5728875,118.457258 C44.6025976,119.566051 45.5081286,120.437335 46.6032185,120.410527 M42.6358714,134.582721 C43.7326351,134.576438 44.626031,133.689236 44.6406768,132.591334 C44.6553226,131.465366 43.7050173,130.5346 42.5701744,130.563084 C41.4805244,130.590731 40.5900577,131.518146 40.6109803,132.6039 C40.6314845,133.696776 41.5449661,134.589005 42.6358714,134.582721 M30.4676945,128.592222 C30.4463534,127.491388 29.5408224,126.60251 28.4511724,126.612982 C27.3598486,126.623036 26.4488777,127.531601 26.4438563,128.615261 C26.437998,129.754214 27.3862111,130.677859 28.5260754,130.643929 C29.6249314,130.611256 30.4886171,129.698083 30.4676945,128.592222 M47.5618929,128.319946 C48.655309,128.298164 49.5457757,127.384991 49.5399174,126.291277 C49.534059,125.14646 48.5879382,124.241665 47.4443078,124.287742 C46.3534024,124.331725 45.4830215,125.267099 45.5181715,126.357461 C45.552903,127.45285 46.4785197,128.341728 47.5618929,128.319946 M30.4045082,114.388192 C30.3777272,115.508295 31.218398,116.422306 32.3147433,116.465032 C33.4458201,116.509434 34.4183034,115.5816 34.4203957,114.455214 C34.4229064,113.375743 33.5140278,112.445814 32.4335838,112.423613 C31.3531397,112.400574 30.4304522,113.294479 30.4045082,114.388192 M32.7357064,133.465969 C32.7022302,134.571411 33.5516886,135.513069 34.6312957,135.567524 C35.7381023,135.622817 36.7382035,134.676971 36.7511755,133.561475 C36.7637291,132.477397 35.863638,131.54663 34.7794279,131.523592 C33.6701106,131.500134 32.7691826,132.356338 32.7357064,133.465969 M29.5295242,120.754014 C29.5475177,119.685434 28.6378022,118.748384 27.5540105,118.719481 C26.4476224,118.68974 25.5328855,119.545525 25.4906218,120.649292 C25.4471027,121.778192 26.3831807,122.761738 27.4996117,122.761319 C28.5465796,122.761319 29.5119492,121.807095 29.5295242,120.754014 M42.3174292,113.468317 C42.3090601,112.368739 41.418175,111.489915 40.3071839,111.484469 C39.1970297,111.479861 38.3015416,112.348632 38.2827112,113.449048 C38.2634624,114.57334 39.225066,115.537198 40.3398232,115.51039 C41.4160827,115.484419 42.3253798,114.545274 42.3174292,113.468317 M37.4391112,137.999162 C29.3274117,137.912871 22.8970539,131.379494 23.0012485,123.330586 C23.1054432,115.290055 29.7082034,108.894911 37.7956327,109.001309 C45.7131703,109.105192 52.1029382,115.71355 51.9987436,123.689572 C51.8941305,131.690727 45.3892881,138.084196 37.4391112,137.999162" id="Fill-4"></path>
            </g>
        </g>
    </g>
</svg>