<?xml version="1.0" encoding="utf-8"?>
<!-- Generator: Adobe Illustrator 24.1.2, SVG Export Plug-In . SVG Version: 6.00 Build 0)  -->
<svg version="1.1" id="圖層_1" xmlns="http://www.w3.org/2000/svg" xmlns:xlink="http://www.w3.org/1999/xlink" x="0px" y="0px"
	 viewBox="0 0 85 49" style="enable-background:new 0 0 85 49;" xml:space="preserve">
<style type="text/css">
	.st0{enable-background:new    ;}
	.st1{fill:#ABD5E3;}
</style>
<desc>Created with Sketch.</desc>
<g id="Page-1-Copy">
	<g id="Shop-03_2-Copy" transform="translate(-538.000000, -1465.000000)">
		<g class="st0">
			<path class="st1" d="M560.5,1504c-1.3,2.8-4,6.9-6.8,8.5c-1.5,0.8-3.2,1.2-4.9,0.8c-3.1-1.4-5.5-3.6-7.3-6.3
				c-2-3.2-3.2-7.2-3.5-11c-0.4-6.3,0.1-12.5,2.3-17.9c1.7-4,4.2-7.6,8-10.6c0.9-0.4,1.9-1.4,3-1.4c0.8,0,0.9,0.9,0.6,1.4
				c-0.6,0.7-1.9,0.9-2.4,1.7c3.5,1.3,6.1,3.6,8.2,6.4c2.7,3.7,4.3,8.2,5,12.5C563.6,1493.6,562.8,1499.1,560.5,1504z M556.8,1477.3
				c-2-3.1-4.8-5.7-8.4-7.3c-2.1,1.7-3.6,3.9-4.8,6c-1.7,3.2-2.9,7.1-3.5,11c-0.6,5.3-0.2,10.7,1.5,15.5c1.3,3.5,4.1,7.3,7.8,8.9
				c1.2,0.2,2.4-0.1,3.4-0.6c2.7-2.3,4.5-5,5.8-7.9c1.4-3.2,2.2-6.8,2.4-10.4C560.9,1487,559.6,1481.6,556.8,1477.3z"/>
			<path class="st1" d="M594.5,1468.3c-2.4,4.2-3.2,9.1-3.9,14c-0.6,4.5-0.9,9.2-0.7,13.9c0.2,5.3,1.1,10.5,2.8,15
				c0.4,0.6,0.6,1.3,0.9,1.9c-0.1,0.3-0.6,0.4-0.9,0.2c-1.2-0.7-1.9-1.7-2.5-2.9c-0.8-1.8-1.1-3.9-1.6-5.8
				c-0.8-4.5-1.1-9.4-0.9-14.2c0.2-6.3,1.2-12.6,2.7-18.3c0.9-2.2,1.5-5.2,4.1-6.3c0.4-0.1,1.2,0.1,1.4,0.7
				C595.9,1467.6,594.9,1467.6,594.5,1468.3z"/>
			<path class="st1" d="M621.6,1513.1c-0.5,0.7-1.4,1.1-2.3,0.9c-0.6-0.2-1.2-0.6-1.3-1.3c-0.6-1.9-0.4-4.2,0.9-5.6
				c0.6-0.6,1.4-1.1,2.2-0.9c0.8,0.2,1.2,1,1.3,1.7C622.9,1509.6,622.3,1511.7,621.6,1513.1z"/>
		</g>
	</g>
</g>
</svg>
