<?xml version="1.0" encoding="utf-8"?>
<!-- Generator: Adobe Illustrator 24.1.2, SVG Export Plug-In . SVG Version: 6.00 Build 0)  -->
<svg version="1.1" id="圖層_1" xmlns="http://www.w3.org/2000/svg" xmlns:xlink="http://www.w3.org/1999/xlink" x="0px" y="0px"
	 viewBox="0 0 85 49" style="enable-background:new 0 0 85 49;" xml:space="preserve">
<style type="text/css">
	.st0{enable-background:new    ;}
	.st1{fill:#ABD5E3;}
</style>
<desc>Created with Sketch.</desc>
<g id="Page-1-Copy">
	<g id="Shop-03_2-Copy" transform="translate(-141.000000, -2570.000000)">
		<g class="st0">
			<path class="st1" d="M163.5,2609c-1.3,2.8-4,6.9-6.8,8.5c-1.5,0.8-3.2,1.2-4.9,0.8c-3.1-1.4-5.5-3.6-7.3-6.3
				c-2-3.2-3.2-7.2-3.5-11c-0.4-6.3,0.1-12.5,2.3-17.9c1.7-4,4.2-7.6,8-10.6c0.9-0.4,1.9-1.4,3-1.4c0.8,0,0.9,0.9,0.6,1.4
				c-0.6,0.7-1.9,0.9-2.4,1.7c3.5,1.3,6.1,3.6,8.2,6.4c2.7,3.7,4.3,8.2,5,12.5C166.6,2598.6,165.8,2604.1,163.5,2609z M159.8,2582.3
				c-2-3.1-4.8-5.7-8.4-7.3c-2.1,1.7-3.6,3.9-4.8,6c-1.7,3.2-2.9,7.1-3.5,11c-0.6,5.3-0.2,10.7,1.5,15.5c1.3,3.5,4.1,7.3,7.8,8.9
				c1.2,0.2,2.4-0.1,3.4-0.6c2.7-2.3,4.5-5,5.8-7.9c1.4-3.2,2.2-6.8,2.4-10.4C163.9,2592,162.6,2586.6,159.8,2582.3z"/>
			<path class="st1" d="M205.6,2602.4c-1.4,3.2-3.5,6.6-6.2,9.5c-2.8,3.1-6.2,5.5-10,6.6c-0.6,0.1-1.9,0-1.9-0.9
				c2.4-0.7,4.8-2.1,7-3.7c2.2-1.7,4.2-3.9,5.9-6.2c2-2.9,3.5-6,4.1-9.2c0.1-0.6,0.1-2.5-0.7-3.2c-1.3-1.2-3.1-1.7-5-1.9
				c-2.1-0.1-4.2,0.3-6,1c-2.4,0.9-4.6,2.6-6.8,4.2c-0.6,0.1-1.2-0.9-0.9-1.5c2.3-2.3,4.5-4.8,6.2-7.3c1.4-2.1,2.4-4.3,3-6.7
				c0.4-1.5,0.3-3-0.2-4.4c-0.5-1.5-1.5-2.9-2.9-3.9c-1.6-1-3.6-1.7-5.6-1.8c-1.4,0-2.9,0.2-4.2,0.9c-0.4,0.3-0.9,0.6-1.3,0.5
				c-0.4-0.3-0.3-0.8,0-1.1c0.9-1.2,2-1.8,3.3-2c2-0.4,4.2,0.1,6,0.6c2.3,0.8,4.9,2.3,6,4.8c1,2.2,1.2,4.5,0.8,6.7
				c-0.6,3.7-2.9,7.2-5.5,10.1c2.2-1.3,5.3-2.1,8.1-2c2.2,0.1,4.5,0.8,6.2,2.2c1.2,0.9,1.6,2.2,1.6,3.5
				C206.8,2598.8,206.1,2600.8,205.6,2602.4z"/>
			<path class="st1" d="M224.6,2618.1c-0.5,0.7-1.4,1.1-2.3,0.9c-0.6-0.2-1.2-0.6-1.3-1.3c-0.6-1.9-0.4-4.2,0.9-5.6
				c0.6-0.6,1.4-1.1,2.2-0.9c0.8,0.2,1.2,1,1.3,1.7C225.9,2614.6,225.3,2616.7,224.6,2618.1z"/>
		</g>
	</g>
</g>
</svg>
