<?xml version="1.0" encoding="utf-8"?>
<!-- Generator: Adobe Illustrator 24.1.2, SVG Export Plug-In . SVG Version: 6.00 Build 0)  -->
<svg version="1.1" id="圖層_1" xmlns="http://www.w3.org/2000/svg" xmlns:xlink="http://www.w3.org/1999/xlink" x="0px" y="0px"
	 viewBox="0 0 85 49" style="enable-background:new 0 0 85 49;" xml:space="preserve">
<style type="text/css">
	.st0{enable-background:new    ;}
	.st1{fill:#ABD5E3;}
</style>
<desc>Created with Sketch.</desc>
<g id="Page-1-Copy">
	<g id="Shop-03_2-Copy" transform="translate(-727.000000, -1964.000000)">
		<g class="st0">
			<path class="st1" d="M749.5,2003c-1.3,2.8-4,6.9-6.8,8.5c-1.5,0.8-3.2,1.2-4.9,0.8c-3.1-1.4-5.5-3.6-7.3-6.3
				c-2-3.2-3.2-7.2-3.5-11c-0.4-6.3,0.1-12.5,2.3-17.9c1.7-4,4.2-7.6,8-10.6c0.9-0.4,1.9-1.4,3-1.4c0.8,0,0.9,0.9,0.6,1.4
				c-0.6,0.7-1.9,0.9-2.4,1.7c3.5,1.3,6.1,3.6,8.2,6.4c2.7,3.7,4.3,8.2,5,12.5C752.6,1992.6,751.8,1998.1,749.5,2003z M745.8,1976.3
				c-2-3.1-4.8-5.7-8.4-7.3c-2.1,1.7-3.6,3.9-4.8,6c-1.7,3.2-2.9,7.1-3.5,11c-0.6,5.3-0.2,10.7,1.5,15.5c1.3,3.5,4.1,7.3,7.8,8.9
				c1.2,0.2,2.4-0.1,3.4-0.6c2.7-2.3,4.5-5,5.8-7.9c1.4-3.2,2.2-6.8,2.4-10.4C749.9,1986,748.6,1980.6,745.8,1976.3z"/>
			<path class="st1" d="M796.4,1994.8c-2.9,1.4-8.8,4.2-12,6c-6.7,3.7-12.9,7.4-17.7,10.2c-0.7,0.5-2.4,1.3-3.2,1.8
				c-0.9,0.3-1.3-0.9-1.2-1.5c2.9-2.3,5.8-4.8,8.6-7.6c2.4-2.4,4.6-5,6.4-7.8c2.2-3.4,3.7-7,4.1-10.9c0.3-2.6-0.2-5-1.4-7.1
				c-1.3-2.3-3.2-4.2-5.5-5.8c-3.3-2.4-6.9-4.1-10.9-4.9c-1-0.1-1.7,0.6-2.7,0.3c-0.3-0.6,0.1-1.2,0.4-1.7c0.7-0.8,2.1-0.6,3-0.4
				c4.3,0.9,8.3,2.8,11.9,5.5c2.4,1.8,4.4,4.1,5.7,6.6c1.3,2.6,1.8,5.5,1.3,8.7c-0.6,3.9-2.2,7.5-4.4,10.8c-2.2,3.3-5.1,6.6-8.2,9.5
				c4.6-3.2,8.4-4.8,13.5-7.9c4.1-2.5,8.1-4,12.6-5.7c0.6-0.3,1.2,0.1,0.9,0.8C797.5,1994.3,796.8,1994.5,796.4,1994.8z"/>
			<path class="st1" d="M810.6,2012.1c-0.5,0.7-1.4,1.1-2.3,0.9c-0.6-0.2-1.2-0.6-1.3-1.3c-0.6-1.9-0.4-4.2,0.9-5.6
				c0.6-0.6,1.4-1.1,2.2-0.9c0.8,0.2,1.2,1,1.3,1.7C811.9,2008.6,811.3,2010.7,810.6,2012.1z"/>
		</g>
	</g>
</g>
</svg>
